solid OpenSCAD_Model
  facet normal -1 0 0
    outer loop
      vertex 0 0 0
      vertex 0 10 18.8
      vertex 0 10 0
    endloop
  endfacet
  facet normal -1 -0 0
    outer loop
      vertex 0 10 18.8
      vertex 0 0 0
      vertex 0 0 18.8
    endloop
  endfacet
  facet normal -0 0 1
    outer loop
      vertex 0 10 18.8
      vertex 20 0 18.8
      vertex 20 10 18.8
    endloop
  endfacet
  facet normal 0 0 1
    outer loop
      vertex 20 0 18.8
      vertex 0 10 18.8
      vertex 0 0 18.8
    endloop
  endfacet
  facet normal 1 -0 0
    outer loop
      vertex 3 0 3.9
      vertex 3 10 3
      vertex 3 10 3.9
    endloop
  endfacet
  facet normal 1 0 0
    outer loop
      vertex 3 10 3
      vertex 3 0 3.9
      vertex 3 0 3
    endloop
  endfacet
  facet normal 1 -0 0
    outer loop
      vertex 3 0 11.9
      vertex 3 10 6.9
      vertex 3 10 11.9
    endloop
  endfacet
  facet normal 1 0 0
    outer loop
      vertex 3 10 6.9
      vertex 3 0 11.9
      vertex 3 0 6.9
    endloop
  endfacet
  facet normal 1 -0 0
    outer loop
      vertex 3 0 15.8
      vertex 3 10 14.9
      vertex 3 10 15.8
    endloop
  endfacet
  facet normal 1 0 0
    outer loop
      vertex 3 10 14.9
      vertex 3 0 15.8
      vertex 3 0 14.9
    endloop
  endfacet
  facet normal 0 1 0
    outer loop
      vertex 20 10 3
      vertex 20 10 0
      vertex 3 10 3
    endloop
  endfacet
  facet normal 0 1 0
    outer loop
      vertex 20 10 6.9
      vertex 20 10 3.9
      vertex 3 10 6.9
    endloop
  endfacet
  facet normal 0 1 0
    outer loop
      vertex 20 10 14.9
      vertex 20 10 11.9
      vertex 3 10 14.9
    endloop
  endfacet
  facet normal 0 1 0
    outer loop
      vertex 3 10 15.8
      vertex 20 10 18.8
      vertex 20 10 15.8
    endloop
  endfacet
  facet normal 0 1 0
    outer loop
      vertex 20 10 18.8
      vertex 3 10 15.8
      vertex 0 10 18.8
    endloop
  endfacet
  facet normal 0 1 -0
    outer loop
      vertex 3 10 14.9
      vertex 0 10 18.8
      vertex 3 10 15.8
    endloop
  endfacet
  facet normal 0 1 0
    outer loop
      vertex 3 10 11.9
      vertex 3 10 14.9
      vertex 20 10 11.9
    endloop
  endfacet
  facet normal 0 1 -0
    outer loop
      vertex 3 10 11.9
      vertex 0 10 18.8
      vertex 3 10 14.9
    endloop
  endfacet
  facet normal 0 1 -0
    outer loop
      vertex 3 10 6.9
      vertex 0 10 18.8
      vertex 3 10 11.9
    endloop
  endfacet
  facet normal 0 1 0
    outer loop
      vertex 3 10 3.9
      vertex 3 10 6.9
      vertex 20 10 3.9
    endloop
  endfacet
  facet normal 0 1 0
    outer loop
      vertex 0 10 0
      vertex 3 10 6.9
      vertex 3 10 3.9
    endloop
  endfacet
  facet normal 0 1 0
    outer loop
      vertex 0 10 0
      vertex 3 10 3.9
      vertex 3 10 3
    endloop
  endfacet
  facet normal 0 1 0
    outer loop
      vertex 3 10 6.9
      vertex 0 10 0
      vertex 0 10 18.8
    endloop
  endfacet
  facet normal 0 1 0
    outer loop
      vertex 0 10 0
      vertex 3 10 3
      vertex 20 10 0
    endloop
  endfacet
  facet normal 0 0 -1
    outer loop
      vertex 0 0 0
      vertex 20 10 0
      vertex 20 0 0
    endloop
  endfacet
  facet normal -0 0 -1
    outer loop
      vertex 20 10 0
      vertex 0 0 0
      vertex 0 10 0
    endloop
  endfacet
  facet normal 0 -1 0
    outer loop
      vertex 0 0 18.8
      vertex 3 0 15.8
      vertex 20 0 18.8
    endloop
  endfacet
  facet normal 0 -1 0
    outer loop
      vertex 0 0 18.8
      vertex 3 0 14.9
      vertex 3 0 15.8
    endloop
  endfacet
  facet normal 0 -1 0
    outer loop
      vertex 3 0 14.9
      vertex 3 0 11.9
      vertex 20 0 14.9
    endloop
  endfacet
  facet normal 0 -1 0
    outer loop
      vertex 0 0 18.8
      vertex 3 0 11.9
      vertex 3 0 14.9
    endloop
  endfacet
  facet normal 0 -1 0
    outer loop
      vertex 0 0 18.8
      vertex 3 0 6.9
      vertex 3 0 11.9
    endloop
  endfacet
  facet normal 0 -1 0
    outer loop
      vertex 3 0 6.9
      vertex 3 0 3.9
      vertex 20 0 6.9
    endloop
  endfacet
  facet normal 0 -1 0
    outer loop
      vertex 0 0 0
      vertex 3 0 6.9
      vertex 0 0 18.8
    endloop
  endfacet
  facet normal 0 -1 -0
    outer loop
      vertex 3 0 6.9
      vertex 0 0 0
      vertex 3 0 3.9
    endloop
  endfacet
  facet normal 0 -1 -0
    outer loop
      vertex 3 0 3.9
      vertex 0 0 0
      vertex 3 0 3
    endloop
  endfacet
  facet normal 0 -1 0
    outer loop
      vertex 20 0 0
      vertex 3 0 3
      vertex 0 0 0
    endloop
  endfacet
  facet normal 0 -1 0
    outer loop
      vertex 3 0 3
      vertex 20 0 0
      vertex 20 0 3
    endloop
  endfacet
  facet normal 0 -1 -0
    outer loop
      vertex 20 0 18.8
      vertex 3 0 15.8
      vertex 20 0 15.8
    endloop
  endfacet
  facet normal 0 -1 -0
    outer loop
      vertex 20 0 14.9
      vertex 3 0 11.9
      vertex 20 0 11.9
    endloop
  endfacet
  facet normal 0 -1 -0
    outer loop
      vertex 20 0 6.9
      vertex 3 0 3.9
      vertex 20 0 3.9
    endloop
  endfacet
  facet normal -0 0 1
    outer loop
      vertex 3 10 3
      vertex 20 0 3
      vertex 20 10 3
    endloop
  endfacet
  facet normal 0 0 1
    outer loop
      vertex 20 0 3
      vertex 3 10 3
      vertex 3 0 3
    endloop
  endfacet
  facet normal 1 -0 0
    outer loop
      vertex 20 0 3
      vertex 20 10 0
      vertex 20 10 3
    endloop
  endfacet
  facet normal 1 0 0
    outer loop
      vertex 20 10 0
      vertex 20 0 3
      vertex 20 0 0
    endloop
  endfacet
  facet normal -0 0 1
    outer loop
      vertex 3 10 6.9
      vertex 20 0 6.9
      vertex 20 10 6.9
    endloop
  endfacet
  facet normal 0 0 1
    outer loop
      vertex 20 0 6.9
      vertex 3 10 6.9
      vertex 3 0 6.9
    endloop
  endfacet
  facet normal 1 -0 0
    outer loop
      vertex 20 0 6.9
      vertex 20 10 3.9
      vertex 20 10 6.9
    endloop
  endfacet
  facet normal 1 0 0
    outer loop
      vertex 20 10 3.9
      vertex 20 0 6.9
      vertex 20 0 3.9
    endloop
  endfacet
  facet normal 0 0 -1
    outer loop
      vertex 3 0 3.9
      vertex 20 10 3.9
      vertex 20 0 3.9
    endloop
  endfacet
  facet normal -0 0 -1
    outer loop
      vertex 20 10 3.9
      vertex 3 0 3.9
      vertex 3 10 3.9
    endloop
  endfacet
  facet normal -0 0 1
    outer loop
      vertex 3 10 14.9
      vertex 20 0 14.9
      vertex 20 10 14.9
    endloop
  endfacet
  facet normal 0 0 1
    outer loop
      vertex 20 0 14.9
      vertex 3 10 14.9
      vertex 3 0 14.9
    endloop
  endfacet
  facet normal 1 -0 0
    outer loop
      vertex 20 0 14.9
      vertex 20 10 11.9
      vertex 20 10 14.9
    endloop
  endfacet
  facet normal 1 0 0
    outer loop
      vertex 20 10 11.9
      vertex 20 0 14.9
      vertex 20 0 11.9
    endloop
  endfacet
  facet normal 0 0 -1
    outer loop
      vertex 3 0 11.9
      vertex 20 10 11.9
      vertex 20 0 11.9
    endloop
  endfacet
  facet normal -0 0 -1
    outer loop
      vertex 20 10 11.9
      vertex 3 0 11.9
      vertex 3 10 11.9
    endloop
  endfacet
  facet normal 1 -0 0
    outer loop
      vertex 20 0 18.8
      vertex 20 10 15.8
      vertex 20 10 18.8
    endloop
  endfacet
  facet normal 1 0 0
    outer loop
      vertex 20 10 15.8
      vertex 20 0 18.8
      vertex 20 0 15.8
    endloop
  endfacet
  facet normal 0 0 -1
    outer loop
      vertex 3 0 15.8
      vertex 20 10 15.8
      vertex 20 0 15.8
    endloop
  endfacet
  facet normal -0 0 -1
    outer loop
      vertex 20 10 15.8
      vertex 3 0 15.8
      vertex 3 10 15.8
    endloop
  endfacet
endsolid OpenSCAD_Model
