solid OpenSCAD_Model
  facet normal 0.992478 0.122424 0
    outer loop
      vertex 2.23917 0.220538 8
      vertex 2.22565 0.330143 1
      vertex 2.22565 0.330143 8
    endloop
  endfacet
  facet normal 0.992478 0.122424 0
    outer loop
      vertex 2.22565 0.330143 1
      vertex 2.23917 0.220538 8
      vertex 2.23917 0.220538 1
    endloop
  endfacet
  facet normal 0.999699 0.0245393 0
    outer loop
      vertex 2.25 0 8
      vertex 2.24729 0.110402 1
      vertex 2.24729 0.110402 8
    endloop
  endfacet
  facet normal 0.999699 0.0245393 0
    outer loop
      vertex 2.24729 0.110402 1
      vertex 2.25 0 8
      vertex 2.25 0 1
    endloop
  endfacet
  facet normal -0.999699 0.0245393 0
    outer loop
      vertex -2.25 0 1
      vertex -2.24729 0.110402 8
      vertex -2.24729 0.110402 1
    endloop
  endfacet
  facet normal -0.999699 0.0245393 0
    outer loop
      vertex -2.24729 0.110402 8
      vertex -2.25 0 1
      vertex -2.25 0 8
    endloop
  endfacet
  facet normal 0.0245393 0.999699 -0
    outer loop
      vertex 0.110402 2.24729 1
      vertex 0 2.25 8
      vertex 0.110402 2.24729 8
    endloop
  endfacet
  facet normal 0.0245393 0.999699 0
    outer loop
      vertex 0 2.25 8
      vertex 0.110402 2.24729 1
      vertex 0 2.25 1
    endloop
  endfacet
  facet normal 0.689553 0.724235 -0
    outer loop
      vertex 1.59099 1.59099 1
      vertex 1.51101 1.66714 8
      vertex 1.59099 1.59099 8
    endloop
  endfacet
  facet normal 0.689553 0.724235 0
    outer loop
      vertex 1.51101 1.66714 8
      vertex 1.59099 1.59099 1
      vertex 1.51101 1.66714 1
    endloop
  endfacet
  facet normal -0.689553 0.724235 0
    outer loop
      vertex -1.51101 1.66714 1
      vertex -1.59099 1.59099 8
      vertex -1.51101 1.66714 8
    endloop
  endfacet
  facet normal -0.689553 0.724235 0
    outer loop
      vertex -1.59099 1.59099 8
      vertex -1.51101 1.66714 1
      vertex -1.59099 1.59099 1
    endloop
  endfacet
  facet normal -0.359853 0.933009 0
    outer loop
      vertex -0.758001 2.11847 1
      vertex -0.861037 2.07873 8
      vertex -0.758001 2.11847 8
    endloop
  endfacet
  facet normal -0.359853 0.933009 0
    outer loop
      vertex -0.861037 2.07873 8
      vertex -0.758001 2.11847 1
      vertex -0.861037 2.07873 1
    endloop
  endfacet
  facet normal 0.914221 0.405216 0
    outer loop
      vertex 2.07873 0.861037 8
      vertex 2.03398 0.961999 1
      vertex 2.03398 0.961999 8
    endloop
  endfacet
  facet normal 0.914221 0.405216 0
    outer loop
      vertex 2.03398 0.961999 1
      vertex 2.07873 0.861037 8
      vertex 2.07873 0.861037 1
    endloop
  endfacet
  facet normal 0.405216 0.914221 -0
    outer loop
      vertex 0.961999 2.03398 1
      vertex 0.861037 2.07873 8
      vertex 0.961999 2.03398 8
    endloop
  endfacet
  facet normal 0.405216 0.914221 0
    outer loop
      vertex 0.861037 2.07873 8
      vertex 0.961999 2.03398 1
      vertex 0.861037 2.07873 1
    endloop
  endfacet
  facet normal 0.534987 0.84486 -0
    outer loop
      vertex 1.25003 1.87081 1
      vertex 1.15673 1.92989 8
      vertex 1.25003 1.87081 8
    endloop
  endfacet
  facet normal 0.534987 0.84486 0
    outer loop
      vertex 1.15673 1.92989 8
      vertex 1.25003 1.87081 1
      vertex 1.15673 1.92989 1
    endloop
  endfacet
  facet normal -0.914221 0.405216 0
    outer loop
      vertex -2.07873 0.861037 1
      vertex -2.03398 0.961999 8
      vertex -2.03398 0.961999 1
    endloop
  endfacet
  facet normal -0.914221 0.405216 0
    outer loop
      vertex -2.03398 0.961999 8
      vertex -2.07873 0.861037 1
      vertex -2.07873 0.861037 8
    endloop
  endfacet
  facet normal -0.757252 0.653122 0
    outer loop
      vertex -1.73927 1.42738 1
      vertex -1.66714 1.51101 8
      vertex -1.66714 1.51101 1
    endloop
  endfacet
  facet normal -0.757252 0.653122 0
    outer loop
      vertex -1.66714 1.51101 8
      vertex -1.73927 1.42738 1
      vertex -1.73927 1.42738 8
    endloop
  endfacet
  facet normal -0.170961 0.985278 0
    outer loop
      vertex -0.330143 2.22565 1
      vertex -0.438952 2.20677 8
      vertex -0.330143 2.22565 8
    endloop
  endfacet
  facet normal -0.170961 0.985278 0
    outer loop
      vertex -0.438952 2.20677 8
      vertex -0.330143 2.22565 1
      vertex -0.438952 2.20677 1
    endloop
  endfacet
  facet normal -0.757252 -0.653122 0
    outer loop
      vertex -1.66714 -1.51101 1
      vertex -1.73927 -1.42738 8
      vertex -1.73927 -1.42738 1
    endloop
  endfacet
  facet normal -0.757252 -0.653122 0
    outer loop
      vertex -1.73927 -1.42738 8
      vertex -1.66714 -1.51101 1
      vertex -1.66714 -1.51101 8
    endloop
  endfacet
  facet normal -0.949505 -0.313752 0
    outer loop
      vertex -2.11847 -0.758001 1
      vertex -2.15312 -0.65314 8
      vertex -2.15312 -0.65314 1
    endloop
  endfacet
  facet normal -0.949505 -0.313752 0
    outer loop
      vertex -2.15312 -0.65314 8
      vertex -2.11847 -0.758001 1
      vertex -2.11847 -0.758001 8
    endloop
  endfacet
  facet normal 0.985278 0.170961 0
    outer loop
      vertex 2.22565 0.330143 8
      vertex 2.20677 0.438952 1
      vertex 2.20677 0.438952 8
    endloop
  endfacet
  facet normal 0.985278 0.170961 0
    outer loop
      vertex 2.20677 0.438952 1
      vertex 2.22565 0.330143 8
      vertex 2.22565 0.330143 1
    endloop
  endfacet
  facet normal 0.817582 0.575812 0
    outer loop
      vertex 1.87081 1.25003 8
      vertex 1.80722 1.34032 1
      vertex 1.80722 1.34032 8
    endloop
  endfacet
  facet normal 0.817582 0.575812 0
    outer loop
      vertex 1.80722 1.34032 1
      vertex 1.87081 1.25003 8
      vertex 1.87081 1.25003 1
    endloop
  endfacet
  facet normal 0.266675 0.963787 -0
    outer loop
      vertex 0.65314 2.15312 1
      vertex 0.546705 2.18257 8
      vertex 0.65314 2.15312 8
    endloop
  endfacet
  facet normal 0.266675 0.963787 0
    outer loop
      vertex 0.546705 2.18257 8
      vertex 0.65314 2.15312 1
      vertex 0.546705 2.18257 1
    endloop
  endfacet
  facet normal 0.313752 0.949505 -0
    outer loop
      vertex 0.758001 2.11847 1
      vertex 0.65314 2.15312 8
      vertex 0.758001 2.11847 8
    endloop
  endfacet
  facet normal 0.313752 0.949505 0
    outer loop
      vertex 0.65314 2.15312 8
      vertex 0.758001 2.11847 1
      vertex 0.65314 2.15312 1
    endloop
  endfacet
  facet normal 0.449671 0.893194 -0
    outer loop
      vertex 1.06064 1.98432 1
      vertex 0.961999 2.03398 8
      vertex 1.06064 1.98432 8
    endloop
  endfacet
  facet normal 0.449671 0.893194 0
    outer loop
      vertex 0.961999 2.03398 8
      vertex 1.06064 1.98432 1
      vertex 0.961999 2.03398 1
    endloop
  endfacet
  facet normal -0.963787 0.266675 0
    outer loop
      vertex -2.18257 0.546705 1
      vertex -2.15312 0.65314 8
      vertex -2.15312 0.65314 1
    endloop
  endfacet
  facet normal -0.963787 0.266675 0
    outer loop
      vertex -2.15312 0.65314 8
      vertex -2.18257 0.546705 1
      vertex -2.18257 0.546705 8
    endloop
  endfacet
  facet normal -0.788313 0.615275 0
    outer loop
      vertex -1.80722 1.34032 1
      vertex -1.73927 1.42738 8
      vertex -1.73927 1.42738 1
    endloop
  endfacet
  facet normal -0.788313 0.615275 0
    outer loop
      vertex -1.73927 1.42738 8
      vertex -1.80722 1.34032 1
      vertex -1.80722 1.34032 8
    endloop
  endfacet
  facet normal -0.949505 0.313752 0
    outer loop
      vertex -2.15312 0.65314 1
      vertex -2.11847 0.758001 8
      vertex -2.11847 0.758001 1
    endloop
  endfacet
  facet normal -0.949505 0.313752 0
    outer loop
      vertex -2.11847 0.758001 8
      vertex -2.15312 0.65314 1
      vertex -2.15312 0.65314 8
    endloop
  endfacet
  facet normal -0.492869 0.870104 0
    outer loop
      vertex -1.06064 1.98432 1
      vertex -1.15673 1.92989 8
      vertex -1.06064 1.98432 8
    endloop
  endfacet
  facet normal -0.492869 0.870104 0
    outer loop
      vertex -1.15673 1.92989 8
      vertex -1.06064 1.98432 1
      vertex -1.15673 1.92989 1
    endloop
  endfacet
  facet normal -0.449671 0.893194 0
    outer loop
      vertex -0.961999 2.03398 1
      vertex -1.06064 1.98432 8
      vertex -0.961999 2.03398 8
    endloop
  endfacet
  facet normal -0.449671 0.893194 0
    outer loop
      vertex -1.06064 1.98432 8
      vertex -0.961999 2.03398 1
      vertex -1.06064 1.98432 1
    endloop
  endfacet
  facet normal 0.985278 -0.170961 0
    outer loop
      vertex 2.20677 -0.438952 8
      vertex 2.22565 -0.330143 1
      vertex 2.22565 -0.330143 8
    endloop
  endfacet
  facet normal 0.985278 -0.170961 0
    outer loop
      vertex 2.22565 -0.330143 1
      vertex 2.20677 -0.438952 8
      vertex 2.20677 -0.438952 1
    endloop
  endfacet
  facet normal 0.170961 -0.985278 0
    outer loop
      vertex 0.330143 -2.22565 1
      vertex 0.438952 -2.20677 8
      vertex 0.330143 -2.22565 8
    endloop
  endfacet
  facet normal 0.170961 -0.985278 0
    outer loop
      vertex 0.438952 -2.20677 8
      vertex 0.330143 -2.22565 1
      vertex 0.438952 -2.20677 1
    endloop
  endfacet
  facet normal 0.405216 -0.914221 0
    outer loop
      vertex 0.861037 -2.07873 1
      vertex 0.961999 -2.03398 8
      vertex 0.861037 -2.07873 8
    endloop
  endfacet
  facet normal 0.405216 -0.914221 0
    outer loop
      vertex 0.961999 -2.03398 8
      vertex 0.861037 -2.07873 1
      vertex 0.961999 -2.03398 1
    endloop
  endfacet
  facet normal 0.575812 -0.817582 0
    outer loop
      vertex 1.25003 -1.87081 1
      vertex 1.34032 -1.80722 8
      vertex 1.25003 -1.87081 8
    endloop
  endfacet
  facet normal 0.575812 -0.817582 0
    outer loop
      vertex 1.34032 -1.80722 8
      vertex 1.25003 -1.87081 1
      vertex 1.34032 -1.80722 1
    endloop
  endfacet
  facet normal 0.724235 -0.689553 0
    outer loop
      vertex 1.59099 -1.59099 8
      vertex 1.66714 -1.51101 1
      vertex 1.66714 -1.51101 8
    endloop
  endfacet
  facet normal 0.724235 -0.689553 0
    outer loop
      vertex 1.66714 -1.51101 1
      vertex 1.59099 -1.59099 8
      vertex 1.59099 -1.59099 1
    endloop
  endfacet
  facet normal -0.170961 -0.985278 0
    outer loop
      vertex -0.438952 -2.20677 1
      vertex -0.330143 -2.22565 8
      vertex -0.438952 -2.20677 8
    endloop
  endfacet
  facet normal -0.170961 -0.985278 -0
    outer loop
      vertex -0.330143 -2.22565 8
      vertex -0.438952 -2.20677 1
      vertex -0.330143 -2.22565 1
    endloop
  endfacet
  facet normal 0.975696 0.219129 0
    outer loop
      vertex 2.20677 0.438952 8
      vertex 2.18257 0.546705 1
      vertex 2.18257 0.546705 8
    endloop
  endfacet
  facet normal 0.975696 0.219129 0
    outer loop
      vertex 2.18257 0.546705 1
      vertex 2.20677 0.438952 8
      vertex 2.20677 0.438952 1
    endloop
  endfacet
  facet normal 0.963787 0.266675 0
    outer loop
      vertex 2.18257 0.546705 8
      vertex 2.15312 0.65314 1
      vertex 2.15312 0.65314 8
    endloop
  endfacet
  facet normal 0.963787 0.266675 0
    outer loop
      vertex 2.15312 0.65314 1
      vertex 2.18257 0.546705 8
      vertex 2.18257 0.546705 1
    endloop
  endfacet
  facet normal 0.949505 0.313752 0
    outer loop
      vertex 2.15312 0.65314 8
      vertex 2.11847 0.758001 1
      vertex 2.11847 0.758001 8
    endloop
  endfacet
  facet normal 0.949505 0.313752 0
    outer loop
      vertex 2.11847 0.758001 1
      vertex 2.15312 0.65314 8
      vertex 2.15312 0.65314 1
    endloop
  endfacet
  facet normal 0.757252 0.653122 0
    outer loop
      vertex 1.73927 1.42738 8
      vertex 1.66714 1.51101 1
      vertex 1.66714 1.51101 8
    endloop
  endfacet
  facet normal 0.757252 0.653122 0
    outer loop
      vertex 1.66714 1.51101 1
      vertex 1.73927 1.42738 8
      vertex 1.73927 1.42738 1
    endloop
  endfacet
  facet normal 0.724235 0.689553 0
    outer loop
      vertex 1.66714 1.51101 8
      vertex 1.59099 1.59099 1
      vertex 1.59099 1.59099 8
    endloop
  endfacet
  facet normal 0.724235 0.689553 0
    outer loop
      vertex 1.59099 1.59099 1
      vertex 1.66714 1.51101 8
      vertex 1.66714 1.51101 1
    endloop
  endfacet
  facet normal 0.893194 0.449671 0
    outer loop
      vertex 2.03398 0.961999 8
      vertex 1.98432 1.06064 1
      vertex 1.98432 1.06064 8
    endloop
  endfacet
  facet normal 0.893194 0.449671 0
    outer loop
      vertex 1.98432 1.06064 1
      vertex 2.03398 0.961999 8
      vertex 2.03398 0.961999 1
    endloop
  endfacet
  facet normal 0.84486 0.534987 0
    outer loop
      vertex 1.92989 1.15673 8
      vertex 1.87081 1.25003 1
      vertex 1.87081 1.25003 8
    endloop
  endfacet
  facet normal 0.84486 0.534987 0
    outer loop
      vertex 1.87081 1.25003 1
      vertex 1.92989 1.15673 8
      vertex 1.92989 1.15673 1
    endloop
  endfacet
  facet normal 0.870104 0.492869 0
    outer loop
      vertex 1.98432 1.06064 8
      vertex 1.92989 1.15673 1
      vertex 1.92989 1.15673 8
    endloop
  endfacet
  facet normal 0.870104 0.492869 0
    outer loop
      vertex 1.92989 1.15673 1
      vertex 1.98432 1.06064 8
      vertex 1.98432 1.06064 1
    endloop
  endfacet
  facet normal 0.359853 0.933009 -0
    outer loop
      vertex 0.861037 2.07873 1
      vertex 0.758001 2.11847 8
      vertex 0.861037 2.07873 8
    endloop
  endfacet
  facet normal 0.359853 0.933009 0
    outer loop
      vertex 0.758001 2.11847 8
      vertex 0.861037 2.07873 1
      vertex 0.758001 2.11847 1
    endloop
  endfacet
  facet normal 0.219129 0.975696 -0
    outer loop
      vertex 0.546705 2.18257 1
      vertex 0.438952 2.20677 8
      vertex 0.546705 2.18257 8
    endloop
  endfacet
  facet normal 0.219129 0.975696 0
    outer loop
      vertex 0.438952 2.20677 8
      vertex 0.546705 2.18257 1
      vertex 0.438952 2.20677 1
    endloop
  endfacet
  facet normal 0.122424 0.992478 -0
    outer loop
      vertex 0.330143 2.22565 1
      vertex 0.220538 2.23917 8
      vertex 0.330143 2.22565 8
    endloop
  endfacet
  facet normal 0.122424 0.992478 0
    outer loop
      vertex 0.220538 2.23917 8
      vertex 0.330143 2.22565 1
      vertex 0.220538 2.23917 1
    endloop
  endfacet
  facet normal 0.653122 0.757252 -0
    outer loop
      vertex 1.51101 1.66714 1
      vertex 1.42738 1.73927 8
      vertex 1.51101 1.66714 8
    endloop
  endfacet
  facet normal 0.653122 0.757252 0
    outer loop
      vertex 1.42738 1.73927 8
      vertex 1.51101 1.66714 1
      vertex 1.42738 1.73927 1
    endloop
  endfacet
  facet normal 0.615275 0.788313 -0
    outer loop
      vertex 1.42738 1.73927 1
      vertex 1.34032 1.80722 8
      vertex 1.42738 1.73927 8
    endloop
  endfacet
  facet normal 0.615275 0.788313 0
    outer loop
      vertex 1.34032 1.80722 8
      vertex 1.42738 1.73927 1
      vertex 1.34032 1.80722 1
    endloop
  endfacet
  facet normal -0.817582 0.575812 0
    outer loop
      vertex -1.87081 1.25003 1
      vertex -1.80722 1.34032 8
      vertex -1.80722 1.34032 1
    endloop
  endfacet
  facet normal -0.817582 0.575812 0
    outer loop
      vertex -1.80722 1.34032 8
      vertex -1.87081 1.25003 1
      vertex -1.87081 1.25003 8
    endloop
  endfacet
  facet normal -0.84486 0.534987 0
    outer loop
      vertex -1.92989 1.15673 1
      vertex -1.87081 1.25003 8
      vertex -1.87081 1.25003 1
    endloop
  endfacet
  facet normal -0.84486 0.534987 0
    outer loop
      vertex -1.87081 1.25003 8
      vertex -1.92989 1.15673 1
      vertex -1.92989 1.15673 8
    endloop
  endfacet
  facet normal -0.870104 0.492869 0
    outer loop
      vertex -1.98432 1.06064 1
      vertex -1.92989 1.15673 8
      vertex -1.92989 1.15673 1
    endloop
  endfacet
  facet normal -0.870104 0.492869 0
    outer loop
      vertex -1.92989 1.15673 8
      vertex -1.98432 1.06064 1
      vertex -1.98432 1.06064 8
    endloop
  endfacet
  facet normal -0.975696 0.219129 0
    outer loop
      vertex -2.20677 0.438952 1
      vertex -2.18257 0.546705 8
      vertex -2.18257 0.546705 1
    endloop
  endfacet
  facet normal -0.975696 0.219129 0
    outer loop
      vertex -2.18257 0.546705 8
      vertex -2.20677 0.438952 1
      vertex -2.20677 0.438952 8
    endloop
  endfacet
  facet normal -0.992478 0.122424 0
    outer loop
      vertex -2.23917 0.220538 1
      vertex -2.22565 0.330143 8
      vertex -2.22565 0.330143 1
    endloop
  endfacet
  facet normal -0.992478 0.122424 0
    outer loop
      vertex -2.22565 0.330143 8
      vertex -2.23917 0.220538 1
      vertex -2.23917 0.220538 8
    endloop
  endfacet
  facet normal -0.534987 0.84486 0
    outer loop
      vertex -1.15673 1.92989 1
      vertex -1.25003 1.87081 8
      vertex -1.15673 1.92989 8
    endloop
  endfacet
  facet normal -0.534987 0.84486 0
    outer loop
      vertex -1.25003 1.87081 8
      vertex -1.15673 1.92989 1
      vertex -1.25003 1.87081 1
    endloop
  endfacet
  facet normal -0.615275 0.788313 0
    outer loop
      vertex -1.34032 1.80722 1
      vertex -1.42738 1.73927 8
      vertex -1.34032 1.80722 8
    endloop
  endfacet
  facet normal -0.615275 0.788313 0
    outer loop
      vertex -1.42738 1.73927 8
      vertex -1.34032 1.80722 1
      vertex -1.42738 1.73927 1
    endloop
  endfacet
  facet normal -0.266675 0.963787 0
    outer loop
      vertex -0.546705 2.18257 1
      vertex -0.65314 2.15312 8
      vertex -0.546705 2.18257 8
    endloop
  endfacet
  facet normal -0.266675 0.963787 0
    outer loop
      vertex -0.65314 2.15312 8
      vertex -0.546705 2.18257 1
      vertex -0.65314 2.15312 1
    endloop
  endfacet
  facet normal -0.0245393 0.999699 0
    outer loop
      vertex 0 2.25 1
      vertex -0.110402 2.24729 8
      vertex 0 2.25 8
    endloop
  endfacet
  facet normal -0.0245393 0.999699 0
    outer loop
      vertex -0.110402 2.24729 8
      vertex 0 2.25 1
      vertex -0.110402 2.24729 1
    endloop
  endfacet
  facet normal -0.0735275 0.997293 0
    outer loop
      vertex -0.110402 2.24729 1
      vertex -0.220538 2.23917 8
      vertex -0.110402 2.24729 8
    endloop
  endfacet
  facet normal -0.0735275 0.997293 0
    outer loop
      vertex -0.220538 2.23917 8
      vertex -0.110402 2.24729 1
      vertex -0.220538 2.23917 1
    endloop
  endfacet
  facet normal 0.999699 -0.0245393 0
    outer loop
      vertex 2.24729 -0.110402 8
      vertex 2.25 0 1
      vertex 2.25 0 8
    endloop
  endfacet
  facet normal 0.999699 -0.0245393 0
    outer loop
      vertex 2.25 0 1
      vertex 2.24729 -0.110402 8
      vertex 2.24729 -0.110402 1
    endloop
  endfacet
  facet normal 0.0245393 -0.999699 0
    outer loop
      vertex 0 -2.25 1
      vertex 0.110402 -2.24729 8
      vertex 0 -2.25 8
    endloop
  endfacet
  facet normal 0.0245393 -0.999699 0
    outer loop
      vertex 0.110402 -2.24729 8
      vertex 0 -2.25 1
      vertex 0.110402 -2.24729 1
    endloop
  endfacet
  facet normal 0.266675 -0.963787 0
    outer loop
      vertex 0.546705 -2.18257 1
      vertex 0.65314 -2.15312 8
      vertex 0.546705 -2.18257 8
    endloop
  endfacet
  facet normal 0.266675 -0.963787 0
    outer loop
      vertex 0.65314 -2.15312 8
      vertex 0.546705 -2.18257 1
      vertex 0.65314 -2.15312 1
    endloop
  endfacet
  facet normal 0.359853 -0.933009 0
    outer loop
      vertex 0.758001 -2.11847 1
      vertex 0.861037 -2.07873 8
      vertex 0.758001 -2.11847 8
    endloop
  endfacet
  facet normal 0.359853 -0.933009 0
    outer loop
      vertex 0.861037 -2.07873 8
      vertex 0.758001 -2.11847 1
      vertex 0.861037 -2.07873 1
    endloop
  endfacet
  facet normal 0.313752 -0.949505 0
    outer loop
      vertex 0.65314 -2.15312 1
      vertex 0.758001 -2.11847 8
      vertex 0.65314 -2.15312 8
    endloop
  endfacet
  facet normal 0.313752 -0.949505 0
    outer loop
      vertex 0.758001 -2.11847 8
      vertex 0.65314 -2.15312 1
      vertex 0.758001 -2.11847 1
    endloop
  endfacet
  facet normal 0.615275 -0.788313 0
    outer loop
      vertex 1.34032 -1.80722 1
      vertex 1.42738 -1.73927 8
      vertex 1.34032 -1.80722 8
    endloop
  endfacet
  facet normal 0.615275 -0.788313 0
    outer loop
      vertex 1.42738 -1.73927 8
      vertex 1.34032 -1.80722 1
      vertex 1.42738 -1.73927 1
    endloop
  endfacet
  facet normal 0.689553 -0.724235 0
    outer loop
      vertex 1.51101 -1.66714 1
      vertex 1.59099 -1.59099 8
      vertex 1.51101 -1.66714 8
    endloop
  endfacet
  facet normal 0.689553 -0.724235 0
    outer loop
      vertex 1.59099 -1.59099 8
      vertex 1.51101 -1.66714 1
      vertex 1.59099 -1.59099 1
    endloop
  endfacet
  facet normal 0.534987 -0.84486 0
    outer loop
      vertex 1.15673 -1.92989 1
      vertex 1.25003 -1.87081 8
      vertex 1.15673 -1.92989 8
    endloop
  endfacet
  facet normal 0.534987 -0.84486 0
    outer loop
      vertex 1.25003 -1.87081 8
      vertex 1.15673 -1.92989 1
      vertex 1.25003 -1.87081 1
    endloop
  endfacet
  facet normal 0.449671 -0.893194 0
    outer loop
      vertex 0.961999 -2.03398 1
      vertex 1.06064 -1.98432 8
      vertex 0.961999 -2.03398 8
    endloop
  endfacet
  facet normal 0.449671 -0.893194 0
    outer loop
      vertex 1.06064 -1.98432 8
      vertex 0.961999 -2.03398 1
      vertex 1.06064 -1.98432 1
    endloop
  endfacet
  facet normal 0.757252 -0.653122 0
    outer loop
      vertex 1.66714 -1.51101 8
      vertex 1.73927 -1.42738 1
      vertex 1.73927 -1.42738 8
    endloop
  endfacet
  facet normal 0.757252 -0.653122 0
    outer loop
      vertex 1.73927 -1.42738 1
      vertex 1.66714 -1.51101 8
      vertex 1.66714 -1.51101 1
    endloop
  endfacet
  facet normal 0.817582 -0.575812 0
    outer loop
      vertex 1.80722 -1.34032 8
      vertex 1.87081 -1.25003 1
      vertex 1.87081 -1.25003 8
    endloop
  endfacet
  facet normal 0.817582 -0.575812 0
    outer loop
      vertex 1.87081 -1.25003 1
      vertex 1.80722 -1.34032 8
      vertex 1.80722 -1.34032 1
    endloop
  endfacet
  facet normal 0.914221 -0.405216 0
    outer loop
      vertex 2.03398 -0.961999 8
      vertex 2.07873 -0.861037 1
      vertex 2.07873 -0.861037 8
    endloop
  endfacet
  facet normal 0.914221 -0.405216 0
    outer loop
      vertex 2.07873 -0.861037 1
      vertex 2.03398 -0.961999 8
      vertex 2.03398 -0.961999 1
    endloop
  endfacet
  facet normal 0.870104 -0.492869 0
    outer loop
      vertex 1.92989 -1.15673 8
      vertex 1.98432 -1.06064 1
      vertex 1.98432 -1.06064 8
    endloop
  endfacet
  facet normal 0.870104 -0.492869 0
    outer loop
      vertex 1.98432 -1.06064 1
      vertex 1.92989 -1.15673 8
      vertex 1.92989 -1.15673 1
    endloop
  endfacet
  facet normal 0.949505 -0.313752 0
    outer loop
      vertex 2.11847 -0.758001 8
      vertex 2.15312 -0.65314 1
      vertex 2.15312 -0.65314 8
    endloop
  endfacet
  facet normal 0.949505 -0.313752 0
    outer loop
      vertex 2.15312 -0.65314 1
      vertex 2.11847 -0.758001 8
      vertex 2.11847 -0.758001 1
    endloop
  endfacet
  facet normal 0.975696 -0.219129 0
    outer loop
      vertex 2.18257 -0.546705 8
      vertex 2.20677 -0.438952 1
      vertex 2.20677 -0.438952 8
    endloop
  endfacet
  facet normal 0.975696 -0.219129 0
    outer loop
      vertex 2.20677 -0.438952 1
      vertex 2.18257 -0.546705 8
      vertex 2.18257 -0.546705 1
    endloop
  endfacet
  facet normal -0.0735275 -0.997293 0
    outer loop
      vertex -0.220538 -2.23917 1
      vertex -0.110402 -2.24729 8
      vertex -0.220538 -2.23917 8
    endloop
  endfacet
  facet normal -0.0735275 -0.997293 -0
    outer loop
      vertex -0.110402 -2.24729 8
      vertex -0.220538 -2.23917 1
      vertex -0.110402 -2.24729 1
    endloop
  endfacet
  facet normal -0.689553 -0.724235 0
    outer loop
      vertex -1.59099 -1.59099 1
      vertex -1.51101 -1.66714 8
      vertex -1.59099 -1.59099 8
    endloop
  endfacet
  facet normal -0.689553 -0.724235 -0
    outer loop
      vertex -1.51101 -1.66714 8
      vertex -1.59099 -1.59099 1
      vertex -1.51101 -1.66714 1
    endloop
  endfacet
  facet normal -0.615275 -0.788313 0
    outer loop
      vertex -1.42738 -1.73927 1
      vertex -1.34032 -1.80722 8
      vertex -1.42738 -1.73927 8
    endloop
  endfacet
  facet normal -0.615275 -0.788313 -0
    outer loop
      vertex -1.34032 -1.80722 8
      vertex -1.42738 -1.73927 1
      vertex -1.34032 -1.80722 1
    endloop
  endfacet
  facet normal -0.449671 -0.893194 0
    outer loop
      vertex -1.06064 -1.98432 1
      vertex -0.961999 -2.03398 8
      vertex -1.06064 -1.98432 8
    endloop
  endfacet
  facet normal -0.449671 -0.893194 -0
    outer loop
      vertex -0.961999 -2.03398 8
      vertex -1.06064 -1.98432 1
      vertex -0.961999 -2.03398 1
    endloop
  endfacet
  facet normal -0.534987 -0.84486 0
    outer loop
      vertex -1.25003 -1.87081 1
      vertex -1.15673 -1.92989 8
      vertex -1.25003 -1.87081 8
    endloop
  endfacet
  facet normal -0.534987 -0.84486 -0
    outer loop
      vertex -1.15673 -1.92989 8
      vertex -1.25003 -1.87081 1
      vertex -1.15673 -1.92989 1
    endloop
  endfacet
  facet normal -0.359853 -0.933009 0
    outer loop
      vertex -0.861037 -2.07873 1
      vertex -0.758001 -2.11847 8
      vertex -0.861037 -2.07873 8
    endloop
  endfacet
  facet normal -0.359853 -0.933009 -0
    outer loop
      vertex -0.758001 -2.11847 8
      vertex -0.861037 -2.07873 1
      vertex -0.758001 -2.11847 1
    endloop
  endfacet
  facet normal -0.266675 -0.963787 0
    outer loop
      vertex -0.65314 -2.15312 1
      vertex -0.546705 -2.18257 8
      vertex -0.65314 -2.15312 8
    endloop
  endfacet
  facet normal -0.266675 -0.963787 -0
    outer loop
      vertex -0.546705 -2.18257 8
      vertex -0.65314 -2.15312 1
      vertex -0.546705 -2.18257 1
    endloop
  endfacet
  facet normal -0.914221 -0.405216 0
    outer loop
      vertex -2.03398 -0.961999 1
      vertex -2.07873 -0.861037 8
      vertex -2.07873 -0.861037 1
    endloop
  endfacet
  facet normal -0.914221 -0.405216 0
    outer loop
      vertex -2.07873 -0.861037 8
      vertex -2.03398 -0.961999 1
      vertex -2.03398 -0.961999 8
    endloop
  endfacet
  facet normal -0.870104 -0.492869 0
    outer loop
      vertex -1.92989 -1.15673 1
      vertex -1.98432 -1.06064 8
      vertex -1.98432 -1.06064 1
    endloop
  endfacet
  facet normal -0.870104 -0.492869 0
    outer loop
      vertex -1.98432 -1.06064 8
      vertex -1.92989 -1.15673 1
      vertex -1.92989 -1.15673 8
    endloop
  endfacet
  facet normal -0.817582 -0.575812 0
    outer loop
      vertex -1.80722 -1.34032 1
      vertex -1.87081 -1.25003 8
      vertex -1.87081 -1.25003 1
    endloop
  endfacet
  facet normal -0.817582 -0.575812 0
    outer loop
      vertex -1.87081 -1.25003 8
      vertex -1.80722 -1.34032 1
      vertex -1.80722 -1.34032 8
    endloop
  endfacet
  facet normal -0.933009 -0.359853 0
    outer loop
      vertex -2.07873 -0.861037 1
      vertex -2.11847 -0.758001 8
      vertex -2.11847 -0.758001 1
    endloop
  endfacet
  facet normal -0.933009 -0.359853 0
    outer loop
      vertex -2.11847 -0.758001 8
      vertex -2.07873 -0.861037 1
      vertex -2.07873 -0.861037 8
    endloop
  endfacet
  facet normal -0.975696 -0.219129 0
    outer loop
      vertex -2.18257 -0.546705 1
      vertex -2.20677 -0.438952 8
      vertex -2.20677 -0.438952 1
    endloop
  endfacet
  facet normal -0.975696 -0.219129 0
    outer loop
      vertex -2.20677 -0.438952 8
      vertex -2.18257 -0.546705 1
      vertex -2.18257 -0.546705 8
    endloop
  endfacet
  facet normal -0.992478 -0.122424 0
    outer loop
      vertex -2.22565 -0.330143 1
      vertex -2.23917 -0.220538 8
      vertex -2.23917 -0.220538 1
    endloop
  endfacet
  facet normal -0.992478 -0.122424 0
    outer loop
      vertex -2.23917 -0.220538 8
      vertex -2.22565 -0.330143 1
      vertex -2.22565 -0.330143 8
    endloop
  endfacet
  facet normal -0.999699 -0.0245393 0
    outer loop
      vertex -2.24729 -0.110402 1
      vertex -2.25 0 8
      vertex -2.25 0 1
    endloop
  endfacet
  facet normal -0.999699 -0.0245393 0
    outer loop
      vertex -2.25 0 8
      vertex -2.24729 -0.110402 1
      vertex -2.24729 -0.110402 8
    endloop
  endfacet
  facet normal 0 0 -1
    outer loop
      vertex -2.5 -2.5 0
      vertex 2.5 2.5 0
      vertex 2.5 -2.5 0
    endloop
  endfacet
  facet normal -0 0 -1
    outer loop
      vertex 2.5 2.5 0
      vertex -2.5 -2.5 0
      vertex -2.5 2.5 0
    endloop
  endfacet
  facet normal -0.985278 -0.170961 0
    outer loop
      vertex -2.20677 -0.438952 1
      vertex -2.22565 -0.330143 8
      vertex -2.22565 -0.330143 1
    endloop
  endfacet
  facet normal -0.985278 -0.170961 0
    outer loop
      vertex -2.22565 -0.330143 8
      vertex -2.20677 -0.438952 1
      vertex -2.20677 -0.438952 8
    endloop
  endfacet
  facet normal 0.997293 0.0735275 0
    outer loop
      vertex 2.24729 0.110402 8
      vertex 2.23917 0.220538 1
      vertex 2.23917 0.220538 8
    endloop
  endfacet
  facet normal 0.997293 0.0735275 0
    outer loop
      vertex 2.23917 0.220538 1
      vertex 2.24729 0.110402 8
      vertex 2.24729 0.110402 1
    endloop
  endfacet
  facet normal 0.933009 0.359853 0
    outer loop
      vertex 2.11847 0.758001 8
      vertex 2.07873 0.861037 1
      vertex 2.07873 0.861037 8
    endloop
  endfacet
  facet normal 0.933009 0.359853 0
    outer loop
      vertex 2.07873 0.861037 1
      vertex 2.11847 0.758001 8
      vertex 2.11847 0.758001 1
    endloop
  endfacet
  facet normal 0.788313 0.615275 0
    outer loop
      vertex 1.80722 1.34032 8
      vertex 1.73927 1.42738 1
      vertex 1.73927 1.42738 8
    endloop
  endfacet
  facet normal 0.788313 0.615275 0
    outer loop
      vertex 1.73927 1.42738 1
      vertex 1.80722 1.34032 8
      vertex 1.80722 1.34032 1
    endloop
  endfacet
  facet normal 0.0735275 0.997293 -0
    outer loop
      vertex 0.220538 2.23917 1
      vertex 0.110402 2.24729 8
      vertex 0.220538 2.23917 8
    endloop
  endfacet
  facet normal 0.0735275 0.997293 0
    outer loop
      vertex 0.110402 2.24729 8
      vertex 0.220538 2.23917 1
      vertex 0.110402 2.24729 1
    endloop
  endfacet
  facet normal 0.170961 0.985278 -0
    outer loop
      vertex 0.438952 2.20677 1
      vertex 0.330143 2.22565 8
      vertex 0.438952 2.20677 8
    endloop
  endfacet
  facet normal 0.170961 0.985278 0
    outer loop
      vertex 0.330143 2.22565 8
      vertex 0.438952 2.20677 1
      vertex 0.330143 2.22565 1
    endloop
  endfacet
  facet normal 0.492869 0.870104 -0
    outer loop
      vertex 1.15673 1.92989 1
      vertex 1.06064 1.98432 8
      vertex 1.15673 1.92989 8
    endloop
  endfacet
  facet normal 0.492869 0.870104 0
    outer loop
      vertex 1.06064 1.98432 8
      vertex 1.15673 1.92989 1
      vertex 1.06064 1.98432 1
    endloop
  endfacet
  facet normal 0.575812 0.817582 -0
    outer loop
      vertex 1.34032 1.80722 1
      vertex 1.25003 1.87081 8
      vertex 1.34032 1.80722 8
    endloop
  endfacet
  facet normal 0.575812 0.817582 0
    outer loop
      vertex 1.25003 1.87081 8
      vertex 1.34032 1.80722 1
      vertex 1.25003 1.87081 1
    endloop
  endfacet
  facet normal -0.724235 0.689553 0
    outer loop
      vertex -1.66714 1.51101 1
      vertex -1.59099 1.59099 8
      vertex -1.59099 1.59099 1
    endloop
  endfacet
  facet normal -0.724235 0.689553 0
    outer loop
      vertex -1.59099 1.59099 8
      vertex -1.66714 1.51101 1
      vertex -1.66714 1.51101 8
    endloop
  endfacet
  facet normal -0.893194 0.449671 0
    outer loop
      vertex -2.03398 0.961999 1
      vertex -1.98432 1.06064 8
      vertex -1.98432 1.06064 1
    endloop
  endfacet
  facet normal -0.893194 0.449671 0
    outer loop
      vertex -1.98432 1.06064 8
      vertex -2.03398 0.961999 1
      vertex -2.03398 0.961999 8
    endloop
  endfacet
  facet normal -0.933009 0.359853 0
    outer loop
      vertex -2.11847 0.758001 1
      vertex -2.07873 0.861037 8
      vertex -2.07873 0.861037 1
    endloop
  endfacet
  facet normal -0.933009 0.359853 0
    outer loop
      vertex -2.07873 0.861037 8
      vertex -2.11847 0.758001 1
      vertex -2.11847 0.758001 8
    endloop
  endfacet
  facet normal 0 0 1
    outer loop
      vertex 2.24729 0.110402 8
      vertex 2.24729 -0.110402 8
      vertex 2.25 0 8
    endloop
  endfacet
  facet normal 0 0 1
    outer loop
      vertex 2.23917 0.220538 8
      vertex 2.24729 -0.110402 8
      vertex 2.24729 0.110402 8
    endloop
  endfacet
  facet normal 0 0 1
    outer loop
      vertex 2.23917 0.220538 8
      vertex 2.23917 -0.220538 8
      vertex 2.24729 -0.110402 8
    endloop
  endfacet
  facet normal 0 0 1
    outer loop
      vertex 2.22565 0.330143 8
      vertex 2.23917 -0.220538 8
      vertex 2.23917 0.220538 8
    endloop
  endfacet
  facet normal 0 0 1
    outer loop
      vertex 2.22565 0.330143 8
      vertex 2.22565 -0.330143 8
      vertex 2.23917 -0.220538 8
    endloop
  endfacet
  facet normal 0 0 1
    outer loop
      vertex 2.20677 0.438952 8
      vertex 2.22565 -0.330143 8
      vertex 2.22565 0.330143 8
    endloop
  endfacet
  facet normal 0 0 1
    outer loop
      vertex 2.20677 0.438952 8
      vertex 2.20677 -0.438952 8
      vertex 2.22565 -0.330143 8
    endloop
  endfacet
  facet normal 0 0 1
    outer loop
      vertex 2.18257 0.546705 8
      vertex 2.20677 -0.438952 8
      vertex 2.20677 0.438952 8
    endloop
  endfacet
  facet normal 0 0 1
    outer loop
      vertex 2.18257 0.546705 8
      vertex 2.18257 -0.546705 8
      vertex 2.20677 -0.438952 8
    endloop
  endfacet
  facet normal 0 0 1
    outer loop
      vertex 2.15312 0.65314 8
      vertex 2.18257 -0.546705 8
      vertex 2.18257 0.546705 8
    endloop
  endfacet
  facet normal 0 0 1
    outer loop
      vertex 2.15312 0.65314 8
      vertex 2.15312 -0.65314 8
      vertex 2.18257 -0.546705 8
    endloop
  endfacet
  facet normal 0 0 1
    outer loop
      vertex 2.11847 0.758001 8
      vertex 2.15312 -0.65314 8
      vertex 2.15312 0.65314 8
    endloop
  endfacet
  facet normal 0 0 1
    outer loop
      vertex 2.11847 0.758001 8
      vertex 2.11847 -0.758001 8
      vertex 2.15312 -0.65314 8
    endloop
  endfacet
  facet normal 0 0 1
    outer loop
      vertex 2.07873 0.861037 8
      vertex 2.11847 -0.758001 8
      vertex 2.11847 0.758001 8
    endloop
  endfacet
  facet normal 0 0 1
    outer loop
      vertex 2.07873 0.861037 8
      vertex 2.07873 -0.861037 8
      vertex 2.11847 -0.758001 8
    endloop
  endfacet
  facet normal 0 0 1
    outer loop
      vertex 2.03398 0.961999 8
      vertex 2.07873 -0.861037 8
      vertex 2.07873 0.861037 8
    endloop
  endfacet
  facet normal 0 0 1
    outer loop
      vertex 2.03398 0.961999 8
      vertex 2.03398 -0.961999 8
      vertex 2.07873 -0.861037 8
    endloop
  endfacet
  facet normal 0 0 1
    outer loop
      vertex 1.98432 1.06064 8
      vertex 2.03398 -0.961999 8
      vertex 2.03398 0.961999 8
    endloop
  endfacet
  facet normal 0 0 1
    outer loop
      vertex 1.98432 1.06064 8
      vertex 1.98432 -1.06064 8
      vertex 2.03398 -0.961999 8
    endloop
  endfacet
  facet normal 0 0 1
    outer loop
      vertex 1.92989 1.15673 8
      vertex 1.98432 -1.06064 8
      vertex 1.98432 1.06064 8
    endloop
  endfacet
  facet normal 0 0 1
    outer loop
      vertex 1.92989 1.15673 8
      vertex 1.92989 -1.15673 8
      vertex 1.98432 -1.06064 8
    endloop
  endfacet
  facet normal 0 0 1
    outer loop
      vertex 1.87081 1.25003 8
      vertex 1.92989 -1.15673 8
      vertex 1.92989 1.15673 8
    endloop
  endfacet
  facet normal 0 0 1
    outer loop
      vertex 1.87081 1.25003 8
      vertex 1.87081 -1.25003 8
      vertex 1.92989 -1.15673 8
    endloop
  endfacet
  facet normal 0 0 1
    outer loop
      vertex 1.80722 1.34032 8
      vertex 1.87081 -1.25003 8
      vertex 1.87081 1.25003 8
    endloop
  endfacet
  facet normal 0 0 1
    outer loop
      vertex 1.80722 1.34032 8
      vertex 1.80722 -1.34032 8
      vertex 1.87081 -1.25003 8
    endloop
  endfacet
  facet normal 0 0 1
    outer loop
      vertex 1.73927 1.42738 8
      vertex 1.80722 -1.34032 8
      vertex 1.80722 1.34032 8
    endloop
  endfacet
  facet normal 0 0 1
    outer loop
      vertex 1.73927 1.42738 8
      vertex 1.73927 -1.42738 8
      vertex 1.80722 -1.34032 8
    endloop
  endfacet
  facet normal 0 0 1
    outer loop
      vertex 1.66714 1.51101 8
      vertex 1.73927 -1.42738 8
      vertex 1.73927 1.42738 8
    endloop
  endfacet
  facet normal 0 0 1
    outer loop
      vertex 1.66714 1.51101 8
      vertex 1.66714 -1.51101 8
      vertex 1.73927 -1.42738 8
    endloop
  endfacet
  facet normal 0 0 1
    outer loop
      vertex 1.59099 1.59099 8
      vertex 1.66714 -1.51101 8
      vertex 1.66714 1.51101 8
    endloop
  endfacet
  facet normal 0 0 1
    outer loop
      vertex 1.59099 1.59099 8
      vertex 1.59099 -1.59099 8
      vertex 1.66714 -1.51101 8
    endloop
  endfacet
  facet normal 0 0 1
    outer loop
      vertex 1.51101 1.66714 8
      vertex 1.59099 -1.59099 8
      vertex 1.59099 1.59099 8
    endloop
  endfacet
  facet normal 0 0 1
    outer loop
      vertex 1.51101 1.66714 8
      vertex 1.51101 -1.66714 8
      vertex 1.59099 -1.59099 8
    endloop
  endfacet
  facet normal 0 0 1
    outer loop
      vertex 1.42738 1.73927 8
      vertex 1.51101 -1.66714 8
      vertex 1.51101 1.66714 8
    endloop
  endfacet
  facet normal 0 0 1
    outer loop
      vertex 1.42738 1.73927 8
      vertex 1.42738 -1.73927 8
      vertex 1.51101 -1.66714 8
    endloop
  endfacet
  facet normal 0 0 1
    outer loop
      vertex 1.34032 1.80722 8
      vertex 1.42738 -1.73927 8
      vertex 1.42738 1.73927 8
    endloop
  endfacet
  facet normal 0 0 1
    outer loop
      vertex 1.34032 1.80722 8
      vertex 1.34032 -1.80722 8
      vertex 1.42738 -1.73927 8
    endloop
  endfacet
  facet normal 0 0 1
    outer loop
      vertex 1.25003 1.87081 8
      vertex 1.34032 -1.80722 8
      vertex 1.34032 1.80722 8
    endloop
  endfacet
  facet normal 0 0 1
    outer loop
      vertex 1.25003 1.87081 8
      vertex 1.25003 -1.87081 8
      vertex 1.34032 -1.80722 8
    endloop
  endfacet
  facet normal 0 0 1
    outer loop
      vertex 1.15673 1.92989 8
      vertex 1.25003 -1.87081 8
      vertex 1.25003 1.87081 8
    endloop
  endfacet
  facet normal 0 0 1
    outer loop
      vertex 1.15673 1.92989 8
      vertex 1.15673 -1.92989 8
      vertex 1.25003 -1.87081 8
    endloop
  endfacet
  facet normal 0 0 1
    outer loop
      vertex 1.06064 1.98432 8
      vertex 1.15673 -1.92989 8
      vertex 1.15673 1.92989 8
    endloop
  endfacet
  facet normal 0 0 1
    outer loop
      vertex 1.06064 1.98432 8
      vertex 1.06064 -1.98432 8
      vertex 1.15673 -1.92989 8
    endloop
  endfacet
  facet normal 0 0 1
    outer loop
      vertex 0.961999 2.03398 8
      vertex 1.06064 -1.98432 8
      vertex 1.06064 1.98432 8
    endloop
  endfacet
  facet normal 0 0 1
    outer loop
      vertex 0.961999 2.03398 8
      vertex 0.961999 -2.03398 8
      vertex 1.06064 -1.98432 8
    endloop
  endfacet
  facet normal 0 0 1
    outer loop
      vertex 0.861037 2.07873 8
      vertex 0.961999 -2.03398 8
      vertex 0.961999 2.03398 8
    endloop
  endfacet
  facet normal 0 0 1
    outer loop
      vertex 0.861037 2.07873 8
      vertex 0.861037 -2.07873 8
      vertex 0.961999 -2.03398 8
    endloop
  endfacet
  facet normal 0 0 1
    outer loop
      vertex 0.758001 2.11847 8
      vertex 0.861037 -2.07873 8
      vertex 0.861037 2.07873 8
    endloop
  endfacet
  facet normal 0 0 1
    outer loop
      vertex 0.758001 2.11847 8
      vertex 0.758001 -2.11847 8
      vertex 0.861037 -2.07873 8
    endloop
  endfacet
  facet normal 0 0 1
    outer loop
      vertex 0.65314 2.15312 8
      vertex 0.758001 -2.11847 8
      vertex 0.758001 2.11847 8
    endloop
  endfacet
  facet normal 0 0 1
    outer loop
      vertex 0.65314 2.15312 8
      vertex 0.65314 -2.15312 8
      vertex 0.758001 -2.11847 8
    endloop
  endfacet
  facet normal 0 0 1
    outer loop
      vertex 0.546705 2.18257 8
      vertex 0.65314 -2.15312 8
      vertex 0.65314 2.15312 8
    endloop
  endfacet
  facet normal 0 0 1
    outer loop
      vertex 0.546705 2.18257 8
      vertex 0.546705 -2.18257 8
      vertex 0.65314 -2.15312 8
    endloop
  endfacet
  facet normal 0 0 1
    outer loop
      vertex 0.438952 2.20677 8
      vertex 0.546705 -2.18257 8
      vertex 0.546705 2.18257 8
    endloop
  endfacet
  facet normal 0 0 1
    outer loop
      vertex 0.438952 2.20677 8
      vertex 0.438952 -2.20677 8
      vertex 0.546705 -2.18257 8
    endloop
  endfacet
  facet normal 0 0 1
    outer loop
      vertex 0.330143 2.22565 8
      vertex 0.438952 -2.20677 8
      vertex 0.438952 2.20677 8
    endloop
  endfacet
  facet normal 0 0 1
    outer loop
      vertex 0.330143 2.22565 8
      vertex 0.330143 -2.22565 8
      vertex 0.438952 -2.20677 8
    endloop
  endfacet
  facet normal 0 0 1
    outer loop
      vertex 0.220538 2.23917 8
      vertex 0.330143 -2.22565 8
      vertex 0.330143 2.22565 8
    endloop
  endfacet
  facet normal 0 0 1
    outer loop
      vertex 0.220538 2.23917 8
      vertex 0.220538 -2.23917 8
      vertex 0.330143 -2.22565 8
    endloop
  endfacet
  facet normal 0 0 1
    outer loop
      vertex 0.110402 2.24729 8
      vertex 0.220538 -2.23917 8
      vertex 0.220538 2.23917 8
    endloop
  endfacet
  facet normal 0 0 1
    outer loop
      vertex 0.110402 2.24729 8
      vertex 0.110402 -2.24729 8
      vertex 0.220538 -2.23917 8
    endloop
  endfacet
  facet normal 0 0 1
    outer loop
      vertex 0 2.25 8
      vertex 0.110402 -2.24729 8
      vertex 0.110402 2.24729 8
    endloop
  endfacet
  facet normal 0 0 1
    outer loop
      vertex 0 2.25 8
      vertex 0 -2.25 8
      vertex 0.110402 -2.24729 8
    endloop
  endfacet
  facet normal -0 0 1
    outer loop
      vertex -0.110402 2.24729 8
      vertex 0 -2.25 8
      vertex 0 2.25 8
    endloop
  endfacet
  facet normal 0 0 1
    outer loop
      vertex -0.110402 2.24729 8
      vertex -0.110402 -2.24729 8
      vertex 0 -2.25 8
    endloop
  endfacet
  facet normal -0 0 1
    outer loop
      vertex -0.220538 2.23917 8
      vertex -0.110402 -2.24729 8
      vertex -0.110402 2.24729 8
    endloop
  endfacet
  facet normal 0 0 1
    outer loop
      vertex -0.220538 2.23917 8
      vertex -0.220538 -2.23917 8
      vertex -0.110402 -2.24729 8
    endloop
  endfacet
  facet normal -0 0 1
    outer loop
      vertex -0.330143 2.22565 8
      vertex -0.220538 -2.23917 8
      vertex -0.220538 2.23917 8
    endloop
  endfacet
  facet normal 0 0 1
    outer loop
      vertex -0.330143 2.22565 8
      vertex -0.330143 -2.22565 8
      vertex -0.220538 -2.23917 8
    endloop
  endfacet
  facet normal -0 0 1
    outer loop
      vertex -0.438952 2.20677 8
      vertex -0.330143 -2.22565 8
      vertex -0.330143 2.22565 8
    endloop
  endfacet
  facet normal 0 0 1
    outer loop
      vertex -0.438952 2.20677 8
      vertex -0.438952 -2.20677 8
      vertex -0.330143 -2.22565 8
    endloop
  endfacet
  facet normal -0 0 1
    outer loop
      vertex -0.546705 2.18257 8
      vertex -0.438952 -2.20677 8
      vertex -0.438952 2.20677 8
    endloop
  endfacet
  facet normal 0 0 1
    outer loop
      vertex -0.546705 2.18257 8
      vertex -0.546705 -2.18257 8
      vertex -0.438952 -2.20677 8
    endloop
  endfacet
  facet normal -0 0 1
    outer loop
      vertex -0.65314 2.15312 8
      vertex -0.546705 -2.18257 8
      vertex -0.546705 2.18257 8
    endloop
  endfacet
  facet normal 0 0 1
    outer loop
      vertex -0.65314 2.15312 8
      vertex -0.65314 -2.15312 8
      vertex -0.546705 -2.18257 8
    endloop
  endfacet
  facet normal -0 0 1
    outer loop
      vertex -0.758001 2.11847 8
      vertex -0.65314 -2.15312 8
      vertex -0.65314 2.15312 8
    endloop
  endfacet
  facet normal 0 0 1
    outer loop
      vertex -0.758001 2.11847 8
      vertex -0.758001 -2.11847 8
      vertex -0.65314 -2.15312 8
    endloop
  endfacet
  facet normal -0 0 1
    outer loop
      vertex -0.861037 2.07873 8
      vertex -0.758001 -2.11847 8
      vertex -0.758001 2.11847 8
    endloop
  endfacet
  facet normal 0 0 1
    outer loop
      vertex -0.861037 2.07873 8
      vertex -0.861037 -2.07873 8
      vertex -0.758001 -2.11847 8
    endloop
  endfacet
  facet normal -0 0 1
    outer loop
      vertex -0.961999 2.03398 8
      vertex -0.861037 -2.07873 8
      vertex -0.861037 2.07873 8
    endloop
  endfacet
  facet normal 0 0 1
    outer loop
      vertex -0.961999 2.03398 8
      vertex -0.961999 -2.03398 8
      vertex -0.861037 -2.07873 8
    endloop
  endfacet
  facet normal -0 0 1
    outer loop
      vertex -1.06064 1.98432 8
      vertex -0.961999 -2.03398 8
      vertex -0.961999 2.03398 8
    endloop
  endfacet
  facet normal 0 0 1
    outer loop
      vertex -1.06064 1.98432 8
      vertex -1.06064 -1.98432 8
      vertex -0.961999 -2.03398 8
    endloop
  endfacet
  facet normal -0 0 1
    outer loop
      vertex -1.15673 1.92989 8
      vertex -1.06064 -1.98432 8
      vertex -1.06064 1.98432 8
    endloop
  endfacet
  facet normal 0 0 1
    outer loop
      vertex -1.15673 1.92989 8
      vertex -1.15673 -1.92989 8
      vertex -1.06064 -1.98432 8
    endloop
  endfacet
  facet normal -0 0 1
    outer loop
      vertex -1.25003 1.87081 8
      vertex -1.15673 -1.92989 8
      vertex -1.15673 1.92989 8
    endloop
  endfacet
  facet normal 0 0 1
    outer loop
      vertex -1.25003 1.87081 8
      vertex -1.25003 -1.87081 8
      vertex -1.15673 -1.92989 8
    endloop
  endfacet
  facet normal -0 0 1
    outer loop
      vertex -1.34032 1.80722 8
      vertex -1.25003 -1.87081 8
      vertex -1.25003 1.87081 8
    endloop
  endfacet
  facet normal 0 0 1
    outer loop
      vertex -1.34032 1.80722 8
      vertex -1.34032 -1.80722 8
      vertex -1.25003 -1.87081 8
    endloop
  endfacet
  facet normal -0 0 1
    outer loop
      vertex -1.42738 1.73927 8
      vertex -1.34032 -1.80722 8
      vertex -1.34032 1.80722 8
    endloop
  endfacet
  facet normal 0 0 1
    outer loop
      vertex -1.42738 1.73927 8
      vertex -1.42738 -1.73927 8
      vertex -1.34032 -1.80722 8
    endloop
  endfacet
  facet normal -0 0 1
    outer loop
      vertex -1.51101 1.66714 8
      vertex -1.42738 -1.73927 8
      vertex -1.42738 1.73927 8
    endloop
  endfacet
  facet normal 0 0 1
    outer loop
      vertex -1.51101 1.66714 8
      vertex -1.51101 -1.66714 8
      vertex -1.42738 -1.73927 8
    endloop
  endfacet
  facet normal -0 0 1
    outer loop
      vertex -1.59099 1.59099 8
      vertex -1.51101 -1.66714 8
      vertex -1.51101 1.66714 8
    endloop
  endfacet
  facet normal 0 0 1
    outer loop
      vertex -1.59099 1.59099 8
      vertex -1.59099 -1.59099 8
      vertex -1.51101 -1.66714 8
    endloop
  endfacet
  facet normal -0 0 1
    outer loop
      vertex -1.66714 1.51101 8
      vertex -1.59099 -1.59099 8
      vertex -1.59099 1.59099 8
    endloop
  endfacet
  facet normal 0 0 1
    outer loop
      vertex -1.66714 1.51101 8
      vertex -1.66714 -1.51101 8
      vertex -1.59099 -1.59099 8
    endloop
  endfacet
  facet normal -0 0 1
    outer loop
      vertex -1.73927 1.42738 8
      vertex -1.66714 -1.51101 8
      vertex -1.66714 1.51101 8
    endloop
  endfacet
  facet normal 0 0 1
    outer loop
      vertex -1.73927 1.42738 8
      vertex -1.73927 -1.42738 8
      vertex -1.66714 -1.51101 8
    endloop
  endfacet
  facet normal -0 0 1
    outer loop
      vertex -1.80722 1.34032 8
      vertex -1.73927 -1.42738 8
      vertex -1.73927 1.42738 8
    endloop
  endfacet
  facet normal 0 0 1
    outer loop
      vertex -1.80722 1.34032 8
      vertex -1.80722 -1.34032 8
      vertex -1.73927 -1.42738 8
    endloop
  endfacet
  facet normal -0 0 1
    outer loop
      vertex -1.87081 1.25003 8
      vertex -1.80722 -1.34032 8
      vertex -1.80722 1.34032 8
    endloop
  endfacet
  facet normal 0 0 1
    outer loop
      vertex -1.87081 1.25003 8
      vertex -1.87081 -1.25003 8
      vertex -1.80722 -1.34032 8
    endloop
  endfacet
  facet normal -0 0 1
    outer loop
      vertex -1.92989 1.15673 8
      vertex -1.87081 -1.25003 8
      vertex -1.87081 1.25003 8
    endloop
  endfacet
  facet normal 0 0 1
    outer loop
      vertex -1.92989 1.15673 8
      vertex -1.92989 -1.15673 8
      vertex -1.87081 -1.25003 8
    endloop
  endfacet
  facet normal -0 0 1
    outer loop
      vertex -1.98432 1.06064 8
      vertex -1.92989 -1.15673 8
      vertex -1.92989 1.15673 8
    endloop
  endfacet
  facet normal 0 0 1
    outer loop
      vertex -1.98432 1.06064 8
      vertex -1.98432 -1.06064 8
      vertex -1.92989 -1.15673 8
    endloop
  endfacet
  facet normal -0 0 1
    outer loop
      vertex -2.03398 0.961999 8
      vertex -1.98432 -1.06064 8
      vertex -1.98432 1.06064 8
    endloop
  endfacet
  facet normal 0 0 1
    outer loop
      vertex -2.03398 0.961999 8
      vertex -2.03398 -0.961999 8
      vertex -1.98432 -1.06064 8
    endloop
  endfacet
  facet normal -0 0 1
    outer loop
      vertex -2.07873 0.861037 8
      vertex -2.03398 -0.961999 8
      vertex -2.03398 0.961999 8
    endloop
  endfacet
  facet normal 0 0 1
    outer loop
      vertex -2.07873 0.861037 8
      vertex -2.07873 -0.861037 8
      vertex -2.03398 -0.961999 8
    endloop
  endfacet
  facet normal -0 0 1
    outer loop
      vertex -2.11847 0.758001 8
      vertex -2.07873 -0.861037 8
      vertex -2.07873 0.861037 8
    endloop
  endfacet
  facet normal 0 0 1
    outer loop
      vertex -2.11847 0.758001 8
      vertex -2.11847 -0.758001 8
      vertex -2.07873 -0.861037 8
    endloop
  endfacet
  facet normal -0 0 1
    outer loop
      vertex -2.15312 0.65314 8
      vertex -2.11847 -0.758001 8
      vertex -2.11847 0.758001 8
    endloop
  endfacet
  facet normal 0 0 1
    outer loop
      vertex -2.15312 0.65314 8
      vertex -2.15312 -0.65314 8
      vertex -2.11847 -0.758001 8
    endloop
  endfacet
  facet normal -0 0 1
    outer loop
      vertex -2.18257 0.546705 8
      vertex -2.15312 -0.65314 8
      vertex -2.15312 0.65314 8
    endloop
  endfacet
  facet normal 0 0 1
    outer loop
      vertex -2.18257 0.546705 8
      vertex -2.18257 -0.546705 8
      vertex -2.15312 -0.65314 8
    endloop
  endfacet
  facet normal -0 0 1
    outer loop
      vertex -2.20677 0.438952 8
      vertex -2.18257 -0.546705 8
      vertex -2.18257 0.546705 8
    endloop
  endfacet
  facet normal 0 0 1
    outer loop
      vertex -2.20677 0.438952 8
      vertex -2.20677 -0.438952 8
      vertex -2.18257 -0.546705 8
    endloop
  endfacet
  facet normal -0 0 1
    outer loop
      vertex -2.22565 0.330143 8
      vertex -2.20677 -0.438952 8
      vertex -2.20677 0.438952 8
    endloop
  endfacet
  facet normal 0 0 1
    outer loop
      vertex -2.22565 0.330143 8
      vertex -2.22565 -0.330143 8
      vertex -2.20677 -0.438952 8
    endloop
  endfacet
  facet normal -0 0 1
    outer loop
      vertex -2.23917 0.220538 8
      vertex -2.22565 -0.330143 8
      vertex -2.22565 0.330143 8
    endloop
  endfacet
  facet normal 0 0 1
    outer loop
      vertex -2.23917 0.220538 8
      vertex -2.23917 -0.220538 8
      vertex -2.22565 -0.330143 8
    endloop
  endfacet
  facet normal -0 0 1
    outer loop
      vertex -2.24729 0.110402 8
      vertex -2.23917 -0.220538 8
      vertex -2.23917 0.220538 8
    endloop
  endfacet
  facet normal 0 0 1
    outer loop
      vertex -2.24729 0.110402 8
      vertex -2.24729 -0.110402 8
      vertex -2.23917 -0.220538 8
    endloop
  endfacet
  facet normal 0 -0 1
    outer loop
      vertex -2.24729 -0.110402 8
      vertex -2.24729 0.110402 8
      vertex -2.25 0 8
    endloop
  endfacet
  facet normal -0.997293 0.0735275 0
    outer loop
      vertex -2.24729 0.110402 1
      vertex -2.23917 0.220538 8
      vertex -2.23917 0.220538 1
    endloop
  endfacet
  facet normal -0.997293 0.0735275 0
    outer loop
      vertex -2.23917 0.220538 8
      vertex -2.24729 0.110402 1
      vertex -2.24729 0.110402 8
    endloop
  endfacet
  facet normal -0.985278 0.170961 0
    outer loop
      vertex -2.22565 0.330143 1
      vertex -2.20677 0.438952 8
      vertex -2.20677 0.438952 1
    endloop
  endfacet
  facet normal -0.985278 0.170961 0
    outer loop
      vertex -2.20677 0.438952 8
      vertex -2.22565 0.330143 1
      vertex -2.22565 0.330143 8
    endloop
  endfacet
  facet normal -0.405216 0.914221 0
    outer loop
      vertex -0.861037 2.07873 1
      vertex -0.961999 2.03398 8
      vertex -0.861037 2.07873 8
    endloop
  endfacet
  facet normal -0.405216 0.914221 0
    outer loop
      vertex -0.961999 2.03398 8
      vertex -0.861037 2.07873 1
      vertex -0.961999 2.03398 1
    endloop
  endfacet
  facet normal -0.653122 0.757252 0
    outer loop
      vertex -1.42738 1.73927 1
      vertex -1.51101 1.66714 8
      vertex -1.42738 1.73927 8
    endloop
  endfacet
  facet normal -0.653122 0.757252 0
    outer loop
      vertex -1.51101 1.66714 8
      vertex -1.42738 1.73927 1
      vertex -1.51101 1.66714 1
    endloop
  endfacet
  facet normal -0.575812 0.817582 0
    outer loop
      vertex -1.25003 1.87081 1
      vertex -1.34032 1.80722 8
      vertex -1.25003 1.87081 8
    endloop
  endfacet
  facet normal -0.575812 0.817582 0
    outer loop
      vertex -1.34032 1.80722 8
      vertex -1.25003 1.87081 1
      vertex -1.34032 1.80722 1
    endloop
  endfacet
  facet normal -0.313752 0.949505 0
    outer loop
      vertex -0.65314 2.15312 1
      vertex -0.758001 2.11847 8
      vertex -0.65314 2.15312 8
    endloop
  endfacet
  facet normal -0.313752 0.949505 0
    outer loop
      vertex -0.758001 2.11847 8
      vertex -0.65314 2.15312 1
      vertex -0.758001 2.11847 1
    endloop
  endfacet
  facet normal -0.219129 0.975696 0
    outer loop
      vertex -0.438952 2.20677 1
      vertex -0.546705 2.18257 8
      vertex -0.438952 2.20677 8
    endloop
  endfacet
  facet normal -0.219129 0.975696 0
    outer loop
      vertex -0.546705 2.18257 8
      vertex -0.438952 2.20677 1
      vertex -0.546705 2.18257 1
    endloop
  endfacet
  facet normal -0.122424 0.992478 0
    outer loop
      vertex -0.220538 2.23917 1
      vertex -0.330143 2.22565 8
      vertex -0.220538 2.23917 8
    endloop
  endfacet
  facet normal -0.122424 0.992478 0
    outer loop
      vertex -0.330143 2.22565 8
      vertex -0.220538 2.23917 1
      vertex -0.330143 2.22565 1
    endloop
  endfacet
  facet normal 0.0735275 -0.997293 0
    outer loop
      vertex 0.110402 -2.24729 1
      vertex 0.220538 -2.23917 8
      vertex 0.110402 -2.24729 8
    endloop
  endfacet
  facet normal 0.0735275 -0.997293 0
    outer loop
      vertex 0.220538 -2.23917 8
      vertex 0.110402 -2.24729 1
      vertex 0.220538 -2.23917 1
    endloop
  endfacet
  facet normal 0.219129 -0.975696 0
    outer loop
      vertex 0.438952 -2.20677 1
      vertex 0.546705 -2.18257 8
      vertex 0.438952 -2.20677 8
    endloop
  endfacet
  facet normal 0.219129 -0.975696 0
    outer loop
      vertex 0.546705 -2.18257 8
      vertex 0.438952 -2.20677 1
      vertex 0.546705 -2.18257 1
    endloop
  endfacet
  facet normal 0.653122 -0.757252 0
    outer loop
      vertex 1.42738 -1.73927 1
      vertex 1.51101 -1.66714 8
      vertex 1.42738 -1.73927 8
    endloop
  endfacet
  facet normal 0.653122 -0.757252 0
    outer loop
      vertex 1.51101 -1.66714 8
      vertex 1.42738 -1.73927 1
      vertex 1.51101 -1.66714 1
    endloop
  endfacet
  facet normal 0.492869 -0.870104 0
    outer loop
      vertex 1.06064 -1.98432 1
      vertex 1.15673 -1.92989 8
      vertex 1.06064 -1.98432 8
    endloop
  endfacet
  facet normal 0.492869 -0.870104 0
    outer loop
      vertex 1.15673 -1.92989 8
      vertex 1.06064 -1.98432 1
      vertex 1.15673 -1.92989 1
    endloop
  endfacet
  facet normal 0.788313 -0.615275 0
    outer loop
      vertex 1.73927 -1.42738 8
      vertex 1.80722 -1.34032 1
      vertex 1.80722 -1.34032 8
    endloop
  endfacet
  facet normal 0.788313 -0.615275 0
    outer loop
      vertex 1.80722 -1.34032 1
      vertex 1.73927 -1.42738 8
      vertex 1.73927 -1.42738 1
    endloop
  endfacet
  facet normal 0.84486 -0.534987 0
    outer loop
      vertex 1.87081 -1.25003 8
      vertex 1.92989 -1.15673 1
      vertex 1.92989 -1.15673 8
    endloop
  endfacet
  facet normal 0.84486 -0.534987 0
    outer loop
      vertex 1.92989 -1.15673 1
      vertex 1.87081 -1.25003 8
      vertex 1.87081 -1.25003 1
    endloop
  endfacet
  facet normal 0.933009 -0.359853 0
    outer loop
      vertex 2.07873 -0.861037 8
      vertex 2.11847 -0.758001 1
      vertex 2.11847 -0.758001 8
    endloop
  endfacet
  facet normal 0.933009 -0.359853 0
    outer loop
      vertex 2.11847 -0.758001 1
      vertex 2.07873 -0.861037 8
      vertex 2.07873 -0.861037 1
    endloop
  endfacet
  facet normal 0.893194 -0.449671 0
    outer loop
      vertex 1.98432 -1.06064 8
      vertex 2.03398 -0.961999 1
      vertex 2.03398 -0.961999 8
    endloop
  endfacet
  facet normal 0.893194 -0.449671 0
    outer loop
      vertex 2.03398 -0.961999 1
      vertex 1.98432 -1.06064 8
      vertex 1.98432 -1.06064 1
    endloop
  endfacet
  facet normal 0.963787 -0.266675 0
    outer loop
      vertex 2.15312 -0.65314 8
      vertex 2.18257 -0.546705 1
      vertex 2.18257 -0.546705 8
    endloop
  endfacet
  facet normal 0.963787 -0.266675 0
    outer loop
      vertex 2.18257 -0.546705 1
      vertex 2.15312 -0.65314 8
      vertex 2.15312 -0.65314 1
    endloop
  endfacet
  facet normal 0.997293 -0.0735275 0
    outer loop
      vertex 2.23917 -0.220538 8
      vertex 2.24729 -0.110402 1
      vertex 2.24729 -0.110402 8
    endloop
  endfacet
  facet normal 0.997293 -0.0735275 0
    outer loop
      vertex 2.24729 -0.110402 1
      vertex 2.23917 -0.220538 8
      vertex 2.23917 -0.220538 1
    endloop
  endfacet
  facet normal 0.992478 -0.122424 0
    outer loop
      vertex 2.22565 -0.330143 8
      vertex 2.23917 -0.220538 1
      vertex 2.23917 -0.220538 8
    endloop
  endfacet
  facet normal 0.992478 -0.122424 0
    outer loop
      vertex 2.23917 -0.220538 1
      vertex 2.22565 -0.330143 8
      vertex 2.22565 -0.330143 1
    endloop
  endfacet
  facet normal -0.653122 -0.757252 0
    outer loop
      vertex -1.51101 -1.66714 1
      vertex -1.42738 -1.73927 8
      vertex -1.51101 -1.66714 8
    endloop
  endfacet
  facet normal -0.653122 -0.757252 -0
    outer loop
      vertex -1.42738 -1.73927 8
      vertex -1.51101 -1.66714 1
      vertex -1.42738 -1.73927 1
    endloop
  endfacet
  facet normal -0.575812 -0.817582 0
    outer loop
      vertex -1.34032 -1.80722 1
      vertex -1.25003 -1.87081 8
      vertex -1.34032 -1.80722 8
    endloop
  endfacet
  facet normal -0.575812 -0.817582 -0
    outer loop
      vertex -1.25003 -1.87081 8
      vertex -1.34032 -1.80722 1
      vertex -1.25003 -1.87081 1
    endloop
  endfacet
  facet normal -0.405216 -0.914221 0
    outer loop
      vertex -0.961999 -2.03398 1
      vertex -0.861037 -2.07873 8
      vertex -0.961999 -2.03398 8
    endloop
  endfacet
  facet normal -0.405216 -0.914221 -0
    outer loop
      vertex -0.861037 -2.07873 8
      vertex -0.961999 -2.03398 1
      vertex -0.861037 -2.07873 1
    endloop
  endfacet
  facet normal -0.492869 -0.870104 0
    outer loop
      vertex -1.15673 -1.92989 1
      vertex -1.06064 -1.98432 8
      vertex -1.15673 -1.92989 8
    endloop
  endfacet
  facet normal -0.492869 -0.870104 -0
    outer loop
      vertex -1.06064 -1.98432 8
      vertex -1.15673 -1.92989 1
      vertex -1.06064 -1.98432 1
    endloop
  endfacet
  facet normal -0.313752 -0.949505 0
    outer loop
      vertex -0.758001 -2.11847 1
      vertex -0.65314 -2.15312 8
      vertex -0.758001 -2.11847 8
    endloop
  endfacet
  facet normal -0.313752 -0.949505 -0
    outer loop
      vertex -0.65314 -2.15312 8
      vertex -0.758001 -2.11847 1
      vertex -0.65314 -2.15312 1
    endloop
  endfacet
  facet normal -0.219129 -0.975696 0
    outer loop
      vertex -0.546705 -2.18257 1
      vertex -0.438952 -2.20677 8
      vertex -0.546705 -2.18257 8
    endloop
  endfacet
  facet normal -0.219129 -0.975696 -0
    outer loop
      vertex -0.438952 -2.20677 8
      vertex -0.546705 -2.18257 1
      vertex -0.438952 -2.20677 1
    endloop
  endfacet
  facet normal -0.122424 -0.992478 0
    outer loop
      vertex -0.330143 -2.22565 1
      vertex -0.220538 -2.23917 8
      vertex -0.330143 -2.22565 8
    endloop
  endfacet
  facet normal -0.122424 -0.992478 -0
    outer loop
      vertex -0.220538 -2.23917 8
      vertex -0.330143 -2.22565 1
      vertex -0.220538 -2.23917 1
    endloop
  endfacet
  facet normal -0.0245393 -0.999699 0
    outer loop
      vertex -0.110402 -2.24729 1
      vertex 0 -2.25 8
      vertex -0.110402 -2.24729 8
    endloop
  endfacet
  facet normal -0.0245393 -0.999699 -0
    outer loop
      vertex 0 -2.25 8
      vertex -0.110402 -2.24729 1
      vertex 0 -2.25 1
    endloop
  endfacet
  facet normal -0.724235 -0.689553 0
    outer loop
      vertex -1.59099 -1.59099 1
      vertex -1.66714 -1.51101 8
      vertex -1.66714 -1.51101 1
    endloop
  endfacet
  facet normal -0.724235 -0.689553 0
    outer loop
      vertex -1.66714 -1.51101 8
      vertex -1.59099 -1.59099 1
      vertex -1.59099 -1.59099 8
    endloop
  endfacet
  facet normal -0.893194 -0.449671 0
    outer loop
      vertex -1.98432 -1.06064 1
      vertex -2.03398 -0.961999 8
      vertex -2.03398 -0.961999 1
    endloop
  endfacet
  facet normal -0.893194 -0.449671 0
    outer loop
      vertex -2.03398 -0.961999 8
      vertex -1.98432 -1.06064 1
      vertex -1.98432 -1.06064 8
    endloop
  endfacet
  facet normal -0.84486 -0.534987 0
    outer loop
      vertex -1.87081 -1.25003 1
      vertex -1.92989 -1.15673 8
      vertex -1.92989 -1.15673 1
    endloop
  endfacet
  facet normal -0.84486 -0.534987 0
    outer loop
      vertex -1.92989 -1.15673 8
      vertex -1.87081 -1.25003 1
      vertex -1.87081 -1.25003 8
    endloop
  endfacet
  facet normal -0.788313 -0.615275 0
    outer loop
      vertex -1.73927 -1.42738 1
      vertex -1.80722 -1.34032 8
      vertex -1.80722 -1.34032 1
    endloop
  endfacet
  facet normal -0.788313 -0.615275 0
    outer loop
      vertex -1.80722 -1.34032 8
      vertex -1.73927 -1.42738 1
      vertex -1.73927 -1.42738 8
    endloop
  endfacet
  facet normal -0.963787 -0.266675 0
    outer loop
      vertex -2.15312 -0.65314 1
      vertex -2.18257 -0.546705 8
      vertex -2.18257 -0.546705 1
    endloop
  endfacet
  facet normal -0.963787 -0.266675 0
    outer loop
      vertex -2.18257 -0.546705 8
      vertex -2.15312 -0.65314 1
      vertex -2.15312 -0.65314 8
    endloop
  endfacet
  facet normal -0.997293 -0.0735275 0
    outer loop
      vertex -2.23917 -0.220538 1
      vertex -2.24729 -0.110402 8
      vertex -2.24729 -0.110402 1
    endloop
  endfacet
  facet normal -0.997293 -0.0735275 0
    outer loop
      vertex -2.24729 -0.110402 8
      vertex -2.23917 -0.220538 1
      vertex -2.23917 -0.220538 8
    endloop
  endfacet
  facet normal 0.122424 -0.992478 0
    outer loop
      vertex 0.220538 -2.23917 1
      vertex 0.330143 -2.22565 8
      vertex 0.220538 -2.23917 8
    endloop
  endfacet
  facet normal 0.122424 -0.992478 0
    outer loop
      vertex 0.330143 -2.22565 8
      vertex 0.220538 -2.23917 1
      vertex 0.330143 -2.22565 1
    endloop
  endfacet
  facet normal -1 0 0
    outer loop
      vertex -2.5 -2.5 0
      vertex -2.5 2.5 1
      vertex -2.5 2.5 0
    endloop
  endfacet
  facet normal -1 -0 0
    outer loop
      vertex -2.5 2.5 1
      vertex -2.5 -2.5 0
      vertex -2.5 -2.5 1
    endloop
  endfacet
  facet normal 0 0 1
    outer loop
      vertex 2.5 2.5 1
      vertex 2.25 0 1
      vertex 2.5 -2.5 1
    endloop
  endfacet
  facet normal 0 0 1
    outer loop
      vertex 2.5 2.5 1
      vertex 2.24729 0.110402 1
      vertex 2.25 0 1
    endloop
  endfacet
  facet normal 0 0 1
    outer loop
      vertex 2.5 2.5 1
      vertex 2.23917 0.220538 1
      vertex 2.24729 0.110402 1
    endloop
  endfacet
  facet normal 0 0 1
    outer loop
      vertex 2.5 2.5 1
      vertex 2.22565 0.330143 1
      vertex 2.23917 0.220538 1
    endloop
  endfacet
  facet normal 0 0 1
    outer loop
      vertex 2.5 2.5 1
      vertex 2.20677 0.438952 1
      vertex 2.22565 0.330143 1
    endloop
  endfacet
  facet normal 0 0 1
    outer loop
      vertex 2.5 2.5 1
      vertex 2.18257 0.546705 1
      vertex 2.20677 0.438952 1
    endloop
  endfacet
  facet normal 0 0 1
    outer loop
      vertex 2.5 2.5 1
      vertex 2.15312 0.65314 1
      vertex 2.18257 0.546705 1
    endloop
  endfacet
  facet normal 0 0 1
    outer loop
      vertex 2.5 2.5 1
      vertex 2.11847 0.758001 1
      vertex 2.15312 0.65314 1
    endloop
  endfacet
  facet normal 0 0 1
    outer loop
      vertex 2.5 2.5 1
      vertex 2.07873 0.861037 1
      vertex 2.11847 0.758001 1
    endloop
  endfacet
  facet normal 0 0 1
    outer loop
      vertex 2.5 2.5 1
      vertex 2.03398 0.961999 1
      vertex 2.07873 0.861037 1
    endloop
  endfacet
  facet normal 0 0 1
    outer loop
      vertex 2.5 2.5 1
      vertex 1.98432 1.06064 1
      vertex 2.03398 0.961999 1
    endloop
  endfacet
  facet normal 0 0 1
    outer loop
      vertex 2.5 2.5 1
      vertex 1.92989 1.15673 1
      vertex 1.98432 1.06064 1
    endloop
  endfacet
  facet normal 0 0 1
    outer loop
      vertex 2.5 2.5 1
      vertex 1.87081 1.25003 1
      vertex 1.92989 1.15673 1
    endloop
  endfacet
  facet normal 0 0 1
    outer loop
      vertex 2.5 2.5 1
      vertex 1.80722 1.34032 1
      vertex 1.87081 1.25003 1
    endloop
  endfacet
  facet normal 0 0 1
    outer loop
      vertex 2.5 2.5 1
      vertex 1.73927 1.42738 1
      vertex 1.80722 1.34032 1
    endloop
  endfacet
  facet normal 0 0 1
    outer loop
      vertex 2.5 2.5 1
      vertex 1.66714 1.51101 1
      vertex 1.73927 1.42738 1
    endloop
  endfacet
  facet normal 0 0 1
    outer loop
      vertex 2.5 2.5 1
      vertex 1.59099 1.59099 1
      vertex 1.66714 1.51101 1
    endloop
  endfacet
  facet normal 0 0 1
    outer loop
      vertex 2.5 2.5 1
      vertex 1.51101 1.66714 1
      vertex 1.59099 1.59099 1
    endloop
  endfacet
  facet normal 0 0 1
    outer loop
      vertex 2.5 2.5 1
      vertex 1.42738 1.73927 1
      vertex 1.51101 1.66714 1
    endloop
  endfacet
  facet normal 0 0 1
    outer loop
      vertex 2.5 2.5 1
      vertex 1.34032 1.80722 1
      vertex 1.42738 1.73927 1
    endloop
  endfacet
  facet normal 0 0 1
    outer loop
      vertex 2.5 2.5 1
      vertex 1.25003 1.87081 1
      vertex 1.34032 1.80722 1
    endloop
  endfacet
  facet normal 0 0 1
    outer loop
      vertex 2.5 2.5 1
      vertex 1.15673 1.92989 1
      vertex 1.25003 1.87081 1
    endloop
  endfacet
  facet normal 0 0 1
    outer loop
      vertex 2.5 2.5 1
      vertex 1.06064 1.98432 1
      vertex 1.15673 1.92989 1
    endloop
  endfacet
  facet normal 0 0 1
    outer loop
      vertex 2.5 2.5 1
      vertex 0.961999 2.03398 1
      vertex 1.06064 1.98432 1
    endloop
  endfacet
  facet normal 0 0 1
    outer loop
      vertex 2.5 2.5 1
      vertex 0.861037 2.07873 1
      vertex 0.961999 2.03398 1
    endloop
  endfacet
  facet normal 0 0 1
    outer loop
      vertex 2.5 2.5 1
      vertex 0.758001 2.11847 1
      vertex 0.861037 2.07873 1
    endloop
  endfacet
  facet normal 0 0 1
    outer loop
      vertex 2.5 2.5 1
      vertex 0.65314 2.15312 1
      vertex 0.758001 2.11847 1
    endloop
  endfacet
  facet normal 0 0 1
    outer loop
      vertex 2.5 2.5 1
      vertex 0.546705 2.18257 1
      vertex 0.65314 2.15312 1
    endloop
  endfacet
  facet normal 0 0 1
    outer loop
      vertex 2.5 2.5 1
      vertex 0.438952 2.20677 1
      vertex 0.546705 2.18257 1
    endloop
  endfacet
  facet normal 0 0 1
    outer loop
      vertex 2.5 2.5 1
      vertex 0.330143 2.22565 1
      vertex 0.438952 2.20677 1
    endloop
  endfacet
  facet normal 0 0 1
    outer loop
      vertex 2.5 2.5 1
      vertex 0.220538 2.23917 1
      vertex 0.330143 2.22565 1
    endloop
  endfacet
  facet normal 0 0 1
    outer loop
      vertex 2.5 2.5 1
      vertex 0.110402 2.24729 1
      vertex 0.220538 2.23917 1
    endloop
  endfacet
  facet normal 0 0 1
    outer loop
      vertex 2.5 2.5 1
      vertex 0 2.25 1
      vertex 0.110402 2.24729 1
    endloop
  endfacet
  facet normal -0 0 1
    outer loop
      vertex -2.5 2.5 1
      vertex 0 2.25 1
      vertex 2.5 2.5 1
    endloop
  endfacet
  facet normal 0 0 1
    outer loop
      vertex 0 2.25 1
      vertex -2.5 2.5 1
      vertex -0.110402 2.24729 1
    endloop
  endfacet
  facet normal 0 0 1
    outer loop
      vertex -2.24729 0.110402 1
      vertex -2.5 2.5 1
      vertex -2.25 0 1
    endloop
  endfacet
  facet normal 0 0 1
    outer loop
      vertex -2.23917 0.220538 1
      vertex -2.5 2.5 1
      vertex -2.24729 0.110402 1
    endloop
  endfacet
  facet normal 0 0 1
    outer loop
      vertex -2.22565 0.330143 1
      vertex -2.5 2.5 1
      vertex -2.23917 0.220538 1
    endloop
  endfacet
  facet normal 0 0 1
    outer loop
      vertex -2.20677 0.438952 1
      vertex -2.5 2.5 1
      vertex -2.22565 0.330143 1
    endloop
  endfacet
  facet normal 0 0 1
    outer loop
      vertex -2.18257 0.546705 1
      vertex -2.5 2.5 1
      vertex -2.20677 0.438952 1
    endloop
  endfacet
  facet normal 0 0 1
    outer loop
      vertex -2.15312 0.65314 1
      vertex -2.5 2.5 1
      vertex -2.18257 0.546705 1
    endloop
  endfacet
  facet normal 0 0 1
    outer loop
      vertex -2.11847 0.758001 1
      vertex -2.5 2.5 1
      vertex -2.15312 0.65314 1
    endloop
  endfacet
  facet normal 0 0 1
    outer loop
      vertex -2.07873 0.861037 1
      vertex -2.5 2.5 1
      vertex -2.11847 0.758001 1
    endloop
  endfacet
  facet normal 0 0 1
    outer loop
      vertex -2.03398 0.961999 1
      vertex -2.5 2.5 1
      vertex -2.07873 0.861037 1
    endloop
  endfacet
  facet normal 0 0 1
    outer loop
      vertex -1.98432 1.06064 1
      vertex -2.5 2.5 1
      vertex -2.03398 0.961999 1
    endloop
  endfacet
  facet normal 0 0 1
    outer loop
      vertex -1.92989 1.15673 1
      vertex -2.5 2.5 1
      vertex -1.98432 1.06064 1
    endloop
  endfacet
  facet normal 0 0 1
    outer loop
      vertex -1.87081 1.25003 1
      vertex -2.5 2.5 1
      vertex -1.92989 1.15673 1
    endloop
  endfacet
  facet normal 0 0 1
    outer loop
      vertex -1.80722 1.34032 1
      vertex -2.5 2.5 1
      vertex -1.87081 1.25003 1
    endloop
  endfacet
  facet normal 0 0 1
    outer loop
      vertex -1.73927 1.42738 1
      vertex -2.5 2.5 1
      vertex -1.80722 1.34032 1
    endloop
  endfacet
  facet normal 0 0 1
    outer loop
      vertex -1.66714 1.51101 1
      vertex -2.5 2.5 1
      vertex -1.73927 1.42738 1
    endloop
  endfacet
  facet normal 0 0 1
    outer loop
      vertex -1.59099 1.59099 1
      vertex -2.5 2.5 1
      vertex -1.66714 1.51101 1
    endloop
  endfacet
  facet normal 0 0 1
    outer loop
      vertex -1.51101 1.66714 1
      vertex -2.5 2.5 1
      vertex -1.59099 1.59099 1
    endloop
  endfacet
  facet normal 0 0 1
    outer loop
      vertex -1.42738 1.73927 1
      vertex -2.5 2.5 1
      vertex -1.51101 1.66714 1
    endloop
  endfacet
  facet normal 0 0 1
    outer loop
      vertex -1.34032 1.80722 1
      vertex -2.5 2.5 1
      vertex -1.42738 1.73927 1
    endloop
  endfacet
  facet normal 0 0 1
    outer loop
      vertex -1.25003 1.87081 1
      vertex -2.5 2.5 1
      vertex -1.34032 1.80722 1
    endloop
  endfacet
  facet normal 0 0 1
    outer loop
      vertex -1.15673 1.92989 1
      vertex -2.5 2.5 1
      vertex -1.25003 1.87081 1
    endloop
  endfacet
  facet normal 0 0 1
    outer loop
      vertex -1.06064 1.98432 1
      vertex -2.5 2.5 1
      vertex -1.15673 1.92989 1
    endloop
  endfacet
  facet normal 0 0 1
    outer loop
      vertex -0.961999 2.03398 1
      vertex -2.5 2.5 1
      vertex -1.06064 1.98432 1
    endloop
  endfacet
  facet normal 0 0 1
    outer loop
      vertex -0.861037 2.07873 1
      vertex -2.5 2.5 1
      vertex -0.961999 2.03398 1
    endloop
  endfacet
  facet normal 0 0 1
    outer loop
      vertex -0.758001 2.11847 1
      vertex -2.5 2.5 1
      vertex -0.861037 2.07873 1
    endloop
  endfacet
  facet normal 0 0 1
    outer loop
      vertex -0.65314 2.15312 1
      vertex -2.5 2.5 1
      vertex -0.758001 2.11847 1
    endloop
  endfacet
  facet normal 0 0 1
    outer loop
      vertex -0.546705 2.18257 1
      vertex -2.5 2.5 1
      vertex -0.65314 2.15312 1
    endloop
  endfacet
  facet normal 0 0 1
    outer loop
      vertex -0.438952 2.20677 1
      vertex -2.5 2.5 1
      vertex -0.546705 2.18257 1
    endloop
  endfacet
  facet normal 0 0 1
    outer loop
      vertex -0.330143 2.22565 1
      vertex -2.5 2.5 1
      vertex -0.438952 2.20677 1
    endloop
  endfacet
  facet normal 0 0 1
    outer loop
      vertex -0.220538 2.23917 1
      vertex -2.5 2.5 1
      vertex -0.330143 2.22565 1
    endloop
  endfacet
  facet normal 0 0 1
    outer loop
      vertex -0.110402 2.24729 1
      vertex -2.5 2.5 1
      vertex -0.220538 2.23917 1
    endloop
  endfacet
  facet normal -0 0 1
    outer loop
      vertex 2.24729 -0.110402 1
      vertex 2.5 -2.5 1
      vertex 2.25 0 1
    endloop
  endfacet
  facet normal -0 0 1
    outer loop
      vertex 2.23917 -0.220538 1
      vertex 2.5 -2.5 1
      vertex 2.24729 -0.110402 1
    endloop
  endfacet
  facet normal -0 0 1
    outer loop
      vertex 2.22565 -0.330143 1
      vertex 2.5 -2.5 1
      vertex 2.23917 -0.220538 1
    endloop
  endfacet
  facet normal -0 0 1
    outer loop
      vertex 2.20677 -0.438952 1
      vertex 2.5 -2.5 1
      vertex 2.22565 -0.330143 1
    endloop
  endfacet
  facet normal -0 0 1
    outer loop
      vertex 2.18257 -0.546705 1
      vertex 2.5 -2.5 1
      vertex 2.20677 -0.438952 1
    endloop
  endfacet
  facet normal -0 0 1
    outer loop
      vertex 2.15312 -0.65314 1
      vertex 2.5 -2.5 1
      vertex 2.18257 -0.546705 1
    endloop
  endfacet
  facet normal -0 0 1
    outer loop
      vertex 2.11847 -0.758001 1
      vertex 2.5 -2.5 1
      vertex 2.15312 -0.65314 1
    endloop
  endfacet
  facet normal -0 0 1
    outer loop
      vertex 2.07873 -0.861037 1
      vertex 2.5 -2.5 1
      vertex 2.11847 -0.758001 1
    endloop
  endfacet
  facet normal -0 0 1
    outer loop
      vertex 2.03398 -0.961999 1
      vertex 2.5 -2.5 1
      vertex 2.07873 -0.861037 1
    endloop
  endfacet
  facet normal -0 0 1
    outer loop
      vertex 1.98432 -1.06064 1
      vertex 2.5 -2.5 1
      vertex 2.03398 -0.961999 1
    endloop
  endfacet
  facet normal -0 0 1
    outer loop
      vertex 1.92989 -1.15673 1
      vertex 2.5 -2.5 1
      vertex 1.98432 -1.06064 1
    endloop
  endfacet
  facet normal -0 0 1
    outer loop
      vertex 1.87081 -1.25003 1
      vertex 2.5 -2.5 1
      vertex 1.92989 -1.15673 1
    endloop
  endfacet
  facet normal -0 0 1
    outer loop
      vertex 1.80722 -1.34032 1
      vertex 2.5 -2.5 1
      vertex 1.87081 -1.25003 1
    endloop
  endfacet
  facet normal -0 0 1
    outer loop
      vertex 1.73927 -1.42738 1
      vertex 2.5 -2.5 1
      vertex 1.80722 -1.34032 1
    endloop
  endfacet
  facet normal -0 0 1
    outer loop
      vertex 1.66714 -1.51101 1
      vertex 2.5 -2.5 1
      vertex 1.73927 -1.42738 1
    endloop
  endfacet
  facet normal -0 0 1
    outer loop
      vertex 1.59099 -1.59099 1
      vertex 2.5 -2.5 1
      vertex 1.66714 -1.51101 1
    endloop
  endfacet
  facet normal -0 0 1
    outer loop
      vertex 1.51101 -1.66714 1
      vertex 2.5 -2.5 1
      vertex 1.59099 -1.59099 1
    endloop
  endfacet
  facet normal -0 0 1
    outer loop
      vertex 1.42738 -1.73927 1
      vertex 2.5 -2.5 1
      vertex 1.51101 -1.66714 1
    endloop
  endfacet
  facet normal -0 0 1
    outer loop
      vertex 1.34032 -1.80722 1
      vertex 2.5 -2.5 1
      vertex 1.42738 -1.73927 1
    endloop
  endfacet
  facet normal -0 0 1
    outer loop
      vertex 1.25003 -1.87081 1
      vertex 2.5 -2.5 1
      vertex 1.34032 -1.80722 1
    endloop
  endfacet
  facet normal -0 0 1
    outer loop
      vertex 1.15673 -1.92989 1
      vertex 2.5 -2.5 1
      vertex 1.25003 -1.87081 1
    endloop
  endfacet
  facet normal -0 0 1
    outer loop
      vertex 1.06064 -1.98432 1
      vertex 2.5 -2.5 1
      vertex 1.15673 -1.92989 1
    endloop
  endfacet
  facet normal -0 0 1
    outer loop
      vertex 0.961999 -2.03398 1
      vertex 2.5 -2.5 1
      vertex 1.06064 -1.98432 1
    endloop
  endfacet
  facet normal -0 0 1
    outer loop
      vertex 0.861037 -2.07873 1
      vertex 2.5 -2.5 1
      vertex 0.961999 -2.03398 1
    endloop
  endfacet
  facet normal -0 0 1
    outer loop
      vertex 0.758001 -2.11847 1
      vertex 2.5 -2.5 1
      vertex 0.861037 -2.07873 1
    endloop
  endfacet
  facet normal -0 0 1
    outer loop
      vertex 0.65314 -2.15312 1
      vertex 2.5 -2.5 1
      vertex 0.758001 -2.11847 1
    endloop
  endfacet
  facet normal -0 0 1
    outer loop
      vertex 0.546705 -2.18257 1
      vertex 2.5 -2.5 1
      vertex 0.65314 -2.15312 1
    endloop
  endfacet
  facet normal -0 0 1
    outer loop
      vertex 0.438952 -2.20677 1
      vertex 2.5 -2.5 1
      vertex 0.546705 -2.18257 1
    endloop
  endfacet
  facet normal -0 0 1
    outer loop
      vertex 0.330143 -2.22565 1
      vertex 2.5 -2.5 1
      vertex 0.438952 -2.20677 1
    endloop
  endfacet
  facet normal -0 0 1
    outer loop
      vertex 0.220538 -2.23917 1
      vertex 2.5 -2.5 1
      vertex 0.330143 -2.22565 1
    endloop
  endfacet
  facet normal -0 0 1
    outer loop
      vertex 0.110402 -2.24729 1
      vertex 2.5 -2.5 1
      vertex 0.220538 -2.23917 1
    endloop
  endfacet
  facet normal -0 0 1
    outer loop
      vertex 0 -2.25 1
      vertex 2.5 -2.5 1
      vertex 0.110402 -2.24729 1
    endloop
  endfacet
  facet normal 0 0 1
    outer loop
      vertex -2.5 -2.5 1
      vertex 0 -2.25 1
      vertex -0.110402 -2.24729 1
    endloop
  endfacet
  facet normal 0 0 1
    outer loop
      vertex -2.5 -2.5 1
      vertex -0.110402 -2.24729 1
      vertex -0.220538 -2.23917 1
    endloop
  endfacet
  facet normal 0 0 1
    outer loop
      vertex -2.5 -2.5 1
      vertex -2.25 0 1
      vertex -2.5 2.5 1
    endloop
  endfacet
  facet normal 0 0 1
    outer loop
      vertex -2.25 0 1
      vertex -2.5 -2.5 1
      vertex -2.24729 -0.110402 1
    endloop
  endfacet
  facet normal 0 0 1
    outer loop
      vertex 0 -2.25 1
      vertex -2.5 -2.5 1
      vertex 2.5 -2.5 1
    endloop
  endfacet
  facet normal 0 0 1
    outer loop
      vertex -0.330143 -2.22565 1
      vertex -2.5 -2.5 1
      vertex -0.220538 -2.23917 1
    endloop
  endfacet
  facet normal 0 0 1
    outer loop
      vertex -0.438952 -2.20677 1
      vertex -2.5 -2.5 1
      vertex -0.330143 -2.22565 1
    endloop
  endfacet
  facet normal 0 0 1
    outer loop
      vertex -0.546705 -2.18257 1
      vertex -2.5 -2.5 1
      vertex -0.438952 -2.20677 1
    endloop
  endfacet
  facet normal 0 0 1
    outer loop
      vertex -0.65314 -2.15312 1
      vertex -2.5 -2.5 1
      vertex -0.546705 -2.18257 1
    endloop
  endfacet
  facet normal 0 0 1
    outer loop
      vertex -0.758001 -2.11847 1
      vertex -2.5 -2.5 1
      vertex -0.65314 -2.15312 1
    endloop
  endfacet
  facet normal 0 0 1
    outer loop
      vertex -0.861037 -2.07873 1
      vertex -2.5 -2.5 1
      vertex -0.758001 -2.11847 1
    endloop
  endfacet
  facet normal 0 0 1
    outer loop
      vertex -0.961999 -2.03398 1
      vertex -2.5 -2.5 1
      vertex -0.861037 -2.07873 1
    endloop
  endfacet
  facet normal 0 0 1
    outer loop
      vertex -1.06064 -1.98432 1
      vertex -2.5 -2.5 1
      vertex -0.961999 -2.03398 1
    endloop
  endfacet
  facet normal 0 0 1
    outer loop
      vertex -1.15673 -1.92989 1
      vertex -2.5 -2.5 1
      vertex -1.06064 -1.98432 1
    endloop
  endfacet
  facet normal 0 0 1
    outer loop
      vertex -1.25003 -1.87081 1
      vertex -2.5 -2.5 1
      vertex -1.15673 -1.92989 1
    endloop
  endfacet
  facet normal 0 0 1
    outer loop
      vertex -1.34032 -1.80722 1
      vertex -2.5 -2.5 1
      vertex -1.25003 -1.87081 1
    endloop
  endfacet
  facet normal 0 0 1
    outer loop
      vertex -1.42738 -1.73927 1
      vertex -2.5 -2.5 1
      vertex -1.34032 -1.80722 1
    endloop
  endfacet
  facet normal 0 0 1
    outer loop
      vertex -1.51101 -1.66714 1
      vertex -2.5 -2.5 1
      vertex -1.42738 -1.73927 1
    endloop
  endfacet
  facet normal 0 0 1
    outer loop
      vertex -1.59099 -1.59099 1
      vertex -2.5 -2.5 1
      vertex -1.51101 -1.66714 1
    endloop
  endfacet
  facet normal 0 0 1
    outer loop
      vertex -1.66714 -1.51101 1
      vertex -2.5 -2.5 1
      vertex -1.59099 -1.59099 1
    endloop
  endfacet
  facet normal 0 0 1
    outer loop
      vertex -1.73927 -1.42738 1
      vertex -2.5 -2.5 1
      vertex -1.66714 -1.51101 1
    endloop
  endfacet
  facet normal 0 0 1
    outer loop
      vertex -1.80722 -1.34032 1
      vertex -2.5 -2.5 1
      vertex -1.73927 -1.42738 1
    endloop
  endfacet
  facet normal 0 0 1
    outer loop
      vertex -1.87081 -1.25003 1
      vertex -2.5 -2.5 1
      vertex -1.80722 -1.34032 1
    endloop
  endfacet
  facet normal 0 0 1
    outer loop
      vertex -1.92989 -1.15673 1
      vertex -2.5 -2.5 1
      vertex -1.87081 -1.25003 1
    endloop
  endfacet
  facet normal 0 0 1
    outer loop
      vertex -1.98432 -1.06064 1
      vertex -2.5 -2.5 1
      vertex -1.92989 -1.15673 1
    endloop
  endfacet
  facet normal 0 0 1
    outer loop
      vertex -2.03398 -0.961999 1
      vertex -2.5 -2.5 1
      vertex -1.98432 -1.06064 1
    endloop
  endfacet
  facet normal 0 0 1
    outer loop
      vertex -2.07873 -0.861037 1
      vertex -2.5 -2.5 1
      vertex -2.03398 -0.961999 1
    endloop
  endfacet
  facet normal 0 0 1
    outer loop
      vertex -2.11847 -0.758001 1
      vertex -2.5 -2.5 1
      vertex -2.07873 -0.861037 1
    endloop
  endfacet
  facet normal 0 0 1
    outer loop
      vertex -2.15312 -0.65314 1
      vertex -2.5 -2.5 1
      vertex -2.11847 -0.758001 1
    endloop
  endfacet
  facet normal 0 0 1
    outer loop
      vertex -2.18257 -0.546705 1
      vertex -2.5 -2.5 1
      vertex -2.15312 -0.65314 1
    endloop
  endfacet
  facet normal 0 0 1
    outer loop
      vertex -2.20677 -0.438952 1
      vertex -2.5 -2.5 1
      vertex -2.18257 -0.546705 1
    endloop
  endfacet
  facet normal 0 0 1
    outer loop
      vertex -2.22565 -0.330143 1
      vertex -2.5 -2.5 1
      vertex -2.20677 -0.438952 1
    endloop
  endfacet
  facet normal 0 0 1
    outer loop
      vertex -2.23917 -0.220538 1
      vertex -2.5 -2.5 1
      vertex -2.22565 -0.330143 1
    endloop
  endfacet
  facet normal 0 0 1
    outer loop
      vertex -2.24729 -0.110402 1
      vertex -2.5 -2.5 1
      vertex -2.23917 -0.220538 1
    endloop
  endfacet
  facet normal 1 -0 0
    outer loop
      vertex 2.5 -2.5 1
      vertex 2.5 2.5 0
      vertex 2.5 2.5 1
    endloop
  endfacet
  facet normal 1 0 0
    outer loop
      vertex 2.5 2.5 0
      vertex 2.5 -2.5 1
      vertex 2.5 -2.5 0
    endloop
  endfacet
  facet normal 0 1 -0
    outer loop
      vertex 2.5 2.5 0
      vertex -2.5 2.5 1
      vertex 2.5 2.5 1
    endloop
  endfacet
  facet normal 0 1 0
    outer loop
      vertex -2.5 2.5 1
      vertex 2.5 2.5 0
      vertex -2.5 2.5 0
    endloop
  endfacet
  facet normal 0 -1 0
    outer loop
      vertex -2.5 -2.5 0
      vertex 2.5 -2.5 1
      vertex -2.5 -2.5 1
    endloop
  endfacet
  facet normal 0 -1 -0
    outer loop
      vertex 2.5 -2.5 1
      vertex -2.5 -2.5 0
      vertex 2.5 -2.5 0
    endloop
  endfacet
endsolid OpenSCAD_Model
