solid OpenSCAD_Model
  facet normal 0.893236 0.449589 0
    outer loop
      vertex 2.16957 1.02613 6
      vertex 2.11661 1.13135 1
      vertex 2.11661 1.13135 6
    endloop
  endfacet
  facet normal 0.893236 0.449589 0
    outer loop
      vertex 2.11661 1.13135 1
      vertex 2.16957 1.02613 6
      vertex 2.16957 1.02613 1
    endloop
  endfacet
  facet normal 0.359935 0.932978 -0
    outer loop
      vertex 0.91844 2.21731 1
      vertex 0.808536 2.25971 6
      vertex 0.91844 2.21731 6
    endloop
  endfacet
  facet normal 0.359935 0.932978 0
    outer loop
      vertex 0.808536 2.25971 6
      vertex 0.91844 2.21731 1
      vertex 0.808536 2.25971 1
    endloop
  endfacet
  facet normal -0.405272 0.914196 0
    outer loop
      vertex -0.91844 2.21731 1
      vertex -1.02613 2.16957 6
      vertex -0.91844 2.21731 6
    endloop
  endfacet
  facet normal -0.405272 0.914196 0
    outer loop
      vertex -1.02613 2.16957 6
      vertex -0.91844 2.21731 1
      vertex -1.02613 2.16957 1
    endloop
  endfacet
  facet normal -0.914196 0.405272 0
    outer loop
      vertex -2.21731 0.91844 1
      vertex -2.16957 1.02613 6
      vertex -2.16957 1.02613 1
    endloop
  endfacet
  facet normal -0.914196 0.405272 0
    outer loop
      vertex -2.16957 1.02613 6
      vertex -2.21731 0.91844 1
      vertex -2.21731 0.91844 6
    endloop
  endfacet
  facet normal 0.534996 0.844855 -0
    outer loop
      vertex 1.33337 1.99553 1
      vertex 1.23385 2.05855 6
      vertex 1.33337 1.99553 6
    endloop
  endfacet
  facet normal 0.534996 0.844855 0
    outer loop
      vertex 1.23385 2.05855 6
      vertex 1.33337 1.99553 1
      vertex 1.23385 2.05855 1
    endloop
  endfacet
  facet normal -0.724295 0.68949 0
    outer loop
      vertex -1.77828 1.61174 1
      vertex -1.69706 1.69706 6
      vertex -1.69706 1.69706 1
    endloop
  endfacet
  facet normal -0.724295 0.68949 0
    outer loop
      vertex -1.69706 1.69706 6
      vertex -1.77828 1.61174 1
      vertex -1.77828 1.61174 6
    endloop
  endfacet
  facet normal -0.219103 0.975702 0
    outer loop
      vertex -0.468216 2.35388 1
      vertex -0.583152 2.32807 6
      vertex -0.468216 2.35388 6
    endloop
  endfacet
  facet normal -0.219103 0.975702 0
    outer loop
      vertex -0.583152 2.32807 6
      vertex -0.468216 2.35388 1
      vertex -0.583152 2.32807 1
    endloop
  endfacet
  facet normal 0.449589 -0.893236 0
    outer loop
      vertex 1.02613 -2.16957 1
      vertex 1.13135 -2.11661 6
      vertex 1.02613 -2.16957 6
    endloop
  endfacet
  facet normal 0.449589 -0.893236 0
    outer loop
      vertex 1.13135 -2.11661 6
      vertex 1.02613 -2.16957 1
      vertex 1.13135 -2.11661 1
    endloop
  endfacet
  facet normal -0.68949 -0.724295 0
    outer loop
      vertex -1.69706 -1.69706 1
      vertex -1.61174 -1.77828 6
      vertex -1.69706 -1.69706 6
    endloop
  endfacet
  facet normal -0.68949 -0.724295 -0
    outer loop
      vertex -1.61174 -1.77828 6
      vertex -1.69706 -1.69706 1
      vertex -1.61174 -1.77828 1
    endloop
  endfacet
  facet normal -0.914196 -0.405272 0
    outer loop
      vertex -2.16957 -1.02613 1
      vertex -2.21731 -0.91844 6
      vertex -2.21731 -0.91844 1
    endloop
  endfacet
  facet normal -0.914196 -0.405272 0
    outer loop
      vertex -2.21731 -0.91844 6
      vertex -2.16957 -1.02613 1
      vertex -2.16957 -1.02613 6
    endloop
  endfacet
  facet normal 0.949531 0.313672 0
    outer loop
      vertex 2.29666 0.696683 6
      vertex 2.25971 0.808536 1
      vertex 2.25971 0.808536 6
    endloop
  endfacet
  facet normal 0.949531 0.313672 0
    outer loop
      vertex 2.25971 0.808536 1
      vertex 2.29666 0.696683 6
      vertex 2.29666 0.696683 1
    endloop
  endfacet
  facet normal 0.817581 0.575813 0
    outer loop
      vertex 1.99553 1.33337 6
      vertex 1.9277 1.42968 1
      vertex 1.9277 1.42968 6
    endloop
  endfacet
  facet normal 0.817581 0.575813 0
    outer loop
      vertex 1.9277 1.42968 1
      vertex 1.99553 1.33337 6
      vertex 1.99553 1.33337 1
    endloop
  endfacet
  facet normal 0.724295 0.68949 0
    outer loop
      vertex 1.77828 1.61174 6
      vertex 1.69706 1.69706 1
      vertex 1.69706 1.69706 6
    endloop
  endfacet
  facet normal 0.724295 0.68949 0
    outer loop
      vertex 1.69706 1.69706 1
      vertex 1.77828 1.61174 6
      vertex 1.77828 1.61174 1
    endloop
  endfacet
  facet normal -0.0245336 0.999699 0
    outer loop
      vertex 0 2.4 1
      vertex -0.117762 2.39711 6
      vertex 0 2.4 6
    endloop
  endfacet
  facet normal -0.0245336 0.999699 0
    outer loop
      vertex -0.117762 2.39711 6
      vertex 0 2.4 1
      vertex -0.117762 2.39711 1
    endloop
  endfacet
  facet normal 0.170971 0.985276 -0
    outer loop
      vertex 0.468216 2.35388 1
      vertex 0.352153 2.37402 6
      vertex 0.468216 2.35388 6
    endloop
  endfacet
  facet normal 0.170971 0.985276 0
    outer loop
      vertex 0.352153 2.37402 6
      vertex 0.468216 2.35388 1
      vertex 0.352153 2.37402 1
    endloop
  endfacet
  facet normal -0.999699 0.0245336 0
    outer loop
      vertex -2.4 0 1
      vertex -2.39711 0.117762 6
      vertex -2.39711 0.117762 1
    endloop
  endfacet
  facet normal -0.999699 0.0245336 0
    outer loop
      vertex -2.39711 0.117762 6
      vertex -2.4 0 1
      vertex -2.4 0 6
    endloop
  endfacet
  facet normal -0.975702 0.219103 0
    outer loop
      vertex -2.35388 0.468216 1
      vertex -2.32807 0.583152 6
      vertex -2.32807 0.583152 1
    endloop
  endfacet
  facet normal -0.975702 0.219103 0
    outer loop
      vertex -2.32807 0.583152 6
      vertex -2.35388 0.468216 1
      vertex -2.35388 0.468216 6
    endloop
  endfacet
  facet normal -0.817581 0.575813 0
    outer loop
      vertex -1.99553 1.33337 1
      vertex -1.9277 1.42968 6
      vertex -1.9277 1.42968 1
    endloop
  endfacet
  facet normal -0.817581 0.575813 0
    outer loop
      vertex -1.9277 1.42968 6
      vertex -1.99553 1.33337 1
      vertex -1.99553 1.33337 6
    endloop
  endfacet
  facet normal -0.534996 0.844855 0
    outer loop
      vertex -1.23385 2.05855 1
      vertex -1.33337 1.99553 6
      vertex -1.23385 2.05855 6
    endloop
  endfacet
  facet normal -0.534996 0.844855 0
    outer loop
      vertex -1.33337 1.99553 6
      vertex -1.23385 2.05855 1
      vertex -1.33337 1.99553 1
    endloop
  endfacet
  facet normal -0.449589 0.893236 0
    outer loop
      vertex -1.02613 2.16957 1
      vertex -1.13135 2.11661 6
      vertex -1.02613 2.16957 6
    endloop
  endfacet
  facet normal -0.449589 0.893236 0
    outer loop
      vertex -1.13135 2.11661 6
      vertex -1.02613 2.16957 1
      vertex -1.13135 2.11661 1
    endloop
  endfacet
  facet normal 0.999699 0.0245336 0
    outer loop
      vertex 2.4 0 6
      vertex 2.39711 0.117762 1
      vertex 2.39711 0.117762 6
    endloop
  endfacet
  facet normal 0.999699 0.0245336 0
    outer loop
      vertex 2.39711 0.117762 1
      vertex 2.4 0 6
      vertex 2.4 0 1
    endloop
  endfacet
  facet normal 0.949531 -0.313672 0
    outer loop
      vertex 2.25971 -0.808536 6
      vertex 2.29666 -0.696683 1
      vertex 2.29666 -0.696683 6
    endloop
  endfacet
  facet normal 0.949531 -0.313672 0
    outer loop
      vertex 2.29666 -0.696683 1
      vertex 2.25971 -0.808536 6
      vertex 2.25971 -0.808536 1
    endloop
  endfacet
  facet normal -0.975702 -0.219103 0
    outer loop
      vertex -2.32807 -0.583152 1
      vertex -2.35388 -0.468216 6
      vertex -2.35388 -0.468216 1
    endloop
  endfacet
  facet normal -0.975702 -0.219103 0
    outer loop
      vertex -2.35388 -0.468216 6
      vertex -2.32807 -0.583152 1
      vertex -2.32807 -0.583152 6
    endloop
  endfacet
  facet normal 0.0736003 -0.997288 0
    outer loop
      vertex 0.117762 -2.39711 1
      vertex 0.235241 -2.38844 6
      vertex 0.117762 -2.39711 6
    endloop
  endfacet
  facet normal 0.0736003 -0.997288 0
    outer loop
      vertex 0.235241 -2.38844 6
      vertex 0.117762 -2.39711 1
      vertex 0.235241 -2.38844 1
    endloop
  endfacet
  facet normal 0.170971 -0.985276 0
    outer loop
      vertex 0.352153 -2.37402 1
      vertex 0.468216 -2.35388 6
      vertex 0.352153 -2.37402 6
    endloop
  endfacet
  facet normal 0.170971 -0.985276 0
    outer loop
      vertex 0.468216 -2.35388 6
      vertex 0.352153 -2.37402 1
      vertex 0.468216 -2.35388 1
    endloop
  endfacet
  facet normal 0.997288 0.0736003 0
    outer loop
      vertex 2.39711 0.117762 6
      vertex 2.38844 0.235241 1
      vertex 2.38844 0.235241 6
    endloop
  endfacet
  facet normal 0.997288 0.0736003 0
    outer loop
      vertex 2.38844 0.235241 1
      vertex 2.39711 0.117762 6
      vertex 2.39711 0.117762 1
    endloop
  endfacet
  facet normal 0.914196 0.405272 0
    outer loop
      vertex 2.21731 0.91844 6
      vertex 2.16957 1.02613 1
      vertex 2.16957 1.02613 6
    endloop
  endfacet
  facet normal 0.914196 0.405272 0
    outer loop
      vertex 2.16957 1.02613 1
      vertex 2.21731 0.91844 6
      vertex 2.21731 0.91844 1
    endloop
  endfacet
  facet normal 0.975702 0.219103 0
    outer loop
      vertex 2.35388 0.468216 6
      vertex 2.32807 0.583152 1
      vertex 2.32807 0.583152 6
    endloop
  endfacet
  facet normal 0.975702 0.219103 0
    outer loop
      vertex 2.32807 0.583152 1
      vertex 2.35388 0.468216 6
      vertex 2.35388 0.468216 1
    endloop
  endfacet
  facet normal 0.870107 0.492863 0
    outer loop
      vertex 2.11661 1.13135 6
      vertex 2.05855 1.23385 1
      vertex 2.05855 1.23385 6
    endloop
  endfacet
  facet normal 0.870107 0.492863 0
    outer loop
      vertex 2.05855 1.23385 1
      vertex 2.11661 1.13135 6
      vertex 2.11661 1.13135 1
    endloop
  endfacet
  facet normal 0.68949 0.724295 -0
    outer loop
      vertex 1.69706 1.69706 1
      vertex 1.61174 1.77828 6
      vertex 1.69706 1.69706 6
    endloop
  endfacet
  facet normal 0.68949 0.724295 0
    outer loop
      vertex 1.61174 1.77828 6
      vertex 1.69706 1.69706 1
      vertex 1.61174 1.77828 1
    endloop
  endfacet
  facet normal 0.844855 0.534996 0
    outer loop
      vertex 2.05855 1.23385 6
      vertex 1.99553 1.33337 1
      vertex 1.99553 1.33337 6
    endloop
  endfacet
  facet normal 0.844855 0.534996 0
    outer loop
      vertex 1.99553 1.33337 1
      vertex 2.05855 1.23385 6
      vertex 2.05855 1.23385 1
    endloop
  endfacet
  facet normal 0.7883 0.615291 0
    outer loop
      vertex 1.9277 1.42968 6
      vertex 1.85522 1.52254 1
      vertex 1.85522 1.52254 6
    endloop
  endfacet
  facet normal 0.7883 0.615291 0
    outer loop
      vertex 1.85522 1.52254 1
      vertex 1.9277 1.42968 6
      vertex 1.9277 1.42968 1
    endloop
  endfacet
  facet normal 0.757228 0.653151 0
    outer loop
      vertex 1.85522 1.52254 6
      vertex 1.77828 1.61174 1
      vertex 1.77828 1.61174 6
    endloop
  endfacet
  facet normal 0.757228 0.653151 0
    outer loop
      vertex 1.77828 1.61174 1
      vertex 1.85522 1.52254 6
      vertex 1.85522 1.52254 1
    endloop
  endfacet
  facet normal 0.0736003 0.997288 -0
    outer loop
      vertex 0.235241 2.38844 1
      vertex 0.117762 2.39711 6
      vertex 0.235241 2.38844 6
    endloop
  endfacet
  facet normal 0.0736003 0.997288 0
    outer loop
      vertex 0.117762 2.39711 6
      vertex 0.235241 2.38844 1
      vertex 0.117762 2.39711 1
    endloop
  endfacet
  facet normal 0.266648 0.963794 -0
    outer loop
      vertex 0.696683 2.29666 1
      vertex 0.583152 2.32807 6
      vertex 0.696683 2.29666 6
    endloop
  endfacet
  facet normal 0.266648 0.963794 0
    outer loop
      vertex 0.583152 2.32807 6
      vertex 0.696683 2.29666 1
      vertex 0.583152 2.32807 1
    endloop
  endfacet
  facet normal 0.313672 0.949531 -0
    outer loop
      vertex 0.808536 2.25971 1
      vertex 0.696683 2.29666 6
      vertex 0.808536 2.25971 6
    endloop
  endfacet
  facet normal 0.313672 0.949531 0
    outer loop
      vertex 0.696683 2.29666 6
      vertex 0.808536 2.25971 1
      vertex 0.696683 2.29666 1
    endloop
  endfacet
  facet normal 0.122413 0.992479 -0
    outer loop
      vertex 0.352153 2.37402 1
      vertex 0.235241 2.38844 6
      vertex 0.352153 2.37402 6
    endloop
  endfacet
  facet normal 0.122413 0.992479 0
    outer loop
      vertex 0.235241 2.38844 6
      vertex 0.352153 2.37402 1
      vertex 0.235241 2.38844 1
    endloop
  endfacet
  facet normal 0.0245336 0.999699 -0
    outer loop
      vertex 0.117762 2.39711 1
      vertex 0 2.4 6
      vertex 0.117762 2.39711 6
    endloop
  endfacet
  facet normal 0.0245336 0.999699 0
    outer loop
      vertex 0 2.4 6
      vertex 0.117762 2.39711 1
      vertex 0 2.4 1
    endloop
  endfacet
  facet normal 0.219103 0.975702 -0
    outer loop
      vertex 0.583152 2.32807 1
      vertex 0.468216 2.35388 6
      vertex 0.583152 2.32807 6
    endloop
  endfacet
  facet normal 0.219103 0.975702 0
    outer loop
      vertex 0.468216 2.35388 6
      vertex 0.583152 2.32807 1
      vertex 0.468216 2.35388 1
    endloop
  endfacet
  facet normal 0.449589 0.893236 -0
    outer loop
      vertex 1.13135 2.11661 1
      vertex 1.02613 2.16957 6
      vertex 1.13135 2.11661 6
    endloop
  endfacet
  facet normal 0.449589 0.893236 0
    outer loop
      vertex 1.02613 2.16957 6
      vertex 1.13135 2.11661 1
      vertex 1.02613 2.16957 1
    endloop
  endfacet
  facet normal 0.492863 0.870107 -0
    outer loop
      vertex 1.23385 2.05855 1
      vertex 1.13135 2.11661 6
      vertex 1.23385 2.05855 6
    endloop
  endfacet
  facet normal 0.492863 0.870107 0
    outer loop
      vertex 1.13135 2.11661 6
      vertex 1.23385 2.05855 1
      vertex 1.13135 2.11661 1
    endloop
  endfacet
  facet normal 0.405272 0.914196 -0
    outer loop
      vertex 1.02613 2.16957 1
      vertex 0.91844 2.21731 6
      vertex 1.02613 2.16957 6
    endloop
  endfacet
  facet normal 0.405272 0.914196 0
    outer loop
      vertex 0.91844 2.21731 6
      vertex 1.02613 2.16957 1
      vertex 0.91844 2.21731 1
    endloop
  endfacet
  facet normal 0.653151 0.757228 -0
    outer loop
      vertex 1.61174 1.77828 1
      vertex 1.52254 1.85522 6
      vertex 1.61174 1.77828 6
    endloop
  endfacet
  facet normal 0.653151 0.757228 0
    outer loop
      vertex 1.52254 1.85522 6
      vertex 1.61174 1.77828 1
      vertex 1.52254 1.85522 1
    endloop
  endfacet
  facet normal 0.575813 0.817581 -0
    outer loop
      vertex 1.42968 1.9277 1
      vertex 1.33337 1.99553 6
      vertex 1.42968 1.9277 6
    endloop
  endfacet
  facet normal 0.575813 0.817581 0
    outer loop
      vertex 1.33337 1.99553 6
      vertex 1.42968 1.9277 1
      vertex 1.33337 1.99553 1
    endloop
  endfacet
  facet normal 0.615291 0.7883 -0
    outer loop
      vertex 1.52254 1.85522 1
      vertex 1.42968 1.9277 6
      vertex 1.52254 1.85522 6
    endloop
  endfacet
  facet normal 0.615291 0.7883 0
    outer loop
      vertex 1.42968 1.9277 6
      vertex 1.52254 1.85522 1
      vertex 1.42968 1.9277 1
    endloop
  endfacet
  facet normal -0.949531 0.313672 0
    outer loop
      vertex -2.29666 0.696683 1
      vertex -2.25971 0.808536 6
      vertex -2.25971 0.808536 1
    endloop
  endfacet
  facet normal -0.949531 0.313672 0
    outer loop
      vertex -2.25971 0.808536 6
      vertex -2.29666 0.696683 1
      vertex -2.29666 0.696683 6
    endloop
  endfacet
  facet normal -0.932978 0.359935 0
    outer loop
      vertex -2.25971 0.808536 1
      vertex -2.21731 0.91844 6
      vertex -2.21731 0.91844 1
    endloop
  endfacet
  facet normal -0.932978 0.359935 0
    outer loop
      vertex -2.21731 0.91844 6
      vertex -2.25971 0.808536 1
      vertex -2.25971 0.808536 6
    endloop
  endfacet
  facet normal -0.992479 0.122413 0
    outer loop
      vertex -2.38844 0.235241 1
      vertex -2.37402 0.352153 6
      vertex -2.37402 0.352153 1
    endloop
  endfacet
  facet normal -0.992479 0.122413 0
    outer loop
      vertex -2.37402 0.352153 6
      vertex -2.38844 0.235241 1
      vertex -2.38844 0.235241 6
    endloop
  endfacet
  facet normal -0.997288 0.0736003 0
    outer loop
      vertex -2.39711 0.117762 1
      vertex -2.38844 0.235241 6
      vertex -2.38844 0.235241 1
    endloop
  endfacet
  facet normal -0.997288 0.0736003 0
    outer loop
      vertex -2.38844 0.235241 6
      vertex -2.39711 0.117762 1
      vertex -2.39711 0.117762 6
    endloop
  endfacet
  facet normal -0.963794 0.266648 0
    outer loop
      vertex -2.32807 0.583152 1
      vertex -2.29666 0.696683 6
      vertex -2.29666 0.696683 1
    endloop
  endfacet
  facet normal -0.963794 0.266648 0
    outer loop
      vertex -2.29666 0.696683 6
      vertex -2.32807 0.583152 1
      vertex -2.32807 0.583152 6
    endloop
  endfacet
  facet normal -0.870107 0.492863 0
    outer loop
      vertex -2.11661 1.13135 1
      vertex -2.05855 1.23385 6
      vertex -2.05855 1.23385 1
    endloop
  endfacet
  facet normal -0.870107 0.492863 0
    outer loop
      vertex -2.05855 1.23385 6
      vertex -2.11661 1.13135 1
      vertex -2.11661 1.13135 6
    endloop
  endfacet
  facet normal -0.893236 0.449589 0
    outer loop
      vertex -2.16957 1.02613 1
      vertex -2.11661 1.13135 6
      vertex -2.11661 1.13135 1
    endloop
  endfacet
  facet normal -0.893236 0.449589 0
    outer loop
      vertex -2.11661 1.13135 6
      vertex -2.16957 1.02613 1
      vertex -2.16957 1.02613 6
    endloop
  endfacet
  facet normal -0.757228 0.653151 0
    outer loop
      vertex -1.85522 1.52254 1
      vertex -1.77828 1.61174 6
      vertex -1.77828 1.61174 1
    endloop
  endfacet
  facet normal -0.757228 0.653151 0
    outer loop
      vertex -1.77828 1.61174 6
      vertex -1.85522 1.52254 1
      vertex -1.85522 1.52254 6
    endloop
  endfacet
  facet normal -0.7883 0.615291 0
    outer loop
      vertex -1.9277 1.42968 1
      vertex -1.85522 1.52254 6
      vertex -1.85522 1.52254 1
    endloop
  endfacet
  facet normal -0.7883 0.615291 0
    outer loop
      vertex -1.85522 1.52254 6
      vertex -1.9277 1.42968 1
      vertex -1.9277 1.42968 6
    endloop
  endfacet
  facet normal -0.313672 0.949531 0
    outer loop
      vertex -0.696683 2.29666 1
      vertex -0.808536 2.25971 6
      vertex -0.696683 2.29666 6
    endloop
  endfacet
  facet normal -0.313672 0.949531 0
    outer loop
      vertex -0.808536 2.25971 6
      vertex -0.696683 2.29666 1
      vertex -0.808536 2.25971 1
    endloop
  endfacet
  facet normal -0.359935 0.932978 0
    outer loop
      vertex -0.808536 2.25971 1
      vertex -0.91844 2.21731 6
      vertex -0.808536 2.25971 6
    endloop
  endfacet
  facet normal -0.359935 0.932978 0
    outer loop
      vertex -0.91844 2.21731 6
      vertex -0.808536 2.25971 1
      vertex -0.91844 2.21731 1
    endloop
  endfacet
  facet normal -0.0736003 0.997288 0
    outer loop
      vertex -0.117762 2.39711 1
      vertex -0.235241 2.38844 6
      vertex -0.117762 2.39711 6
    endloop
  endfacet
  facet normal -0.0736003 0.997288 0
    outer loop
      vertex -0.235241 2.38844 6
      vertex -0.117762 2.39711 1
      vertex -0.235241 2.38844 1
    endloop
  endfacet
  facet normal -0.122413 0.992479 0
    outer loop
      vertex -0.235241 2.38844 1
      vertex -0.352153 2.37402 6
      vertex -0.235241 2.38844 6
    endloop
  endfacet
  facet normal -0.122413 0.992479 0
    outer loop
      vertex -0.352153 2.37402 6
      vertex -0.235241 2.38844 1
      vertex -0.352153 2.37402 1
    endloop
  endfacet
  facet normal -0.492863 0.870107 0
    outer loop
      vertex -1.13135 2.11661 1
      vertex -1.23385 2.05855 6
      vertex -1.13135 2.11661 6
    endloop
  endfacet
  facet normal -0.492863 0.870107 0
    outer loop
      vertex -1.23385 2.05855 6
      vertex -1.13135 2.11661 1
      vertex -1.23385 2.05855 1
    endloop
  endfacet
  facet normal -0.615291 0.7883 0
    outer loop
      vertex -1.42968 1.9277 1
      vertex -1.52254 1.85522 6
      vertex -1.42968 1.9277 6
    endloop
  endfacet
  facet normal -0.615291 0.7883 0
    outer loop
      vertex -1.52254 1.85522 6
      vertex -1.42968 1.9277 1
      vertex -1.52254 1.85522 1
    endloop
  endfacet
  facet normal -0.653151 0.757228 0
    outer loop
      vertex -1.52254 1.85522 1
      vertex -1.61174 1.77828 6
      vertex -1.52254 1.85522 6
    endloop
  endfacet
  facet normal -0.653151 0.757228 0
    outer loop
      vertex -1.61174 1.77828 6
      vertex -1.52254 1.85522 1
      vertex -1.61174 1.77828 1
    endloop
  endfacet
  facet normal -0.575813 0.817581 0
    outer loop
      vertex -1.33337 1.99553 1
      vertex -1.42968 1.9277 6
      vertex -1.33337 1.99553 6
    endloop
  endfacet
  facet normal -0.575813 0.817581 0
    outer loop
      vertex -1.42968 1.9277 6
      vertex -1.33337 1.99553 1
      vertex -1.42968 1.9277 1
    endloop
  endfacet
  facet normal -0.68949 0.724295 0
    outer loop
      vertex -1.61174 1.77828 1
      vertex -1.69706 1.69706 6
      vertex -1.61174 1.77828 6
    endloop
  endfacet
  facet normal -0.68949 0.724295 0
    outer loop
      vertex -1.69706 1.69706 6
      vertex -1.61174 1.77828 1
      vertex -1.69706 1.69706 1
    endloop
  endfacet
  facet normal 0.992479 -0.122413 0
    outer loop
      vertex 2.37402 -0.352153 6
      vertex 2.38844 -0.235241 1
      vertex 2.38844 -0.235241 6
    endloop
  endfacet
  facet normal 0.992479 -0.122413 0
    outer loop
      vertex 2.38844 -0.235241 1
      vertex 2.37402 -0.352153 6
      vertex 2.37402 -0.352153 1
    endloop
  endfacet
  facet normal 0.932978 -0.359935 0
    outer loop
      vertex 2.21731 -0.91844 6
      vertex 2.25971 -0.808536 1
      vertex 2.25971 -0.808536 6
    endloop
  endfacet
  facet normal 0.932978 -0.359935 0
    outer loop
      vertex 2.25971 -0.808536 1
      vertex 2.21731 -0.91844 6
      vertex 2.21731 -0.91844 1
    endloop
  endfacet
  facet normal -0.992479 -0.122413 0
    outer loop
      vertex -2.37402 -0.352153 1
      vertex -2.38844 -0.235241 6
      vertex -2.38844 -0.235241 1
    endloop
  endfacet
  facet normal -0.992479 -0.122413 0
    outer loop
      vertex -2.38844 -0.235241 6
      vertex -2.37402 -0.352153 1
      vertex -2.37402 -0.352153 6
    endloop
  endfacet
  facet normal -0.757228 -0.653151 0
    outer loop
      vertex -1.77828 -1.61174 1
      vertex -1.85522 -1.52254 6
      vertex -1.85522 -1.52254 1
    endloop
  endfacet
  facet normal -0.757228 -0.653151 0
    outer loop
      vertex -1.85522 -1.52254 6
      vertex -1.77828 -1.61174 1
      vertex -1.77828 -1.61174 6
    endloop
  endfacet
  facet normal 0.359935 -0.932978 0
    outer loop
      vertex 0.808536 -2.25971 1
      vertex 0.91844 -2.21731 6
      vertex 0.808536 -2.25971 6
    endloop
  endfacet
  facet normal 0.359935 -0.932978 0
    outer loop
      vertex 0.91844 -2.21731 6
      vertex 0.808536 -2.25971 1
      vertex 0.91844 -2.21731 1
    endloop
  endfacet
  facet normal 0.405272 -0.914196 0
    outer loop
      vertex 0.91844 -2.21731 1
      vertex 1.02613 -2.16957 6
      vertex 0.91844 -2.21731 6
    endloop
  endfacet
  facet normal 0.405272 -0.914196 0
    outer loop
      vertex 1.02613 -2.16957 6
      vertex 0.91844 -2.21731 1
      vertex 1.02613 -2.16957 1
    endloop
  endfacet
  facet normal 0.963794 0.266648 0
    outer loop
      vertex 2.32807 0.583152 6
      vertex 2.29666 0.696683 1
      vertex 2.29666 0.696683 6
    endloop
  endfacet
  facet normal 0.963794 0.266648 0
    outer loop
      vertex 2.29666 0.696683 1
      vertex 2.32807 0.583152 6
      vertex 2.32807 0.583152 1
    endloop
  endfacet
  facet normal 0.932978 0.359935 0
    outer loop
      vertex 2.25971 0.808536 6
      vertex 2.21731 0.91844 1
      vertex 2.21731 0.91844 6
    endloop
  endfacet
  facet normal 0.932978 0.359935 0
    outer loop
      vertex 2.21731 0.91844 1
      vertex 2.25971 0.808536 6
      vertex 2.25971 0.808536 1
    endloop
  endfacet
  facet normal 0.992479 0.122413 0
    outer loop
      vertex 2.38844 0.235241 6
      vertex 2.37402 0.352153 1
      vertex 2.37402 0.352153 6
    endloop
  endfacet
  facet normal 0.992479 0.122413 0
    outer loop
      vertex 2.37402 0.352153 1
      vertex 2.38844 0.235241 6
      vertex 2.38844 0.235241 1
    endloop
  endfacet
  facet normal 0.985276 0.170971 0
    outer loop
      vertex 2.37402 0.352153 6
      vertex 2.35388 0.468216 1
      vertex 2.35388 0.468216 6
    endloop
  endfacet
  facet normal 0.985276 0.170971 0
    outer loop
      vertex 2.35388 0.468216 1
      vertex 2.37402 0.352153 6
      vertex 2.37402 0.352153 1
    endloop
  endfacet
  facet normal 0 0 1
    outer loop
      vertex 2.39711 0.117762 6
      vertex 2.39711 -0.117762 6
      vertex 2.4 0 6
    endloop
  endfacet
  facet normal 0 0 1
    outer loop
      vertex 2.38844 0.235241 6
      vertex 2.39711 -0.117762 6
      vertex 2.39711 0.117762 6
    endloop
  endfacet
  facet normal 0 0 1
    outer loop
      vertex 2.38844 0.235241 6
      vertex 2.38844 -0.235241 6
      vertex 2.39711 -0.117762 6
    endloop
  endfacet
  facet normal 0 0 1
    outer loop
      vertex 2.37402 0.352153 6
      vertex 2.38844 -0.235241 6
      vertex 2.38844 0.235241 6
    endloop
  endfacet
  facet normal 0 0 1
    outer loop
      vertex 2.37402 0.352153 6
      vertex 2.37402 -0.352153 6
      vertex 2.38844 -0.235241 6
    endloop
  endfacet
  facet normal 0 0 1
    outer loop
      vertex 2.35388 0.468216 6
      vertex 2.37402 -0.352153 6
      vertex 2.37402 0.352153 6
    endloop
  endfacet
  facet normal 0 0 1
    outer loop
      vertex 2.35388 0.468216 6
      vertex 2.35388 -0.468216 6
      vertex 2.37402 -0.352153 6
    endloop
  endfacet
  facet normal 0 0 1
    outer loop
      vertex 2.32807 0.583152 6
      vertex 2.35388 -0.468216 6
      vertex 2.35388 0.468216 6
    endloop
  endfacet
  facet normal 0 0 1
    outer loop
      vertex 2.32807 0.583152 6
      vertex 2.32807 -0.583152 6
      vertex 2.35388 -0.468216 6
    endloop
  endfacet
  facet normal 0 0 1
    outer loop
      vertex 2.29666 0.696683 6
      vertex 2.32807 -0.583152 6
      vertex 2.32807 0.583152 6
    endloop
  endfacet
  facet normal 0 0 1
    outer loop
      vertex 2.29666 0.696683 6
      vertex 2.29666 -0.696683 6
      vertex 2.32807 -0.583152 6
    endloop
  endfacet
  facet normal 0 0 1
    outer loop
      vertex 2.25971 0.808536 6
      vertex 2.29666 -0.696683 6
      vertex 2.29666 0.696683 6
    endloop
  endfacet
  facet normal 0 0 1
    outer loop
      vertex 2.25971 0.808536 6
      vertex 2.25971 -0.808536 6
      vertex 2.29666 -0.696683 6
    endloop
  endfacet
  facet normal 0 0 1
    outer loop
      vertex 2.21731 0.91844 6
      vertex 2.25971 -0.808536 6
      vertex 2.25971 0.808536 6
    endloop
  endfacet
  facet normal 0 0 1
    outer loop
      vertex 2.21731 0.91844 6
      vertex 2.21731 -0.91844 6
      vertex 2.25971 -0.808536 6
    endloop
  endfacet
  facet normal 0 0 1
    outer loop
      vertex 2.16957 1.02613 6
      vertex 2.21731 -0.91844 6
      vertex 2.21731 0.91844 6
    endloop
  endfacet
  facet normal 0 0 1
    outer loop
      vertex 2.16957 1.02613 6
      vertex 2.16957 -1.02613 6
      vertex 2.21731 -0.91844 6
    endloop
  endfacet
  facet normal 0 0 1
    outer loop
      vertex 2.11661 1.13135 6
      vertex 2.16957 -1.02613 6
      vertex 2.16957 1.02613 6
    endloop
  endfacet
  facet normal 0 0 1
    outer loop
      vertex 2.11661 1.13135 6
      vertex 2.11661 -1.13135 6
      vertex 2.16957 -1.02613 6
    endloop
  endfacet
  facet normal 0 0 1
    outer loop
      vertex 2.05855 1.23385 6
      vertex 2.11661 -1.13135 6
      vertex 2.11661 1.13135 6
    endloop
  endfacet
  facet normal 0 0 1
    outer loop
      vertex 2.05855 1.23385 6
      vertex 2.05855 -1.23385 6
      vertex 2.11661 -1.13135 6
    endloop
  endfacet
  facet normal 0 0 1
    outer loop
      vertex 1.99553 1.33337 6
      vertex 2.05855 -1.23385 6
      vertex 2.05855 1.23385 6
    endloop
  endfacet
  facet normal 0 0 1
    outer loop
      vertex 1.99553 1.33337 6
      vertex 1.99553 -1.33337 6
      vertex 2.05855 -1.23385 6
    endloop
  endfacet
  facet normal 0 0 1
    outer loop
      vertex 1.9277 1.42968 6
      vertex 1.99553 -1.33337 6
      vertex 1.99553 1.33337 6
    endloop
  endfacet
  facet normal 0 0 1
    outer loop
      vertex 1.9277 1.42968 6
      vertex 1.9277 -1.42968 6
      vertex 1.99553 -1.33337 6
    endloop
  endfacet
  facet normal 0 0 1
    outer loop
      vertex 1.85522 1.52254 6
      vertex 1.9277 -1.42968 6
      vertex 1.9277 1.42968 6
    endloop
  endfacet
  facet normal 0 0 1
    outer loop
      vertex 1.85522 1.52254 6
      vertex 1.85522 -1.52254 6
      vertex 1.9277 -1.42968 6
    endloop
  endfacet
  facet normal 0 0 1
    outer loop
      vertex 1.77828 1.61174 6
      vertex 1.85522 -1.52254 6
      vertex 1.85522 1.52254 6
    endloop
  endfacet
  facet normal 0 0 1
    outer loop
      vertex 1.77828 1.61174 6
      vertex 1.77828 -1.61174 6
      vertex 1.85522 -1.52254 6
    endloop
  endfacet
  facet normal 0 0 1
    outer loop
      vertex 1.69706 1.69706 6
      vertex 1.77828 -1.61174 6
      vertex 1.77828 1.61174 6
    endloop
  endfacet
  facet normal 0 0 1
    outer loop
      vertex 1.69706 1.69706 6
      vertex 1.69706 -1.69706 6
      vertex 1.77828 -1.61174 6
    endloop
  endfacet
  facet normal 0 0 1
    outer loop
      vertex 1.61174 1.77828 6
      vertex 1.69706 -1.69706 6
      vertex 1.69706 1.69706 6
    endloop
  endfacet
  facet normal 0 0 1
    outer loop
      vertex 1.61174 1.77828 6
      vertex 1.61174 -1.77828 6
      vertex 1.69706 -1.69706 6
    endloop
  endfacet
  facet normal 0 0 1
    outer loop
      vertex 1.52254 1.85522 6
      vertex 1.61174 -1.77828 6
      vertex 1.61174 1.77828 6
    endloop
  endfacet
  facet normal 0 0 1
    outer loop
      vertex 1.52254 1.85522 6
      vertex 1.52254 -1.85522 6
      vertex 1.61174 -1.77828 6
    endloop
  endfacet
  facet normal 0 0 1
    outer loop
      vertex 1.42968 1.9277 6
      vertex 1.52254 -1.85522 6
      vertex 1.52254 1.85522 6
    endloop
  endfacet
  facet normal 0 0 1
    outer loop
      vertex 1.42968 1.9277 6
      vertex 1.42968 -1.9277 6
      vertex 1.52254 -1.85522 6
    endloop
  endfacet
  facet normal 0 0 1
    outer loop
      vertex 1.33337 1.99553 6
      vertex 1.42968 -1.9277 6
      vertex 1.42968 1.9277 6
    endloop
  endfacet
  facet normal 0 0 1
    outer loop
      vertex 1.33337 1.99553 6
      vertex 1.33337 -1.99553 6
      vertex 1.42968 -1.9277 6
    endloop
  endfacet
  facet normal 0 0 1
    outer loop
      vertex 1.23385 2.05855 6
      vertex 1.33337 -1.99553 6
      vertex 1.33337 1.99553 6
    endloop
  endfacet
  facet normal 0 0 1
    outer loop
      vertex 1.23385 2.05855 6
      vertex 1.23385 -2.05855 6
      vertex 1.33337 -1.99553 6
    endloop
  endfacet
  facet normal 0 0 1
    outer loop
      vertex 1.13135 2.11661 6
      vertex 1.23385 -2.05855 6
      vertex 1.23385 2.05855 6
    endloop
  endfacet
  facet normal 0 0 1
    outer loop
      vertex 1.13135 2.11661 6
      vertex 1.13135 -2.11661 6
      vertex 1.23385 -2.05855 6
    endloop
  endfacet
  facet normal 0 0 1
    outer loop
      vertex 1.02613 2.16957 6
      vertex 1.13135 -2.11661 6
      vertex 1.13135 2.11661 6
    endloop
  endfacet
  facet normal 0 0 1
    outer loop
      vertex 1.02613 2.16957 6
      vertex 1.02613 -2.16957 6
      vertex 1.13135 -2.11661 6
    endloop
  endfacet
  facet normal 0 0 1
    outer loop
      vertex 0.91844 2.21731 6
      vertex 1.02613 -2.16957 6
      vertex 1.02613 2.16957 6
    endloop
  endfacet
  facet normal 0 0 1
    outer loop
      vertex 0.91844 2.21731 6
      vertex 0.91844 -2.21731 6
      vertex 1.02613 -2.16957 6
    endloop
  endfacet
  facet normal 0 0 1
    outer loop
      vertex 0.808536 2.25971 6
      vertex 0.91844 -2.21731 6
      vertex 0.91844 2.21731 6
    endloop
  endfacet
  facet normal 0 0 1
    outer loop
      vertex 0.808536 2.25971 6
      vertex 0.808536 -2.25971 6
      vertex 0.91844 -2.21731 6
    endloop
  endfacet
  facet normal 0 0 1
    outer loop
      vertex 0.696683 2.29666 6
      vertex 0.808536 -2.25971 6
      vertex 0.808536 2.25971 6
    endloop
  endfacet
  facet normal 0 0 1
    outer loop
      vertex 0.696683 2.29666 6
      vertex 0.696683 -2.29666 6
      vertex 0.808536 -2.25971 6
    endloop
  endfacet
  facet normal 0 0 1
    outer loop
      vertex 0.583152 2.32807 6
      vertex 0.696683 -2.29666 6
      vertex 0.696683 2.29666 6
    endloop
  endfacet
  facet normal 0 0 1
    outer loop
      vertex 0.583152 2.32807 6
      vertex 0.583152 -2.32807 6
      vertex 0.696683 -2.29666 6
    endloop
  endfacet
  facet normal 0 0 1
    outer loop
      vertex 0.468216 2.35388 6
      vertex 0.583152 -2.32807 6
      vertex 0.583152 2.32807 6
    endloop
  endfacet
  facet normal 0 0 1
    outer loop
      vertex 0.468216 2.35388 6
      vertex 0.468216 -2.35388 6
      vertex 0.583152 -2.32807 6
    endloop
  endfacet
  facet normal 0 0 1
    outer loop
      vertex 0.352153 2.37402 6
      vertex 0.468216 -2.35388 6
      vertex 0.468216 2.35388 6
    endloop
  endfacet
  facet normal 0 0 1
    outer loop
      vertex 0.352153 2.37402 6
      vertex 0.352153 -2.37402 6
      vertex 0.468216 -2.35388 6
    endloop
  endfacet
  facet normal 0 0 1
    outer loop
      vertex 0.235241 2.38844 6
      vertex 0.352153 -2.37402 6
      vertex 0.352153 2.37402 6
    endloop
  endfacet
  facet normal 0 0 1
    outer loop
      vertex 0.235241 2.38844 6
      vertex 0.235241 -2.38844 6
      vertex 0.352153 -2.37402 6
    endloop
  endfacet
  facet normal 0 0 1
    outer loop
      vertex 0.117762 2.39711 6
      vertex 0.235241 -2.38844 6
      vertex 0.235241 2.38844 6
    endloop
  endfacet
  facet normal 0 0 1
    outer loop
      vertex 0.117762 2.39711 6
      vertex 0.117762 -2.39711 6
      vertex 0.235241 -2.38844 6
    endloop
  endfacet
  facet normal 0 0 1
    outer loop
      vertex 0 2.4 6
      vertex 0.117762 -2.39711 6
      vertex 0.117762 2.39711 6
    endloop
  endfacet
  facet normal 0 0 1
    outer loop
      vertex 0 2.4 6
      vertex 0 -2.4 6
      vertex 0.117762 -2.39711 6
    endloop
  endfacet
  facet normal -0 0 1
    outer loop
      vertex -0.117762 2.39711 6
      vertex 0 -2.4 6
      vertex 0 2.4 6
    endloop
  endfacet
  facet normal 0 0 1
    outer loop
      vertex -0.117762 2.39711 6
      vertex -0.117762 -2.39711 6
      vertex 0 -2.4 6
    endloop
  endfacet
  facet normal -0 0 1
    outer loop
      vertex -0.235241 2.38844 6
      vertex -0.117762 -2.39711 6
      vertex -0.117762 2.39711 6
    endloop
  endfacet
  facet normal 0 0 1
    outer loop
      vertex -0.235241 2.38844 6
      vertex -0.235241 -2.38844 6
      vertex -0.117762 -2.39711 6
    endloop
  endfacet
  facet normal -0 0 1
    outer loop
      vertex -0.352153 2.37402 6
      vertex -0.235241 -2.38844 6
      vertex -0.235241 2.38844 6
    endloop
  endfacet
  facet normal 0 0 1
    outer loop
      vertex -0.352153 2.37402 6
      vertex -0.352153 -2.37402 6
      vertex -0.235241 -2.38844 6
    endloop
  endfacet
  facet normal -0 0 1
    outer loop
      vertex -0.468216 2.35388 6
      vertex -0.352153 -2.37402 6
      vertex -0.352153 2.37402 6
    endloop
  endfacet
  facet normal 0 0 1
    outer loop
      vertex -0.468216 2.35388 6
      vertex -0.468216 -2.35388 6
      vertex -0.352153 -2.37402 6
    endloop
  endfacet
  facet normal -0 0 1
    outer loop
      vertex -0.583152 2.32807 6
      vertex -0.468216 -2.35388 6
      vertex -0.468216 2.35388 6
    endloop
  endfacet
  facet normal 0 0 1
    outer loop
      vertex -0.583152 2.32807 6
      vertex -0.583152 -2.32807 6
      vertex -0.468216 -2.35388 6
    endloop
  endfacet
  facet normal -0 0 1
    outer loop
      vertex -0.696683 2.29666 6
      vertex -0.583152 -2.32807 6
      vertex -0.583152 2.32807 6
    endloop
  endfacet
  facet normal 0 0 1
    outer loop
      vertex -0.696683 2.29666 6
      vertex -0.696683 -2.29666 6
      vertex -0.583152 -2.32807 6
    endloop
  endfacet
  facet normal -0 0 1
    outer loop
      vertex -0.808536 2.25971 6
      vertex -0.696683 -2.29666 6
      vertex -0.696683 2.29666 6
    endloop
  endfacet
  facet normal 0 0 1
    outer loop
      vertex -0.808536 2.25971 6
      vertex -0.808536 -2.25971 6
      vertex -0.696683 -2.29666 6
    endloop
  endfacet
  facet normal -0 0 1
    outer loop
      vertex -0.91844 2.21731 6
      vertex -0.808536 -2.25971 6
      vertex -0.808536 2.25971 6
    endloop
  endfacet
  facet normal 0 0 1
    outer loop
      vertex -0.91844 2.21731 6
      vertex -0.91844 -2.21731 6
      vertex -0.808536 -2.25971 6
    endloop
  endfacet
  facet normal -0 0 1
    outer loop
      vertex -1.02613 2.16957 6
      vertex -0.91844 -2.21731 6
      vertex -0.91844 2.21731 6
    endloop
  endfacet
  facet normal 0 0 1
    outer loop
      vertex -1.02613 2.16957 6
      vertex -1.02613 -2.16957 6
      vertex -0.91844 -2.21731 6
    endloop
  endfacet
  facet normal -0 0 1
    outer loop
      vertex -1.13135 2.11661 6
      vertex -1.02613 -2.16957 6
      vertex -1.02613 2.16957 6
    endloop
  endfacet
  facet normal 0 0 1
    outer loop
      vertex -1.13135 2.11661 6
      vertex -1.13135 -2.11661 6
      vertex -1.02613 -2.16957 6
    endloop
  endfacet
  facet normal -0 0 1
    outer loop
      vertex -1.23385 2.05855 6
      vertex -1.13135 -2.11661 6
      vertex -1.13135 2.11661 6
    endloop
  endfacet
  facet normal 0 0 1
    outer loop
      vertex -1.23385 2.05855 6
      vertex -1.23385 -2.05855 6
      vertex -1.13135 -2.11661 6
    endloop
  endfacet
  facet normal -0 0 1
    outer loop
      vertex -1.33337 1.99553 6
      vertex -1.23385 -2.05855 6
      vertex -1.23385 2.05855 6
    endloop
  endfacet
  facet normal 0 0 1
    outer loop
      vertex -1.33337 1.99553 6
      vertex -1.33337 -1.99553 6
      vertex -1.23385 -2.05855 6
    endloop
  endfacet
  facet normal -0 0 1
    outer loop
      vertex -1.42968 1.9277 6
      vertex -1.33337 -1.99553 6
      vertex -1.33337 1.99553 6
    endloop
  endfacet
  facet normal 0 0 1
    outer loop
      vertex -1.42968 1.9277 6
      vertex -1.42968 -1.9277 6
      vertex -1.33337 -1.99553 6
    endloop
  endfacet
  facet normal -0 0 1
    outer loop
      vertex -1.52254 1.85522 6
      vertex -1.42968 -1.9277 6
      vertex -1.42968 1.9277 6
    endloop
  endfacet
  facet normal 0 0 1
    outer loop
      vertex -1.52254 1.85522 6
      vertex -1.52254 -1.85522 6
      vertex -1.42968 -1.9277 6
    endloop
  endfacet
  facet normal -0 0 1
    outer loop
      vertex -1.61174 1.77828 6
      vertex -1.52254 -1.85522 6
      vertex -1.52254 1.85522 6
    endloop
  endfacet
  facet normal 0 0 1
    outer loop
      vertex -1.61174 1.77828 6
      vertex -1.61174 -1.77828 6
      vertex -1.52254 -1.85522 6
    endloop
  endfacet
  facet normal -0 0 1
    outer loop
      vertex -1.69706 1.69706 6
      vertex -1.61174 -1.77828 6
      vertex -1.61174 1.77828 6
    endloop
  endfacet
  facet normal 0 0 1
    outer loop
      vertex -1.69706 1.69706 6
      vertex -1.69706 -1.69706 6
      vertex -1.61174 -1.77828 6
    endloop
  endfacet
  facet normal -0 0 1
    outer loop
      vertex -1.77828 1.61174 6
      vertex -1.69706 -1.69706 6
      vertex -1.69706 1.69706 6
    endloop
  endfacet
  facet normal 0 0 1
    outer loop
      vertex -1.77828 1.61174 6
      vertex -1.77828 -1.61174 6
      vertex -1.69706 -1.69706 6
    endloop
  endfacet
  facet normal -0 0 1
    outer loop
      vertex -1.85522 1.52254 6
      vertex -1.77828 -1.61174 6
      vertex -1.77828 1.61174 6
    endloop
  endfacet
  facet normal 0 0 1
    outer loop
      vertex -1.85522 1.52254 6
      vertex -1.85522 -1.52254 6
      vertex -1.77828 -1.61174 6
    endloop
  endfacet
  facet normal -0 0 1
    outer loop
      vertex -1.9277 1.42968 6
      vertex -1.85522 -1.52254 6
      vertex -1.85522 1.52254 6
    endloop
  endfacet
  facet normal 0 0 1
    outer loop
      vertex -1.9277 1.42968 6
      vertex -1.9277 -1.42968 6
      vertex -1.85522 -1.52254 6
    endloop
  endfacet
  facet normal -0 0 1
    outer loop
      vertex -1.99553 1.33337 6
      vertex -1.9277 -1.42968 6
      vertex -1.9277 1.42968 6
    endloop
  endfacet
  facet normal 0 0 1
    outer loop
      vertex -1.99553 1.33337 6
      vertex -1.99553 -1.33337 6
      vertex -1.9277 -1.42968 6
    endloop
  endfacet
  facet normal -0 0 1
    outer loop
      vertex -2.05855 1.23385 6
      vertex -1.99553 -1.33337 6
      vertex -1.99553 1.33337 6
    endloop
  endfacet
  facet normal 0 0 1
    outer loop
      vertex -2.05855 1.23385 6
      vertex -2.05855 -1.23385 6
      vertex -1.99553 -1.33337 6
    endloop
  endfacet
  facet normal -0 0 1
    outer loop
      vertex -2.11661 1.13135 6
      vertex -2.05855 -1.23385 6
      vertex -2.05855 1.23385 6
    endloop
  endfacet
  facet normal 0 0 1
    outer loop
      vertex -2.11661 1.13135 6
      vertex -2.11661 -1.13135 6
      vertex -2.05855 -1.23385 6
    endloop
  endfacet
  facet normal -0 0 1
    outer loop
      vertex -2.16957 1.02613 6
      vertex -2.11661 -1.13135 6
      vertex -2.11661 1.13135 6
    endloop
  endfacet
  facet normal 0 0 1
    outer loop
      vertex -2.16957 1.02613 6
      vertex -2.16957 -1.02613 6
      vertex -2.11661 -1.13135 6
    endloop
  endfacet
  facet normal -0 0 1
    outer loop
      vertex -2.21731 0.91844 6
      vertex -2.16957 -1.02613 6
      vertex -2.16957 1.02613 6
    endloop
  endfacet
  facet normal 0 0 1
    outer loop
      vertex -2.21731 0.91844 6
      vertex -2.21731 -0.91844 6
      vertex -2.16957 -1.02613 6
    endloop
  endfacet
  facet normal -0 0 1
    outer loop
      vertex -2.25971 0.808536 6
      vertex -2.21731 -0.91844 6
      vertex -2.21731 0.91844 6
    endloop
  endfacet
  facet normal 0 0 1
    outer loop
      vertex -2.25971 0.808536 6
      vertex -2.25971 -0.808536 6
      vertex -2.21731 -0.91844 6
    endloop
  endfacet
  facet normal -0 0 1
    outer loop
      vertex -2.29666 0.696683 6
      vertex -2.25971 -0.808536 6
      vertex -2.25971 0.808536 6
    endloop
  endfacet
  facet normal 0 0 1
    outer loop
      vertex -2.29666 0.696683 6
      vertex -2.29666 -0.696683 6
      vertex -2.25971 -0.808536 6
    endloop
  endfacet
  facet normal -0 0 1
    outer loop
      vertex -2.32807 0.583152 6
      vertex -2.29666 -0.696683 6
      vertex -2.29666 0.696683 6
    endloop
  endfacet
  facet normal 0 0 1
    outer loop
      vertex -2.32807 0.583152 6
      vertex -2.32807 -0.583152 6
      vertex -2.29666 -0.696683 6
    endloop
  endfacet
  facet normal -0 0 1
    outer loop
      vertex -2.35388 0.468216 6
      vertex -2.32807 -0.583152 6
      vertex -2.32807 0.583152 6
    endloop
  endfacet
  facet normal 0 0 1
    outer loop
      vertex -2.35388 0.468216 6
      vertex -2.35388 -0.468216 6
      vertex -2.32807 -0.583152 6
    endloop
  endfacet
  facet normal -0 0 1
    outer loop
      vertex -2.37402 0.352153 6
      vertex -2.35388 -0.468216 6
      vertex -2.35388 0.468216 6
    endloop
  endfacet
  facet normal 0 0 1
    outer loop
      vertex -2.37402 0.352153 6
      vertex -2.37402 -0.352153 6
      vertex -2.35388 -0.468216 6
    endloop
  endfacet
  facet normal -0 0 1
    outer loop
      vertex -2.38844 0.235241 6
      vertex -2.37402 -0.352153 6
      vertex -2.37402 0.352153 6
    endloop
  endfacet
  facet normal 0 0 1
    outer loop
      vertex -2.38844 0.235241 6
      vertex -2.38844 -0.235241 6
      vertex -2.37402 -0.352153 6
    endloop
  endfacet
  facet normal -0 0 1
    outer loop
      vertex -2.39711 0.117762 6
      vertex -2.38844 -0.235241 6
      vertex -2.38844 0.235241 6
    endloop
  endfacet
  facet normal 0 0 1
    outer loop
      vertex -2.39711 0.117762 6
      vertex -2.39711 -0.117762 6
      vertex -2.38844 -0.235241 6
    endloop
  endfacet
  facet normal 0 -0 1
    outer loop
      vertex -2.39711 -0.117762 6
      vertex -2.39711 0.117762 6
      vertex -2.4 0 6
    endloop
  endfacet
  facet normal -0.985276 0.170971 0
    outer loop
      vertex -2.37402 0.352153 1
      vertex -2.35388 0.468216 6
      vertex -2.35388 0.468216 1
    endloop
  endfacet
  facet normal -0.985276 0.170971 0
    outer loop
      vertex -2.35388 0.468216 6
      vertex -2.37402 0.352153 1
      vertex -2.37402 0.352153 6
    endloop
  endfacet
  facet normal -0.844855 0.534996 0
    outer loop
      vertex -2.05855 1.23385 1
      vertex -1.99553 1.33337 6
      vertex -1.99553 1.33337 1
    endloop
  endfacet
  facet normal -0.844855 0.534996 0
    outer loop
      vertex -1.99553 1.33337 6
      vertex -2.05855 1.23385 1
      vertex -2.05855 1.23385 6
    endloop
  endfacet
  facet normal -0.266648 0.963794 0
    outer loop
      vertex -0.583152 2.32807 1
      vertex -0.696683 2.29666 6
      vertex -0.583152 2.32807 6
    endloop
  endfacet
  facet normal -0.266648 0.963794 0
    outer loop
      vertex -0.696683 2.29666 6
      vertex -0.583152 2.32807 1
      vertex -0.696683 2.29666 1
    endloop
  endfacet
  facet normal -0.170971 0.985276 0
    outer loop
      vertex -0.352153 2.37402 1
      vertex -0.468216 2.35388 6
      vertex -0.352153 2.37402 6
    endloop
  endfacet
  facet normal -0.170971 0.985276 0
    outer loop
      vertex -0.468216 2.35388 6
      vertex -0.352153 2.37402 1
      vertex -0.468216 2.35388 1
    endloop
  endfacet
  facet normal 0.997288 -0.0736003 0
    outer loop
      vertex 2.38844 -0.235241 6
      vertex 2.39711 -0.117762 1
      vertex 2.39711 -0.117762 6
    endloop
  endfacet
  facet normal 0.997288 -0.0736003 0
    outer loop
      vertex 2.39711 -0.117762 1
      vertex 2.38844 -0.235241 6
      vertex 2.38844 -0.235241 1
    endloop
  endfacet
  facet normal 0.999699 -0.0245336 0
    outer loop
      vertex 2.39711 -0.117762 6
      vertex 2.4 0 1
      vertex 2.4 0 6
    endloop
  endfacet
  facet normal 0.999699 -0.0245336 0
    outer loop
      vertex 2.4 0 1
      vertex 2.39711 -0.117762 6
      vertex 2.39711 -0.117762 1
    endloop
  endfacet
  facet normal 0.975702 -0.219103 0
    outer loop
      vertex 2.32807 -0.583152 6
      vertex 2.35388 -0.468216 1
      vertex 2.35388 -0.468216 6
    endloop
  endfacet
  facet normal 0.975702 -0.219103 0
    outer loop
      vertex 2.35388 -0.468216 1
      vertex 2.32807 -0.583152 6
      vertex 2.32807 -0.583152 1
    endloop
  endfacet
  facet normal 0.963794 -0.266648 0
    outer loop
      vertex 2.29666 -0.696683 6
      vertex 2.32807 -0.583152 1
      vertex 2.32807 -0.583152 6
    endloop
  endfacet
  facet normal 0.963794 -0.266648 0
    outer loop
      vertex 2.32807 -0.583152 1
      vertex 2.29666 -0.696683 6
      vertex 2.29666 -0.696683 1
    endloop
  endfacet
  facet normal 0.870107 -0.492863 0
    outer loop
      vertex 2.05855 -1.23385 6
      vertex 2.11661 -1.13135 1
      vertex 2.11661 -1.13135 6
    endloop
  endfacet
  facet normal 0.870107 -0.492863 0
    outer loop
      vertex 2.11661 -1.13135 1
      vertex 2.05855 -1.23385 6
      vertex 2.05855 -1.23385 1
    endloop
  endfacet
  facet normal 0.914196 -0.405272 0
    outer loop
      vertex 2.16957 -1.02613 6
      vertex 2.21731 -0.91844 1
      vertex 2.21731 -0.91844 6
    endloop
  endfacet
  facet normal 0.914196 -0.405272 0
    outer loop
      vertex 2.21731 -0.91844 1
      vertex 2.16957 -1.02613 6
      vertex 2.16957 -1.02613 1
    endloop
  endfacet
  facet normal 0.534996 -0.844855 0
    outer loop
      vertex 1.23385 -2.05855 1
      vertex 1.33337 -1.99553 6
      vertex 1.23385 -2.05855 6
    endloop
  endfacet
  facet normal 0.534996 -0.844855 0
    outer loop
      vertex 1.33337 -1.99553 6
      vertex 1.23385 -2.05855 1
      vertex 1.33337 -1.99553 1
    endloop
  endfacet
  facet normal 0.757228 -0.653151 0
    outer loop
      vertex 1.77828 -1.61174 6
      vertex 1.85522 -1.52254 1
      vertex 1.85522 -1.52254 6
    endloop
  endfacet
  facet normal 0.757228 -0.653151 0
    outer loop
      vertex 1.85522 -1.52254 1
      vertex 1.77828 -1.61174 6
      vertex 1.77828 -1.61174 1
    endloop
  endfacet
  facet normal 0.0245336 -0.999699 0
    outer loop
      vertex 0 -2.4 1
      vertex 0.117762 -2.39711 6
      vertex 0 -2.4 6
    endloop
  endfacet
  facet normal 0.0245336 -0.999699 0
    outer loop
      vertex 0.117762 -2.39711 6
      vertex 0 -2.4 1
      vertex 0.117762 -2.39711 1
    endloop
  endfacet
  facet normal -0.313672 -0.949531 0
    outer loop
      vertex -0.808536 -2.25971 1
      vertex -0.696683 -2.29666 6
      vertex -0.808536 -2.25971 6
    endloop
  endfacet
  facet normal -0.313672 -0.949531 -0
    outer loop
      vertex -0.696683 -2.29666 6
      vertex -0.808536 -2.25971 1
      vertex -0.696683 -2.29666 1
    endloop
  endfacet
  facet normal -0.999699 -0.0245336 0
    outer loop
      vertex -2.39711 -0.117762 1
      vertex -2.4 0 6
      vertex -2.4 0 1
    endloop
  endfacet
  facet normal -0.999699 -0.0245336 0
    outer loop
      vertex -2.4 0 6
      vertex -2.39711 -0.117762 1
      vertex -2.39711 -0.117762 6
    endloop
  endfacet
  facet normal 0 0 -1
    outer loop
      vertex -2.5 -2.5 0
      vertex 2.5 2.5 0
      vertex 2.5 -2.5 0
    endloop
  endfacet
  facet normal -0 0 -1
    outer loop
      vertex 2.5 2.5 0
      vertex -2.5 -2.5 0
      vertex -2.5 2.5 0
    endloop
  endfacet
  facet normal -0.985276 -0.170971 0
    outer loop
      vertex -2.35388 -0.468216 1
      vertex -2.37402 -0.352153 6
      vertex -2.37402 -0.352153 1
    endloop
  endfacet
  facet normal -0.985276 -0.170971 0
    outer loop
      vertex -2.37402 -0.352153 6
      vertex -2.35388 -0.468216 1
      vertex -2.35388 -0.468216 6
    endloop
  endfacet
  facet normal -0.949531 -0.313672 0
    outer loop
      vertex -2.25971 -0.808536 1
      vertex -2.29666 -0.696683 6
      vertex -2.29666 -0.696683 1
    endloop
  endfacet
  facet normal -0.949531 -0.313672 0
    outer loop
      vertex -2.29666 -0.696683 6
      vertex -2.25971 -0.808536 1
      vertex -2.25971 -0.808536 6
    endloop
  endfacet
  facet normal -0.844855 -0.534996 0
    outer loop
      vertex -1.99553 -1.33337 1
      vertex -2.05855 -1.23385 6
      vertex -2.05855 -1.23385 1
    endloop
  endfacet
  facet normal -0.844855 -0.534996 0
    outer loop
      vertex -2.05855 -1.23385 6
      vertex -1.99553 -1.33337 1
      vertex -1.99553 -1.33337 6
    endloop
  endfacet
  facet normal -0.870107 -0.492863 0
    outer loop
      vertex -2.05855 -1.23385 1
      vertex -2.11661 -1.13135 6
      vertex -2.11661 -1.13135 1
    endloop
  endfacet
  facet normal -0.870107 -0.492863 0
    outer loop
      vertex -2.11661 -1.13135 6
      vertex -2.05855 -1.23385 1
      vertex -2.05855 -1.23385 6
    endloop
  endfacet
  facet normal -0.724295 -0.68949 0
    outer loop
      vertex -1.69706 -1.69706 1
      vertex -1.77828 -1.61174 6
      vertex -1.77828 -1.61174 1
    endloop
  endfacet
  facet normal -0.724295 -0.68949 0
    outer loop
      vertex -1.77828 -1.61174 6
      vertex -1.69706 -1.69706 1
      vertex -1.69706 -1.69706 6
    endloop
  endfacet
  facet normal 0.219103 -0.975702 0
    outer loop
      vertex 0.468216 -2.35388 1
      vertex 0.583152 -2.32807 6
      vertex 0.468216 -2.35388 6
    endloop
  endfacet
  facet normal 0.219103 -0.975702 0
    outer loop
      vertex 0.583152 -2.32807 6
      vertex 0.468216 -2.35388 1
      vertex 0.583152 -2.32807 1
    endloop
  endfacet
  facet normal 0.985276 -0.170971 0
    outer loop
      vertex 2.35388 -0.468216 6
      vertex 2.37402 -0.352153 1
      vertex 2.37402 -0.352153 6
    endloop
  endfacet
  facet normal 0.985276 -0.170971 0
    outer loop
      vertex 2.37402 -0.352153 1
      vertex 2.35388 -0.468216 6
      vertex 2.35388 -0.468216 1
    endloop
  endfacet
  facet normal 0.893236 -0.449589 0
    outer loop
      vertex 2.11661 -1.13135 6
      vertex 2.16957 -1.02613 1
      vertex 2.16957 -1.02613 6
    endloop
  endfacet
  facet normal 0.893236 -0.449589 0
    outer loop
      vertex 2.16957 -1.02613 1
      vertex 2.11661 -1.13135 6
      vertex 2.11661 -1.13135 1
    endloop
  endfacet
  facet normal 0.68949 -0.724295 0
    outer loop
      vertex 1.61174 -1.77828 1
      vertex 1.69706 -1.69706 6
      vertex 1.61174 -1.77828 6
    endloop
  endfacet
  facet normal 0.68949 -0.724295 0
    outer loop
      vertex 1.69706 -1.69706 6
      vertex 1.61174 -1.77828 1
      vertex 1.69706 -1.69706 1
    endloop
  endfacet
  facet normal 0.724295 -0.68949 0
    outer loop
      vertex 1.69706 -1.69706 6
      vertex 1.77828 -1.61174 1
      vertex 1.77828 -1.61174 6
    endloop
  endfacet
  facet normal 0.724295 -0.68949 0
    outer loop
      vertex 1.77828 -1.61174 1
      vertex 1.69706 -1.69706 6
      vertex 1.69706 -1.69706 1
    endloop
  endfacet
  facet normal 0.7883 -0.615291 0
    outer loop
      vertex 1.85522 -1.52254 6
      vertex 1.9277 -1.42968 1
      vertex 1.9277 -1.42968 6
    endloop
  endfacet
  facet normal 0.7883 -0.615291 0
    outer loop
      vertex 1.9277 -1.42968 1
      vertex 1.85522 -1.52254 6
      vertex 1.85522 -1.52254 1
    endloop
  endfacet
  facet normal -0.0245336 -0.999699 0
    outer loop
      vertex -0.117762 -2.39711 1
      vertex 0 -2.4 6
      vertex -0.117762 -2.39711 6
    endloop
  endfacet
  facet normal -0.0245336 -0.999699 -0
    outer loop
      vertex 0 -2.4 6
      vertex -0.117762 -2.39711 1
      vertex 0 -2.4 1
    endloop
  endfacet
  facet normal -0.615291 -0.7883 0
    outer loop
      vertex -1.52254 -1.85522 1
      vertex -1.42968 -1.9277 6
      vertex -1.52254 -1.85522 6
    endloop
  endfacet
  facet normal -0.615291 -0.7883 -0
    outer loop
      vertex -1.42968 -1.9277 6
      vertex -1.52254 -1.85522 1
      vertex -1.42968 -1.9277 1
    endloop
  endfacet
  facet normal -0.449589 -0.893236 0
    outer loop
      vertex -1.13135 -2.11661 1
      vertex -1.02613 -2.16957 6
      vertex -1.13135 -2.11661 6
    endloop
  endfacet
  facet normal -0.449589 -0.893236 -0
    outer loop
      vertex -1.02613 -2.16957 6
      vertex -1.13135 -2.11661 1
      vertex -1.02613 -2.16957 1
    endloop
  endfacet
  facet normal -0.534996 -0.844855 0
    outer loop
      vertex -1.33337 -1.99553 1
      vertex -1.23385 -2.05855 6
      vertex -1.33337 -1.99553 6
    endloop
  endfacet
  facet normal -0.534996 -0.844855 -0
    outer loop
      vertex -1.23385 -2.05855 6
      vertex -1.33337 -1.99553 1
      vertex -1.23385 -2.05855 1
    endloop
  endfacet
  facet normal -0.122413 -0.992479 0
    outer loop
      vertex -0.352153 -2.37402 1
      vertex -0.235241 -2.38844 6
      vertex -0.352153 -2.37402 6
    endloop
  endfacet
  facet normal -0.122413 -0.992479 -0
    outer loop
      vertex -0.235241 -2.38844 6
      vertex -0.352153 -2.37402 1
      vertex -0.235241 -2.38844 1
    endloop
  endfacet
  facet normal -0.219103 -0.975702 0
    outer loop
      vertex -0.583152 -2.32807 1
      vertex -0.468216 -2.35388 6
      vertex -0.583152 -2.32807 6
    endloop
  endfacet
  facet normal -0.219103 -0.975702 -0
    outer loop
      vertex -0.468216 -2.35388 6
      vertex -0.583152 -2.32807 1
      vertex -0.468216 -2.35388 1
    endloop
  endfacet
  facet normal -0.997288 -0.0736003 0
    outer loop
      vertex -2.38844 -0.235241 1
      vertex -2.39711 -0.117762 6
      vertex -2.39711 -0.117762 1
    endloop
  endfacet
  facet normal -0.997288 -0.0736003 0
    outer loop
      vertex -2.39711 -0.117762 6
      vertex -2.38844 -0.235241 1
      vertex -2.38844 -0.235241 6
    endloop
  endfacet
  facet normal -0.932978 -0.359935 0
    outer loop
      vertex -2.21731 -0.91844 1
      vertex -2.25971 -0.808536 6
      vertex -2.25971 -0.808536 1
    endloop
  endfacet
  facet normal -0.932978 -0.359935 0
    outer loop
      vertex -2.25971 -0.808536 6
      vertex -2.21731 -0.91844 1
      vertex -2.21731 -0.91844 6
    endloop
  endfacet
  facet normal -0.963794 -0.266648 0
    outer loop
      vertex -2.29666 -0.696683 1
      vertex -2.32807 -0.583152 6
      vertex -2.32807 -0.583152 1
    endloop
  endfacet
  facet normal -0.963794 -0.266648 0
    outer loop
      vertex -2.32807 -0.583152 6
      vertex -2.29666 -0.696683 1
      vertex -2.29666 -0.696683 6
    endloop
  endfacet
  facet normal -0.893236 -0.449589 0
    outer loop
      vertex -2.11661 -1.13135 1
      vertex -2.16957 -1.02613 6
      vertex -2.16957 -1.02613 1
    endloop
  endfacet
  facet normal -0.893236 -0.449589 0
    outer loop
      vertex -2.16957 -1.02613 6
      vertex -2.11661 -1.13135 1
      vertex -2.11661 -1.13135 6
    endloop
  endfacet
  facet normal -0.7883 -0.615291 0
    outer loop
      vertex -1.85522 -1.52254 1
      vertex -1.9277 -1.42968 6
      vertex -1.9277 -1.42968 1
    endloop
  endfacet
  facet normal -0.7883 -0.615291 0
    outer loop
      vertex -1.9277 -1.42968 6
      vertex -1.85522 -1.52254 1
      vertex -1.85522 -1.52254 6
    endloop
  endfacet
  facet normal -0.817581 -0.575813 0
    outer loop
      vertex -1.9277 -1.42968 1
      vertex -1.99553 -1.33337 6
      vertex -1.99553 -1.33337 1
    endloop
  endfacet
  facet normal -0.817581 -0.575813 0
    outer loop
      vertex -1.99553 -1.33337 6
      vertex -1.9277 -1.42968 1
      vertex -1.9277 -1.42968 6
    endloop
  endfacet
  facet normal 0.313672 -0.949531 0
    outer loop
      vertex 0.696683 -2.29666 1
      vertex 0.808536 -2.25971 6
      vertex 0.696683 -2.29666 6
    endloop
  endfacet
  facet normal 0.313672 -0.949531 0
    outer loop
      vertex 0.808536 -2.25971 6
      vertex 0.696683 -2.29666 1
      vertex 0.808536 -2.25971 1
    endloop
  endfacet
  facet normal 0.122413 -0.992479 0
    outer loop
      vertex 0.235241 -2.38844 1
      vertex 0.352153 -2.37402 6
      vertex 0.235241 -2.38844 6
    endloop
  endfacet
  facet normal 0.122413 -0.992479 0
    outer loop
      vertex 0.352153 -2.37402 6
      vertex 0.235241 -2.38844 1
      vertex 0.352153 -2.37402 1
    endloop
  endfacet
  facet normal 0.575813 -0.817581 0
    outer loop
      vertex 1.33337 -1.99553 1
      vertex 1.42968 -1.9277 6
      vertex 1.33337 -1.99553 6
    endloop
  endfacet
  facet normal 0.575813 -0.817581 0
    outer loop
      vertex 1.42968 -1.9277 6
      vertex 1.33337 -1.99553 1
      vertex 1.42968 -1.9277 1
    endloop
  endfacet
  facet normal 0.492863 -0.870107 0
    outer loop
      vertex 1.13135 -2.11661 1
      vertex 1.23385 -2.05855 6
      vertex 1.13135 -2.11661 6
    endloop
  endfacet
  facet normal 0.492863 -0.870107 0
    outer loop
      vertex 1.23385 -2.05855 6
      vertex 1.13135 -2.11661 1
      vertex 1.23385 -2.05855 1
    endloop
  endfacet
  facet normal 0.615291 -0.7883 0
    outer loop
      vertex 1.42968 -1.9277 1
      vertex 1.52254 -1.85522 6
      vertex 1.42968 -1.9277 6
    endloop
  endfacet
  facet normal 0.615291 -0.7883 0
    outer loop
      vertex 1.52254 -1.85522 6
      vertex 1.42968 -1.9277 1
      vertex 1.52254 -1.85522 1
    endloop
  endfacet
  facet normal 0.844855 -0.534996 0
    outer loop
      vertex 1.99553 -1.33337 6
      vertex 2.05855 -1.23385 1
      vertex 2.05855 -1.23385 6
    endloop
  endfacet
  facet normal 0.844855 -0.534996 0
    outer loop
      vertex 2.05855 -1.23385 1
      vertex 1.99553 -1.33337 6
      vertex 1.99553 -1.33337 1
    endloop
  endfacet
  facet normal 0.817581 -0.575813 0
    outer loop
      vertex 1.9277 -1.42968 6
      vertex 1.99553 -1.33337 1
      vertex 1.99553 -1.33337 6
    endloop
  endfacet
  facet normal 0.817581 -0.575813 0
    outer loop
      vertex 1.99553 -1.33337 1
      vertex 1.9277 -1.42968 6
      vertex 1.9277 -1.42968 1
    endloop
  endfacet
  facet normal -0.653151 -0.757228 0
    outer loop
      vertex -1.61174 -1.77828 1
      vertex -1.52254 -1.85522 6
      vertex -1.61174 -1.77828 6
    endloop
  endfacet
  facet normal -0.653151 -0.757228 -0
    outer loop
      vertex -1.52254 -1.85522 6
      vertex -1.61174 -1.77828 1
      vertex -1.52254 -1.85522 1
    endloop
  endfacet
  facet normal -0.575813 -0.817581 0
    outer loop
      vertex -1.42968 -1.9277 1
      vertex -1.33337 -1.99553 6
      vertex -1.42968 -1.9277 6
    endloop
  endfacet
  facet normal -0.575813 -0.817581 -0
    outer loop
      vertex -1.33337 -1.99553 6
      vertex -1.42968 -1.9277 1
      vertex -1.33337 -1.99553 1
    endloop
  endfacet
  facet normal -0.359935 -0.932978 0
    outer loop
      vertex -0.91844 -2.21731 1
      vertex -0.808536 -2.25971 6
      vertex -0.91844 -2.21731 6
    endloop
  endfacet
  facet normal -0.359935 -0.932978 -0
    outer loop
      vertex -0.808536 -2.25971 6
      vertex -0.91844 -2.21731 1
      vertex -0.808536 -2.25971 1
    endloop
  endfacet
  facet normal -0.405272 -0.914196 0
    outer loop
      vertex -1.02613 -2.16957 1
      vertex -0.91844 -2.21731 6
      vertex -1.02613 -2.16957 6
    endloop
  endfacet
  facet normal -0.405272 -0.914196 -0
    outer loop
      vertex -0.91844 -2.21731 6
      vertex -1.02613 -2.16957 1
      vertex -0.91844 -2.21731 1
    endloop
  endfacet
  facet normal -0.492863 -0.870107 0
    outer loop
      vertex -1.23385 -2.05855 1
      vertex -1.13135 -2.11661 6
      vertex -1.23385 -2.05855 6
    endloop
  endfacet
  facet normal -0.492863 -0.870107 -0
    outer loop
      vertex -1.13135 -2.11661 6
      vertex -1.23385 -2.05855 1
      vertex -1.13135 -2.11661 1
    endloop
  endfacet
  facet normal -0.0736003 -0.997288 0
    outer loop
      vertex -0.235241 -2.38844 1
      vertex -0.117762 -2.39711 6
      vertex -0.235241 -2.38844 6
    endloop
  endfacet
  facet normal -0.0736003 -0.997288 -0
    outer loop
      vertex -0.117762 -2.39711 6
      vertex -0.235241 -2.38844 1
      vertex -0.117762 -2.39711 1
    endloop
  endfacet
  facet normal -0.266648 -0.963794 0
    outer loop
      vertex -0.696683 -2.29666 1
      vertex -0.583152 -2.32807 6
      vertex -0.696683 -2.29666 6
    endloop
  endfacet
  facet normal -0.266648 -0.963794 -0
    outer loop
      vertex -0.583152 -2.32807 6
      vertex -0.696683 -2.29666 1
      vertex -0.583152 -2.32807 1
    endloop
  endfacet
  facet normal -0.170971 -0.985276 0
    outer loop
      vertex -0.468216 -2.35388 1
      vertex -0.352153 -2.37402 6
      vertex -0.468216 -2.35388 6
    endloop
  endfacet
  facet normal -0.170971 -0.985276 -0
    outer loop
      vertex -0.352153 -2.37402 6
      vertex -0.468216 -2.35388 1
      vertex -0.352153 -2.37402 1
    endloop
  endfacet
  facet normal 0.266648 -0.963794 0
    outer loop
      vertex 0.583152 -2.32807 1
      vertex 0.696683 -2.29666 6
      vertex 0.583152 -2.32807 6
    endloop
  endfacet
  facet normal 0.266648 -0.963794 0
    outer loop
      vertex 0.696683 -2.29666 6
      vertex 0.583152 -2.32807 1
      vertex 0.696683 -2.29666 1
    endloop
  endfacet
  facet normal 0.653151 -0.757228 0
    outer loop
      vertex 1.52254 -1.85522 1
      vertex 1.61174 -1.77828 6
      vertex 1.52254 -1.85522 6
    endloop
  endfacet
  facet normal 0.653151 -0.757228 0
    outer loop
      vertex 1.61174 -1.77828 6
      vertex 1.52254 -1.85522 1
      vertex 1.61174 -1.77828 1
    endloop
  endfacet
  facet normal -1 0 0
    outer loop
      vertex -2.5 -2.5 0
      vertex -2.5 2.5 1
      vertex -2.5 2.5 0
    endloop
  endfacet
  facet normal -1 -0 0
    outer loop
      vertex -2.5 2.5 1
      vertex -2.5 -2.5 0
      vertex -2.5 -2.5 1
    endloop
  endfacet
  facet normal 0 0 1
    outer loop
      vertex 2.5 2.5 1
      vertex 2.4 0 1
      vertex 2.5 -2.5 1
    endloop
  endfacet
  facet normal 0 0 1
    outer loop
      vertex 2.5 2.5 1
      vertex 2.39711 0.117762 1
      vertex 2.4 0 1
    endloop
  endfacet
  facet normal 0 0 1
    outer loop
      vertex 2.5 2.5 1
      vertex 2.38844 0.235241 1
      vertex 2.39711 0.117762 1
    endloop
  endfacet
  facet normal 0 0 1
    outer loop
      vertex 2.5 2.5 1
      vertex 2.37402 0.352153 1
      vertex 2.38844 0.235241 1
    endloop
  endfacet
  facet normal 0 0 1
    outer loop
      vertex 2.5 2.5 1
      vertex 2.35388 0.468216 1
      vertex 2.37402 0.352153 1
    endloop
  endfacet
  facet normal 0 0 1
    outer loop
      vertex 2.5 2.5 1
      vertex 2.32807 0.583152 1
      vertex 2.35388 0.468216 1
    endloop
  endfacet
  facet normal 0 0 1
    outer loop
      vertex 2.5 2.5 1
      vertex 2.29666 0.696683 1
      vertex 2.32807 0.583152 1
    endloop
  endfacet
  facet normal 0 0 1
    outer loop
      vertex 2.5 2.5 1
      vertex 2.25971 0.808536 1
      vertex 2.29666 0.696683 1
    endloop
  endfacet
  facet normal 0 0 1
    outer loop
      vertex 2.5 2.5 1
      vertex 2.21731 0.91844 1
      vertex 2.25971 0.808536 1
    endloop
  endfacet
  facet normal 0 0 1
    outer loop
      vertex 2.5 2.5 1
      vertex 2.16957 1.02613 1
      vertex 2.21731 0.91844 1
    endloop
  endfacet
  facet normal 0 0 1
    outer loop
      vertex 2.5 2.5 1
      vertex 2.11661 1.13135 1
      vertex 2.16957 1.02613 1
    endloop
  endfacet
  facet normal 0 0 1
    outer loop
      vertex 2.5 2.5 1
      vertex 2.05855 1.23385 1
      vertex 2.11661 1.13135 1
    endloop
  endfacet
  facet normal 0 0 1
    outer loop
      vertex 2.5 2.5 1
      vertex 1.99553 1.33337 1
      vertex 2.05855 1.23385 1
    endloop
  endfacet
  facet normal 0 0 1
    outer loop
      vertex 2.5 2.5 1
      vertex 1.9277 1.42968 1
      vertex 1.99553 1.33337 1
    endloop
  endfacet
  facet normal 0 0 1
    outer loop
      vertex 2.5 2.5 1
      vertex 1.85522 1.52254 1
      vertex 1.9277 1.42968 1
    endloop
  endfacet
  facet normal 0 0 1
    outer loop
      vertex 2.5 2.5 1
      vertex 1.77828 1.61174 1
      vertex 1.85522 1.52254 1
    endloop
  endfacet
  facet normal 0 0 1
    outer loop
      vertex 2.5 2.5 1
      vertex 1.69706 1.69706 1
      vertex 1.77828 1.61174 1
    endloop
  endfacet
  facet normal 0 0 1
    outer loop
      vertex 2.5 2.5 1
      vertex 1.61174 1.77828 1
      vertex 1.69706 1.69706 1
    endloop
  endfacet
  facet normal 0 0 1
    outer loop
      vertex 2.5 2.5 1
      vertex 1.52254 1.85522 1
      vertex 1.61174 1.77828 1
    endloop
  endfacet
  facet normal 0 0 1
    outer loop
      vertex 2.5 2.5 1
      vertex 1.42968 1.9277 1
      vertex 1.52254 1.85522 1
    endloop
  endfacet
  facet normal 0 0 1
    outer loop
      vertex 2.5 2.5 1
      vertex 1.33337 1.99553 1
      vertex 1.42968 1.9277 1
    endloop
  endfacet
  facet normal 0 0 1
    outer loop
      vertex 2.5 2.5 1
      vertex 1.23385 2.05855 1
      vertex 1.33337 1.99553 1
    endloop
  endfacet
  facet normal 0 0 1
    outer loop
      vertex 2.5 2.5 1
      vertex 1.13135 2.11661 1
      vertex 1.23385 2.05855 1
    endloop
  endfacet
  facet normal 0 0 1
    outer loop
      vertex 2.5 2.5 1
      vertex 1.02613 2.16957 1
      vertex 1.13135 2.11661 1
    endloop
  endfacet
  facet normal 0 0 1
    outer loop
      vertex 2.5 2.5 1
      vertex 0.91844 2.21731 1
      vertex 1.02613 2.16957 1
    endloop
  endfacet
  facet normal 0 0 1
    outer loop
      vertex 2.5 2.5 1
      vertex 0.808536 2.25971 1
      vertex 0.91844 2.21731 1
    endloop
  endfacet
  facet normal 0 0 1
    outer loop
      vertex 2.5 2.5 1
      vertex 0.696683 2.29666 1
      vertex 0.808536 2.25971 1
    endloop
  endfacet
  facet normal 0 0 1
    outer loop
      vertex 2.5 2.5 1
      vertex 0.583152 2.32807 1
      vertex 0.696683 2.29666 1
    endloop
  endfacet
  facet normal 0 0 1
    outer loop
      vertex 2.5 2.5 1
      vertex 0.468216 2.35388 1
      vertex 0.583152 2.32807 1
    endloop
  endfacet
  facet normal 0 0 1
    outer loop
      vertex 2.5 2.5 1
      vertex 0.352153 2.37402 1
      vertex 0.468216 2.35388 1
    endloop
  endfacet
  facet normal 0 0 1
    outer loop
      vertex 2.5 2.5 1
      vertex 0.235241 2.38844 1
      vertex 0.352153 2.37402 1
    endloop
  endfacet
  facet normal 0 0 1
    outer loop
      vertex 2.5 2.5 1
      vertex 0.117762 2.39711 1
      vertex 0.235241 2.38844 1
    endloop
  endfacet
  facet normal 0 0 1
    outer loop
      vertex 2.5 2.5 1
      vertex 0 2.4 1
      vertex 0.117762 2.39711 1
    endloop
  endfacet
  facet normal -0 0 1
    outer loop
      vertex -2.5 2.5 1
      vertex 0 2.4 1
      vertex 2.5 2.5 1
    endloop
  endfacet
  facet normal 0 0 1
    outer loop
      vertex -2.39711 0.117762 1
      vertex -2.5 2.5 1
      vertex -2.4 0 1
    endloop
  endfacet
  facet normal 0 0 1
    outer loop
      vertex -2.38844 0.235241 1
      vertex -2.5 2.5 1
      vertex -2.39711 0.117762 1
    endloop
  endfacet
  facet normal 0 0 1
    outer loop
      vertex -2.37402 0.352153 1
      vertex -2.5 2.5 1
      vertex -2.38844 0.235241 1
    endloop
  endfacet
  facet normal 0 0 1
    outer loop
      vertex -2.35388 0.468216 1
      vertex -2.5 2.5 1
      vertex -2.37402 0.352153 1
    endloop
  endfacet
  facet normal 0 0 1
    outer loop
      vertex -2.32807 0.583152 1
      vertex -2.5 2.5 1
      vertex -2.35388 0.468216 1
    endloop
  endfacet
  facet normal 0 0 1
    outer loop
      vertex -2.29666 0.696683 1
      vertex -2.5 2.5 1
      vertex -2.32807 0.583152 1
    endloop
  endfacet
  facet normal 0 0 1
    outer loop
      vertex -2.25971 0.808536 1
      vertex -2.5 2.5 1
      vertex -2.29666 0.696683 1
    endloop
  endfacet
  facet normal 0 0 1
    outer loop
      vertex -2.21731 0.91844 1
      vertex -2.5 2.5 1
      vertex -2.25971 0.808536 1
    endloop
  endfacet
  facet normal 0 0 1
    outer loop
      vertex -2.16957 1.02613 1
      vertex -2.5 2.5 1
      vertex -2.21731 0.91844 1
    endloop
  endfacet
  facet normal 0 0 1
    outer loop
      vertex -2.11661 1.13135 1
      vertex -2.5 2.5 1
      vertex -2.16957 1.02613 1
    endloop
  endfacet
  facet normal 0 0 1
    outer loop
      vertex -2.05855 1.23385 1
      vertex -2.5 2.5 1
      vertex -2.11661 1.13135 1
    endloop
  endfacet
  facet normal 0 0 1
    outer loop
      vertex -1.99553 1.33337 1
      vertex -2.5 2.5 1
      vertex -2.05855 1.23385 1
    endloop
  endfacet
  facet normal 0 0 1
    outer loop
      vertex -1.9277 1.42968 1
      vertex -2.5 2.5 1
      vertex -1.99553 1.33337 1
    endloop
  endfacet
  facet normal 0 0 1
    outer loop
      vertex -1.85522 1.52254 1
      vertex -2.5 2.5 1
      vertex -1.9277 1.42968 1
    endloop
  endfacet
  facet normal 0 0 1
    outer loop
      vertex -1.77828 1.61174 1
      vertex -2.5 2.5 1
      vertex -1.85522 1.52254 1
    endloop
  endfacet
  facet normal 0 0 1
    outer loop
      vertex -1.69706 1.69706 1
      vertex -2.5 2.5 1
      vertex -1.77828 1.61174 1
    endloop
  endfacet
  facet normal 0 0 1
    outer loop
      vertex -1.61174 1.77828 1
      vertex -2.5 2.5 1
      vertex -1.69706 1.69706 1
    endloop
  endfacet
  facet normal 0 0 1
    outer loop
      vertex -1.52254 1.85522 1
      vertex -2.5 2.5 1
      vertex -1.61174 1.77828 1
    endloop
  endfacet
  facet normal 0 0 1
    outer loop
      vertex -1.42968 1.9277 1
      vertex -2.5 2.5 1
      vertex -1.52254 1.85522 1
    endloop
  endfacet
  facet normal 0 0 1
    outer loop
      vertex -1.33337 1.99553 1
      vertex -2.5 2.5 1
      vertex -1.42968 1.9277 1
    endloop
  endfacet
  facet normal 0 0 1
    outer loop
      vertex -1.23385 2.05855 1
      vertex -2.5 2.5 1
      vertex -1.33337 1.99553 1
    endloop
  endfacet
  facet normal 0 0 1
    outer loop
      vertex -1.13135 2.11661 1
      vertex -2.5 2.5 1
      vertex -1.23385 2.05855 1
    endloop
  endfacet
  facet normal 0 0 1
    outer loop
      vertex -1.02613 2.16957 1
      vertex -2.5 2.5 1
      vertex -1.13135 2.11661 1
    endloop
  endfacet
  facet normal 0 0 1
    outer loop
      vertex -0.91844 2.21731 1
      vertex -2.5 2.5 1
      vertex -1.02613 2.16957 1
    endloop
  endfacet
  facet normal 0 0 1
    outer loop
      vertex -0.808536 2.25971 1
      vertex -2.5 2.5 1
      vertex -0.91844 2.21731 1
    endloop
  endfacet
  facet normal 0 0 1
    outer loop
      vertex -0.696683 2.29666 1
      vertex -2.5 2.5 1
      vertex -0.808536 2.25971 1
    endloop
  endfacet
  facet normal 0 0 1
    outer loop
      vertex -0.583152 2.32807 1
      vertex -2.5 2.5 1
      vertex -0.696683 2.29666 1
    endloop
  endfacet
  facet normal 0 0 1
    outer loop
      vertex -0.468216 2.35388 1
      vertex -2.5 2.5 1
      vertex -0.583152 2.32807 1
    endloop
  endfacet
  facet normal 0 0 1
    outer loop
      vertex -0.352153 2.37402 1
      vertex -2.5 2.5 1
      vertex -0.468216 2.35388 1
    endloop
  endfacet
  facet normal 0 0 1
    outer loop
      vertex -0.235241 2.38844 1
      vertex -2.5 2.5 1
      vertex -0.352153 2.37402 1
    endloop
  endfacet
  facet normal 0 0 1
    outer loop
      vertex -0.117762 2.39711 1
      vertex -2.5 2.5 1
      vertex -0.235241 2.38844 1
    endloop
  endfacet
  facet normal 0 0 1
    outer loop
      vertex 0 2.4 1
      vertex -2.5 2.5 1
      vertex -0.117762 2.39711 1
    endloop
  endfacet
  facet normal -0 0 1
    outer loop
      vertex 2.39711 -0.117762 1
      vertex 2.5 -2.5 1
      vertex 2.4 0 1
    endloop
  endfacet
  facet normal -0 0 1
    outer loop
      vertex 2.38844 -0.235241 1
      vertex 2.5 -2.5 1
      vertex 2.39711 -0.117762 1
    endloop
  endfacet
  facet normal -0 0 1
    outer loop
      vertex 2.37402 -0.352153 1
      vertex 2.5 -2.5 1
      vertex 2.38844 -0.235241 1
    endloop
  endfacet
  facet normal -0 0 1
    outer loop
      vertex 2.35388 -0.468216 1
      vertex 2.5 -2.5 1
      vertex 2.37402 -0.352153 1
    endloop
  endfacet
  facet normal -0 0 1
    outer loop
      vertex 2.32807 -0.583152 1
      vertex 2.5 -2.5 1
      vertex 2.35388 -0.468216 1
    endloop
  endfacet
  facet normal -0 0 1
    outer loop
      vertex 2.29666 -0.696683 1
      vertex 2.5 -2.5 1
      vertex 2.32807 -0.583152 1
    endloop
  endfacet
  facet normal -0 0 1
    outer loop
      vertex 2.25971 -0.808536 1
      vertex 2.5 -2.5 1
      vertex 2.29666 -0.696683 1
    endloop
  endfacet
  facet normal -0 0 1
    outer loop
      vertex 2.21731 -0.91844 1
      vertex 2.5 -2.5 1
      vertex 2.25971 -0.808536 1
    endloop
  endfacet
  facet normal -0 0 1
    outer loop
      vertex 2.16957 -1.02613 1
      vertex 2.5 -2.5 1
      vertex 2.21731 -0.91844 1
    endloop
  endfacet
  facet normal -0 0 1
    outer loop
      vertex 2.11661 -1.13135 1
      vertex 2.5 -2.5 1
      vertex 2.16957 -1.02613 1
    endloop
  endfacet
  facet normal -0 0 1
    outer loop
      vertex 2.05855 -1.23385 1
      vertex 2.5 -2.5 1
      vertex 2.11661 -1.13135 1
    endloop
  endfacet
  facet normal -0 0 1
    outer loop
      vertex 1.99553 -1.33337 1
      vertex 2.5 -2.5 1
      vertex 2.05855 -1.23385 1
    endloop
  endfacet
  facet normal -0 0 1
    outer loop
      vertex 1.9277 -1.42968 1
      vertex 2.5 -2.5 1
      vertex 1.99553 -1.33337 1
    endloop
  endfacet
  facet normal -0 0 1
    outer loop
      vertex 1.85522 -1.52254 1
      vertex 2.5 -2.5 1
      vertex 1.9277 -1.42968 1
    endloop
  endfacet
  facet normal -0 0 1
    outer loop
      vertex 1.77828 -1.61174 1
      vertex 2.5 -2.5 1
      vertex 1.85522 -1.52254 1
    endloop
  endfacet
  facet normal -0 0 1
    outer loop
      vertex 1.69706 -1.69706 1
      vertex 2.5 -2.5 1
      vertex 1.77828 -1.61174 1
    endloop
  endfacet
  facet normal -0 0 1
    outer loop
      vertex 1.61174 -1.77828 1
      vertex 2.5 -2.5 1
      vertex 1.69706 -1.69706 1
    endloop
  endfacet
  facet normal -0 0 1
    outer loop
      vertex 1.52254 -1.85522 1
      vertex 2.5 -2.5 1
      vertex 1.61174 -1.77828 1
    endloop
  endfacet
  facet normal -0 0 1
    outer loop
      vertex 1.42968 -1.9277 1
      vertex 2.5 -2.5 1
      vertex 1.52254 -1.85522 1
    endloop
  endfacet
  facet normal -0 0 1
    outer loop
      vertex 1.33337 -1.99553 1
      vertex 2.5 -2.5 1
      vertex 1.42968 -1.9277 1
    endloop
  endfacet
  facet normal -0 0 1
    outer loop
      vertex 1.23385 -2.05855 1
      vertex 2.5 -2.5 1
      vertex 1.33337 -1.99553 1
    endloop
  endfacet
  facet normal -0 0 1
    outer loop
      vertex 1.13135 -2.11661 1
      vertex 2.5 -2.5 1
      vertex 1.23385 -2.05855 1
    endloop
  endfacet
  facet normal -0 0 1
    outer loop
      vertex 1.02613 -2.16957 1
      vertex 2.5 -2.5 1
      vertex 1.13135 -2.11661 1
    endloop
  endfacet
  facet normal -0 0 1
    outer loop
      vertex 0.91844 -2.21731 1
      vertex 2.5 -2.5 1
      vertex 1.02613 -2.16957 1
    endloop
  endfacet
  facet normal -0 0 1
    outer loop
      vertex 0.808536 -2.25971 1
      vertex 2.5 -2.5 1
      vertex 0.91844 -2.21731 1
    endloop
  endfacet
  facet normal -0 0 1
    outer loop
      vertex 0.696683 -2.29666 1
      vertex 2.5 -2.5 1
      vertex 0.808536 -2.25971 1
    endloop
  endfacet
  facet normal -0 0 1
    outer loop
      vertex 0.583152 -2.32807 1
      vertex 2.5 -2.5 1
      vertex 0.696683 -2.29666 1
    endloop
  endfacet
  facet normal -0 0 1
    outer loop
      vertex 0.468216 -2.35388 1
      vertex 2.5 -2.5 1
      vertex 0.583152 -2.32807 1
    endloop
  endfacet
  facet normal -0 0 1
    outer loop
      vertex 0.352153 -2.37402 1
      vertex 2.5 -2.5 1
      vertex 0.468216 -2.35388 1
    endloop
  endfacet
  facet normal -0 0 1
    outer loop
      vertex 0.235241 -2.38844 1
      vertex 2.5 -2.5 1
      vertex 0.352153 -2.37402 1
    endloop
  endfacet
  facet normal -0 0 1
    outer loop
      vertex 0.117762 -2.39711 1
      vertex 2.5 -2.5 1
      vertex 0.235241 -2.38844 1
    endloop
  endfacet
  facet normal -0 0 1
    outer loop
      vertex 0 -2.4 1
      vertex 2.5 -2.5 1
      vertex 0.117762 -2.39711 1
    endloop
  endfacet
  facet normal 0 0 1
    outer loop
      vertex -2.5 -2.5 1
      vertex 0 -2.4 1
      vertex -0.117762 -2.39711 1
    endloop
  endfacet
  facet normal 0 0 1
    outer loop
      vertex -2.5 -2.5 1
      vertex -2.4 0 1
      vertex -2.5 2.5 1
    endloop
  endfacet
  facet normal 0 0 1
    outer loop
      vertex 0 -2.4 1
      vertex -2.5 -2.5 1
      vertex 2.5 -2.5 1
    endloop
  endfacet
  facet normal 0 0 1
    outer loop
      vertex -0.235241 -2.38844 1
      vertex -2.5 -2.5 1
      vertex -0.117762 -2.39711 1
    endloop
  endfacet
  facet normal 0 0 1
    outer loop
      vertex -0.352153 -2.37402 1
      vertex -2.5 -2.5 1
      vertex -0.235241 -2.38844 1
    endloop
  endfacet
  facet normal 0 0 1
    outer loop
      vertex -0.468216 -2.35388 1
      vertex -2.5 -2.5 1
      vertex -0.352153 -2.37402 1
    endloop
  endfacet
  facet normal 0 0 1
    outer loop
      vertex -0.583152 -2.32807 1
      vertex -2.5 -2.5 1
      vertex -0.468216 -2.35388 1
    endloop
  endfacet
  facet normal 0 0 1
    outer loop
      vertex -0.696683 -2.29666 1
      vertex -2.5 -2.5 1
      vertex -0.583152 -2.32807 1
    endloop
  endfacet
  facet normal 0 0 1
    outer loop
      vertex -0.808536 -2.25971 1
      vertex -2.5 -2.5 1
      vertex -0.696683 -2.29666 1
    endloop
  endfacet
  facet normal 0 0 1
    outer loop
      vertex -0.91844 -2.21731 1
      vertex -2.5 -2.5 1
      vertex -0.808536 -2.25971 1
    endloop
  endfacet
  facet normal 0 0 1
    outer loop
      vertex -1.02613 -2.16957 1
      vertex -2.5 -2.5 1
      vertex -0.91844 -2.21731 1
    endloop
  endfacet
  facet normal 0 0 1
    outer loop
      vertex -1.13135 -2.11661 1
      vertex -2.5 -2.5 1
      vertex -1.02613 -2.16957 1
    endloop
  endfacet
  facet normal 0 0 1
    outer loop
      vertex -1.23385 -2.05855 1
      vertex -2.5 -2.5 1
      vertex -1.13135 -2.11661 1
    endloop
  endfacet
  facet normal 0 0 1
    outer loop
      vertex -1.33337 -1.99553 1
      vertex -2.5 -2.5 1
      vertex -1.23385 -2.05855 1
    endloop
  endfacet
  facet normal 0 0 1
    outer loop
      vertex -1.42968 -1.9277 1
      vertex -2.5 -2.5 1
      vertex -1.33337 -1.99553 1
    endloop
  endfacet
  facet normal 0 0 1
    outer loop
      vertex -1.52254 -1.85522 1
      vertex -2.5 -2.5 1
      vertex -1.42968 -1.9277 1
    endloop
  endfacet
  facet normal 0 0 1
    outer loop
      vertex -1.61174 -1.77828 1
      vertex -2.5 -2.5 1
      vertex -1.52254 -1.85522 1
    endloop
  endfacet
  facet normal 0 0 1
    outer loop
      vertex -1.69706 -1.69706 1
      vertex -2.5 -2.5 1
      vertex -1.61174 -1.77828 1
    endloop
  endfacet
  facet normal 0 0 1
    outer loop
      vertex -1.77828 -1.61174 1
      vertex -2.5 -2.5 1
      vertex -1.69706 -1.69706 1
    endloop
  endfacet
  facet normal 0 0 1
    outer loop
      vertex -1.85522 -1.52254 1
      vertex -2.5 -2.5 1
      vertex -1.77828 -1.61174 1
    endloop
  endfacet
  facet normal 0 0 1
    outer loop
      vertex -1.9277 -1.42968 1
      vertex -2.5 -2.5 1
      vertex -1.85522 -1.52254 1
    endloop
  endfacet
  facet normal 0 0 1
    outer loop
      vertex -1.99553 -1.33337 1
      vertex -2.5 -2.5 1
      vertex -1.9277 -1.42968 1
    endloop
  endfacet
  facet normal 0 0 1
    outer loop
      vertex -2.05855 -1.23385 1
      vertex -2.5 -2.5 1
      vertex -1.99553 -1.33337 1
    endloop
  endfacet
  facet normal 0 0 1
    outer loop
      vertex -2.11661 -1.13135 1
      vertex -2.5 -2.5 1
      vertex -2.05855 -1.23385 1
    endloop
  endfacet
  facet normal 0 0 1
    outer loop
      vertex -2.16957 -1.02613 1
      vertex -2.5 -2.5 1
      vertex -2.11661 -1.13135 1
    endloop
  endfacet
  facet normal 0 0 1
    outer loop
      vertex -2.21731 -0.91844 1
      vertex -2.5 -2.5 1
      vertex -2.16957 -1.02613 1
    endloop
  endfacet
  facet normal 0 0 1
    outer loop
      vertex -2.25971 -0.808536 1
      vertex -2.5 -2.5 1
      vertex -2.21731 -0.91844 1
    endloop
  endfacet
  facet normal 0 0 1
    outer loop
      vertex -2.29666 -0.696683 1
      vertex -2.5 -2.5 1
      vertex -2.25971 -0.808536 1
    endloop
  endfacet
  facet normal 0 0 1
    outer loop
      vertex -2.32807 -0.583152 1
      vertex -2.5 -2.5 1
      vertex -2.29666 -0.696683 1
    endloop
  endfacet
  facet normal 0 0 1
    outer loop
      vertex -2.35388 -0.468216 1
      vertex -2.5 -2.5 1
      vertex -2.32807 -0.583152 1
    endloop
  endfacet
  facet normal 0 0 1
    outer loop
      vertex -2.37402 -0.352153 1
      vertex -2.5 -2.5 1
      vertex -2.35388 -0.468216 1
    endloop
  endfacet
  facet normal 0 0 1
    outer loop
      vertex -2.38844 -0.235241 1
      vertex -2.5 -2.5 1
      vertex -2.37402 -0.352153 1
    endloop
  endfacet
  facet normal 0 0 1
    outer loop
      vertex -2.39711 -0.117762 1
      vertex -2.5 -2.5 1
      vertex -2.38844 -0.235241 1
    endloop
  endfacet
  facet normal 0 0 1
    outer loop
      vertex -2.4 0 1
      vertex -2.5 -2.5 1
      vertex -2.39711 -0.117762 1
    endloop
  endfacet
  facet normal 1 -0 0
    outer loop
      vertex 2.5 -2.5 1
      vertex 2.5 2.5 0
      vertex 2.5 2.5 1
    endloop
  endfacet
  facet normal 1 0 0
    outer loop
      vertex 2.5 2.5 0
      vertex 2.5 -2.5 1
      vertex 2.5 -2.5 0
    endloop
  endfacet
  facet normal 0 1 -0
    outer loop
      vertex 2.5 2.5 0
      vertex -2.5 2.5 1
      vertex 2.5 2.5 1
    endloop
  endfacet
  facet normal 0 1 0
    outer loop
      vertex -2.5 2.5 1
      vertex 2.5 2.5 0
      vertex -2.5 2.5 0
    endloop
  endfacet
  facet normal 0 -1 0
    outer loop
      vertex -2.5 -2.5 0
      vertex 2.5 -2.5 1
      vertex -2.5 -2.5 1
    endloop
  endfacet
  facet normal 0 -1 -0
    outer loop
      vertex 2.5 -2.5 1
      vertex -2.5 -2.5 0
      vertex 2.5 -2.5 0
    endloop
  endfacet
endsolid OpenSCAD_Model
